<svg xmlns="http://www.w3.org/2000/svg" width="22" height="24" viewBox="0 0 22 24">
    <g fill="#E60000">
        <path d="M.458.87c-.28.369-.435.823-.435 1.31v19.25c0 .451.135.875.378 1.23l10.474-10.925L.458.869zM11.834 10.735l3.398-3.545L3.288.295C2.77-.005 2.175-.075 1.62.08l10.214 10.655zM11.834 12.735L1.517 23.497c.222.075.452.112.683.112.373 0 .747-.098 1.088-.295l12.03-6.945-3.484-3.634zM19.959 9.92l-3.492-2.017-3.674 3.832 3.76 3.921 3.406-1.967c.681-.393 1.088-1.098 1.088-1.885 0-.786-.407-1.491-1.088-1.885z"/>
    </g>
</svg>
