<svg xmlns="http://www.w3.org/2000/svg" xmlns:xlink="http://www.w3.org/1999/xlink" width="24" height="24" viewBox="0 0 24 24">
    <defs>
        <path id="prefix__a" d="M19.35 6.04C18.67 2.59 15.64 0 12 0 9.11 0 6.6 1.64 5.35 4.04 2.34 4.36 0 6.91 0 10c0 3.31 2.69 6 6 6h13c2.76 0 5-2.24 5-5 0-2.64-2.05-4.78-4.65-4.96zM17 9l-5 5-5-5h3V5h4v4h3z"/>
    </defs>
    <g fill="none" fill-rule="evenodd" transform="translate(0 4)">
        <mask id="prefix__b" fill="#fff">
            <use xlink:href="#prefix__a"/>
        </mask>
        <g fill="#E60000" mask="url(#prefix__b)">
            <path d="M-13-17h50v50h-50v-50z"/>
        </g>
    </g>
</svg>
