<svg xmlns="http://www.w3.org/2000/svg" width="138" height="139" viewBox="0 0 138 139">
    <g fill="none">
        <path fill="#333" d="M82.635 22.59H11.488c-3.572 0-6.468 2.916-6.468 6.513v61.882h84.083V29.103c0-3.597-2.896-6.514-6.468-6.514z" transform="translate(22.08 22.163)"/>
        <path fill="#FFF" d="M79.576 29.492H12.92c-.897 0-1.625.726-1.625 1.62v56.736h71.533V32.734c0-1.79-1.456-3.242-3.252-3.242z" transform="translate(22.08 22.163)"/>
        <path fill="#F8F5F5" d="M82.828 40.786L35.767 87.848 82.828 87.848z" transform="translate(22.08 22.163)"/>
        <path fill="#E60000" d="M69.651 0L74.718 5.562 81.887 3.279 83.493 10.629 90.844 12.236 88.561 19.405 94.123 24.472 88.561 29.539 90.844 36.708 83.493 38.315 81.887 45.665 74.718 43.382 69.651 48.944 64.583 43.382 57.415 45.665 55.808 38.315 48.458 36.708 50.741 29.539 45.179 24.472 50.741 19.405 48.458 12.236 55.808 10.629 57.415 3.279 64.583 5.562z" transform="translate(22.08 22.163)"/>
        <g fill="#FFF">
            <path d="M3.687 16.685L19.765.475 22.04 2.767 5.961 18.977zM4.824 9.726C2.16 9.726 0 7.549 0 4.863 0 2.177 2.16 0 4.824 0c2.664 0 4.824 2.177 4.824 4.863 0 2.686-2.16 4.863-4.824 4.863zm0-6.484c-.888 0-1.608.726-1.608 1.621s.72 1.621 1.608 1.621c.888 0 1.608-.726 1.608-1.621s-.72-1.621-1.608-1.621zM20.903 19.452c-2.664 0-4.824-2.177-4.824-4.863 0-2.686 2.16-4.863 4.824-4.863 2.664 0 4.824 2.177 4.824 4.863 0 2.686-2.16 4.863-4.824 4.863zm0-6.484c-.888 0-1.608.726-1.608 1.621s.72 1.621 1.608 1.621c.888 0 1.608-.726 1.608-1.621s-.72-1.621-1.608-1.621z" transform="translate(22.08 22.163) translate(57.101 14.432)"/>
        </g>
        <path fill="#E0E3E6" d="M28.334 67.768L22.589 70.127 26.338 77.808 32.629 77.808zM48.944 67.768L28.821 67.446 24.472 58.922 40.418 43.296z" transform="translate(22.08 22.163)"/>
        <path fill="#BD0000" d="M17.81 67.017c.439 1.316 1.412 2.374 2.668 2.902 1.258.527 2.676.472 3.89-.15l3.869-1.96-4.357-8.826-4.03 2.45c-1.884 1.134-2.735 3.464-2.04 5.584z" transform="translate(22.08 22.163)"/>
        <path fill="#4A90E2" d="M48.944 53.981L54.18 52.081 55.219 55.202 49.983 57.101zM44.551 43.447L47.965 39.531 50.199 41.89 46.784 45.806zM53.336 65.258L58.356 65.258 58.356 68.396 53.336 68.396z" transform="translate(22.08 22.163)"/>
        <path fill="#E60000" d="M63.376 55.219L94.123 55.219 94.123 74.671 63.376 74.671z" transform="translate(22.08 22.163)"/>
        <path fill="#FFF" d="M68.396 60.238L74.671 60.238 74.671 63.376 68.396 63.376zM77.808 60.238L89.103 60.238 89.103 63.376 77.808 63.376zM67.768 66.513L89.103 66.513 89.103 69.651 67.768 69.651zM0 35.767L24.472 35.767 24.472 48.944 0 48.944z" transform="translate(22.08 22.163)"/>
        <path fill="#BD0000" d="M5.02 40.786L8.157 40.786 8.157 43.924 5.02 43.924zM11.295 40.786L19.452 40.786 19.452 43.924 11.295 43.924z" transform="translate(22.08 22.163)"/>
        <path fill="#D6D9DB" d="M89.254 94.123H4.868C2.18 94.123 0 91.875 0 89.103v-5.02h37.133c1.112 0 2.129.648 2.626 1.673.496 1.025 1.513 1.673 2.626 1.673h9.353c1.112 0 2.13-.648 2.626-1.673.497-1.025 1.513-1.673 2.626-1.673h37.133v5.02c0 2.772-2.18 5.02-4.869 5.02z" transform="translate(22.08 22.163)"/>
        <path fill="#4A90E2" d="M24.346 38.904L24.346 48.787 11.295 48.787 11.295 52.081 27.609 52.081 27.609 38.904zM5.02 48.944L11.295 48.944 11.295 52.081 5.02 52.081zM82.828 74.671L89.103 74.671 89.103 77.808 82.828 77.808z" transform="translate(22.08 22.163)"/>
    </g>
</svg>
