<svg xmlns="http://www.w3.org/2000/svg" width="138" height="139" viewBox="0 0 138 139">
    <g fill="none" fill-rule="evenodd">
        <path fill="#DDD" d="M62.978 14.854c.362-1.773-.416-3.717-1.917-4.797-1.5-1.081-3.651-1.244-5.31-.404-1.35-3.411-3.257-7.177-6.894-8.183-2.612-.722-5.571.327-7.322 2.334-1.344 1.54-2.029 3.6-1.863 5.609-1.184-.69-2.485-1.407-3.858-1.246-1.979.233-3.307 2.627-2.41 4.346-.691-.385-1.634-.288-2.225.23-.59.517-.45 1.271-.12 1.972 9.317 0 18.7.14 28.044.14.224 0 3.852.111 3.875 0M69.337 11.142c-.25-1.29.288-2.703 1.327-3.49 1.039-.785 2.528-.904 3.675-.293.936-2.48 2.256-5.22 4.774-5.95 1.809-.526 3.857.237 5.07 1.696.93 1.12 1.404 2.619 1.29 4.08.819-.503 1.72-1.024 2.67-.906 1.37.169 2.289 1.91 1.669 3.16.478-.28 1.13-.209 1.54.167.408.376.31.925.082 1.435-6.45 0-12.946.1-19.414.1-.155 0-2.668.082-2.683 0" transform="translate(17.94 26.303)"/>
        <path fill="#E60000" d="M25.26 47.049L37.381 47.049 37.381 55.388 25.26 55.388 25.26 79.488 15.87 79.488 15.87 21.114 40.71 21.114 40.71 29.453 25.26 29.453 25.26 47.049M48.223 60.975h8.891l-4.445-29.52-4.446 29.52zm21.053 18.513h-9.31l-1.594-10.59H47.05l-1.594 10.59h-8.471l9.394-58.374h13.504l9.394 58.374zM81.022 66.345c0 4.135 1.853 5.706 4.8 5.706s4.8-1.571 4.8-5.706V35.09c0-4.135-1.853-5.706-4.8-5.706s-4.8 1.571-4.8 5.706v31.256zM71.76 35.667c0-9.26 4.968-14.553 14.062-14.553s14.062 5.292 14.062 14.553v30.1c0 3.225-.59 5.953-1.768 8.103.42 1.075 1.094 1.24 2.61 1.24h.842v8.104h-1.263c-4.126 0-6.736-1.488-8-3.97-1.852.662-4.041 1.076-6.483 1.076-9.094 0-14.062-5.292-14.062-14.554V35.667z" transform="translate(17.94 26.303)"/>
        <path fill="#232222" d="M14.614 46.86c-.535-.178-1.085-.315-1.635-.266-.813.072-1.611.546-2.413.366-.25-.056-.49-.174-.732-.268-1.284-.5-2.717-.314-3.9.504.602-.326 1.106-.943 1.738-1.155.283-.094.58-.103.87-.068.312.037.621.125.917.259.387.175.757.431 1.162.51.998.195 1.982-.72 2.978-.508.317.068.612.246.918.372.456.186.898.135 1.353.225-.251.427-.931.136-1.256.028" transform="translate(17.94 26.303)"/>
        <path fill="#999" d="M20.817 67.853c.025.163.01.326-.004.488-.076.798-.149 1.598-.228 2.395-.262 2.632-.594 5.258-.924 7.883l-.233 1.85c-.027.226-.059.46-.171.653-.155.26-.432.409-.703.518-.651.26-1.354.37-2.047.32-.166-.01-.344-.036-.465-.155-.16-.154-.175-.409-.177-.637l-.013-1.061c-.006-.638-.014-1.275-.023-1.912-.006-.677-.014-1.355-.023-2.034l-.024-2.087c-.025-2.244-.05-4.515.442-6.7.125-.553.262-1.201-.084-1.636-.108-.138-.26-.242-.331-.404-.1-.222-.023-.48.016-.72.12-.755-.152-1.45-.542-2.114-.309-.526-.69-1.031-1.014-1.532-.686-1.061-1.153-2.279-1.36-3.544-.1-.624-.29-1.428-.89-1.487-.003.002-.003.006-.005.009v.002c-1.186 2.836.24 6.193-.437 9.214-.065.292-.153.59-.111.888.05.347.26.718.085 1.015-.075.127-.21.206-.28.338-.062.119-.062.262-.055.396.085 1.492.938 2.865.92 4.358-.011.688-.207 1.378-.086 2.055.085.481.331.943.277 1.428-.054.51-.425 1.048-.167 1.48.099.163.263.26.403.381.818.703.711 2.03.528 3.126-.995-.42-2.172-.33-3.098.238.113-.469-.152-1.002-.58-1.171.43-.413.18-1.152-.062-1.708-.674-1.555-1.072-3.222-1.467-4.881-.256-1.077-.513-2.156-.636-3.259-.252-2.26.067-4.554-.104-6.824-.125-1.674-.515-3.31-.903-4.94-.357-1.495-.716-2.991-1.072-4.487-.138-.578-.276-1.156-.355-1.745-.117-.883-.248-2.274.119-3.122.307-.712 1.354-.817 1.994-.98 1.008-.257 2.038-.426 3.073-.503 2.033-.152 4.092.048 6.061.602.336.095.682.206.939.455.24.235.373.564.498.885 1.056 2.738 1.915 5.56 2.572 8.433.127.56.248 1.125.286 1.7.048.717-.031 1.44.037 2.151.057.584.211 1.152.311 1.73.19 1.093.178 2.227-.035 3.317-.038.193-.081.389-.061.584.027.26.17.494.209.751" transform="translate(17.94 26.303)"/>
        <path fill="#333" d="M1.94 30.13c-.307.206-.627.425-.803.753-.2.373-.18.823-.156 1.246l.25 4.186c.053.886.107 1.78.336 2.637.306 1.14.91 2.175 1.535 3.176.42.674 1.06 1.432 1.83 1.253.258.817-1.199 1.428-.957 2.249.05.167.168.312.185.484.036.352-.356.651-.294 1 .03.166.158.294.235.444.32.615-.259 1.35-.15 2.036.744-.044 1.393-.587 2.137-.614.36-.014.712.095 1.067.156.512.088 1.035.076 1.555.064l4.929-.118c1.307-.031 2.687-.045 3.828.598-.54-.7-.724-1.666-.476-2.517.201-.692.665-1.302.754-2.018.078-.634-.15-1.27-.11-1.908.058-.93.665-1.72 1.246-2.445.142-.176.288-.357.48-.474.162-.099.349-.148.516-.237.604-.324.815-1.086.893-1.771.27-2.365-.317-4.735-.9-7.042l-.57-2.257c-.19-.75-.392-1.526-.874-2.13-.815-1.02-2.213-1.307-3.493-1.528l-2.638-.454c-.233-.04-.47-.08-.705-.045-.3.045-.568.21-.83.366-1.117.66-2.308 1.193-3.543 1.584-1.223.387-2.297 1.326-3.362 2.04L1.94 30.13" transform="translate(17.94 26.303)"/>
        <path fill="#E9B39B" d="M5.318 26.31c-.008.123-.016.255.04.365.042.087.12.15.198.206.523.37 1.192.495 1.826.424.634-.072 1.238-.328 1.785-.661.745-.454 1.428-1.092 1.7-1.93.025-.077.047-.161.028-.241-.027-.118-.131-.197-.226-.27-.882-.678-1.51-1.687-1.734-2.785-.018-.085-.036-.177-.098-.237-.086-.082-.22-.072-.338-.056-.685.096-1.364.241-2.03.434-.403.117-1.593.32-1.76.747-.079.205.13.56.19.745.115.358.208.724.278 1.094.134.712.182 1.44.14 2.164" transform="translate(17.94 26.303)"/>
        <path fill="#F4CFBF" d="M3.534 22.198c.192.436.655.762 1.167.823.183.022.372.013.546.065.553.164.687.811 1.065 1.214.521.555 1.445.583 2.245.512.58-.05 1.199-.148 1.618-.516.223-.197.369-.455.475-.72.463-1.157.216-2.446-.165-3.629-.12-.37-.25-.736-.382-1.102-.222-.618-.454-1.254-.911-1.756-.576-.631-1.495-.992-2.396-.938-.901.054-1.761.52-2.24 1.215-.607.88-.536 1.915-.34 2.893.108.545.122.557-.297.916-.361.31-.606.524-.385 1.023" transform="translate(17.94 26.303)"/>
        <path fill="#333" d="M4.304 21.764c.14.097.157.282.236.426.078.144.335.238.413.094.023-.043.02-.094.013-.141-.035-.237-.157-.455-.26-.675-.318-.68-.464-1.417-.608-2.147-.057-.289-.108-.608.057-.86.123-.186.344-.3.568-.372.744-.239 1.592-.108 2.317-.39.345-.134.639-.354.947-.55.185-.116.418-.23.625-.148.108.043.185.132.255.218.29.36.541.744.75 1.147.085-.292.042-.612-.115-.877-.243-.406-.732-.667-.92-1.097-.067-.154-.092-.322-.16-.476-.17-.386-.586-.632-1.007-.788-.538-.201-1.142-.296-1.703-.16-.366.088-.696.269-1.005.467-.414.265-.81.575-1.055.98-.176.293-.267.627-.464.909-.15.217-.36.397-.526.603-.406.502-.552 1.172-.388 1.777.122.45.4.85.674 1.24.13.187.275.569.484.693.259.153.616-.043.872.127" transform="translate(17.94 26.303)"/>
        <path fill="#232222" d="M7.102 41.652c.414-.08.832-.163 1.22-.326 1.193-.5 1.932-1.669 2.898-2.522.363-.321.765-.602 1.096-.955.329-.349.585-.765.945-1.08.392-.344.884-.55 1.367-.751-.802.765-1.418 1.72-1.78 2.763-.127.367-.226.75-.436 1.076-.292.451-.771.753-1.272.955-.5.203-1.031.319-1.545.486-1.122.366-2.16.981-3.016 1.788-.19.18-.4.38-.663.384-.222.003-.418-.14-.581-.29-.344-.312-1.055-.927-.327-1.118.682-.18 1.4-.274 2.094-.41M15.228 40.959c.422.03.867.059 1.257-.054.193-.056.361-.143.543-.214.271-.106.575-.175.887-.2.202-.018.408-.017.603-.055.49-.095.804-.404 1.078-.692-.22.032-.44.071-.658.11l-2.885.514c-.355.063-1.012.092-1.29.258-.399.238.185.312.465.333M5.67 36.059c.09.368.183.779.505.99.148.096.326.136.502.163 1.032.16 2.123-.082 2.983-.66-.64.196-1.323.394-1.968.218-.285-.078-.563-.228-.856-.197.009-.212.044-.424.104-.629-.286.016-.607.02-.816-.17-.122-.112-.182-.272-.243-.424-.155-.385-.342-.757-.559-1.113-.069-.114-.557-.93-.629-.642-.024.097.25.47.3.575.094.195.18.394.262.596.168.42.307.853.414 1.293" transform="translate(17.94 26.303)"/>
        <path fill="#F4CFBF" d="M7.176 38.075c-.002-.105-.061-.177-.115-.228-.225-.215-.463-.391-.707-.533-.064-.037-.133-.072-.198-.043-.066.03-.122.15-.099.26.011.054.039.096.043.153.015.176-.162.296-.166.507-.003.216.08.305.196.31.337.016.726-.265 1.046-.426" transform="translate(17.94 26.303)"/>
        <path fill="#888787" d="M14.627 63.342c-.351-.502-.786-.984-1.153-1.463-.781-1.014-1.313-2.177-1.548-3.385-.114-.597-.33-1.365-1.014-1.421l-.004.008c-.005-.033-.007-.07-.005-.105.01-.149.071-.292.135-.43.318-.705.62-1.415.961-2.11.16-.323.314-.786.608-1.03.024.307-.064.562.076.878.19.42.58.743.802 1.147.31.56.288 1.22.186 1.84-.102.618-.276 1.233-.245 1.859.04.82.427 1.593.75 2.363.25.592.466 1.225.451 1.849" transform="translate(17.94 26.303)"/>
        <path fill="#232222" d="M9.434 82.968c-.29.422-.72.78-.912 1.24-.135.323-.139.682-.011 1.007.039.099.092.198.186.266.127.092.305.112.472.128 1.116.105 2.27.17 3.338-.117.125-.034.253-.074.344-.153.146-.127.164-.322.133-.496-.032-.173-.106-.341-.113-.516-.014-.32.19-.614.323-.915.225-.506.253-1.071.079-1.591-.062-.182-.148-.365-.13-.553.005-.053.017-.109-.013-.155-.019-.03-.052-.05-.085-.068-.294-.167-.637-.272-.99-.304-.42-.038-.841.028-1.24.14-.265.073-.772.172-.923.392-.136.2-.042.536-.079.757-.054.33-.182.65-.38.938M15.95 83.6c-.068.47-.18.993.103 1.383.558.01 1.117.033 1.675.065.576.032 1.152.077 1.717.19.366.075.726.177 1.09.257 1.695.372 3.507.23 5.117-.4.049-.02.101-.042.13-.085.022-.036.025-.08.024-.12-.017-.412-.414-.71-.799-.89-.329-.155-.678-.27-1.036-.341-.29-.059-.602-.095-.833-.273-.142-.108-.24-.26-.366-.384-.223-.221-.525-.349-.795-.516-.49-.305-.872-.744-1.32-1.102-.25-.2-.52-.374-.789-.548-.095-.061-.204-.126-.315-.1-.083.018-.145.083-.202.144-.144.157-.29.317-.374.51-.028.063-.05.131-.093.185-.107.13-.304.14-.469.19-.23.072-.413.236-.628.34-.415.201-.949.15-1.313-.127-.471-.357-.5-.07-.473.366.026.419.01.84-.051 1.255" transform="translate(17.94 26.303)"/>
        <path fill="#5A80D3" d="M15.294 34.598l-1.87.174c-.358.034-.682-.17-.723-.455l-.552-3.754c-.043-.285.213-.543.57-.577l1.871-.174c.358-.034.682.17.724.455l.551 3.754c.043.285-.213.543-.57.577" transform="translate(17.94 26.303)"/>
        <path fill="#F4CFBF" d="M13.777 35.208c.128-.116.244-.253.408-.317.106-.041.223-.048.337-.055l1.048-.059c.033-.002.068-.003.094.015.03.02.04.059.045.093.097.567.15 1.14.16 1.715.001.034.001.07-.015.1-.057.105-.22.056-.343.046-.372-.03-.591.416-.95.514-.027-.38-.285-.707-.552-.992-.183-.195-.378-.382-.528-.601-.08-.116-.142-.169-.047-.264.077-.076.25-.11.343-.195" transform="translate(17.94 26.303)"/>
        <path fill="#F3D0BD" d="M57.048 69.066c-.136.591-.267 1.202-.141 1.795.193.91.95 1.623 1.7 2.25.096.08.206.166.338.167.161.001.287-.123.384-.24.464-.563.81-1.206 1.011-1.885.084-.284.14-.6-.005-.864-.084-.153-.23-.273-.316-.426-.193-.343-.049-.756.098-1.117l1.466-3.604c.145-.354.291-.729.224-1.101-.089-.496-.531-.871-.976-1.17-.373-.25-1.254-.952-1.773-.727-.537.23-.637 1.534-.77 2.015-.45 1.628-.863 3.264-1.24 4.907M74.156 67.91c.172.897.342 1.82.089 2.706-.1.349-.265.688-.297 1.045-.041.451.133.896.305 1.328.038.095.083.198.19.252.185.094.424-.01.603-.11 1.288-.73 2.687-1.598 2.896-2.833.067-.396.001-.797-.064-1.192l-1.29-7.822c-.064-.391-.135-.795-.392-1.133-.258-.339-.756-.598-1.25-.521-.273.042-.505.177-.727.309-1.637.971-1.24 1.796-.966 3.235l.903 4.735" transform="translate(17.94 26.303)"/>
        <path fill="#BD0000" d="M61.93 69.875c-.081.168-.166.382-.048.528.074.09.2.116.317.134 1.703.265 3.435.26 5.158.256l5.132-.015c.118 0 .249-.006.33-.09.062-.066.077-.163.089-.254l.388-3.035c.194-1.512.388-3.025.496-4.547.022-.32.056-.674.293-.893.125-.116.291-.176.45-.244.693-.299 1.281-.79 1.86-1.275.13-.11.268-.23.315-.394.062-.215-.048-.438-.155-.636l-.825-1.524c-.123-.228-.258-.467-.484-.595-.187-.107-.412-.121-.628-.13-3.895-.171-7.822.434-11.482 1.769-1.745.637-.45 3.59-.338 5.004.158 2.014.03 4.097-.867 5.94" transform="translate(17.94 26.303)"/>
        <path fill="#E9B39B" d="M65.477 52.851c.342 1.407.305 3.04-.626 4.133-.23.27-.523.534-.542.89-.013.254.12.49.256.701.411.64.901 1.24 1.52 1.673.618.431 1.376.684 2.12.59.854-.107 1.607-.66 2.151-1.343.544-.683.907-1.493 1.265-2.295.105-.234.208-.516.078-.738-.063-.108-.172-.179-.274-.251-.742-.53-1.262-1.343-1.57-2.214-.309-.872-.419-1.804-.464-2.73-.012-.246-.02-.498-.107-.728-.195-.518-.753-.814-1.294-.853-.54-.04-1.073.13-1.59.298l-.923.3c-.522.17-.873.365-.658.909.221.559.509 1.048.658 1.658" transform="translate(17.94 26.303)"/>
        <path fill="#F3D0BD" d="M64.469 46.419c-.238.704-.163 1.47-.086 2.209l.114 1.08c.124 1.186.346 2.536 1.357 3.169.409.256.894.354 1.37.435.504.086 1.033.157 1.522.005.819-.256 1.332-1.081 1.565-1.906.42-1.489.155-3.098-.389-4.547-.228-.609-.525-1.226-1.046-1.615-1.378-1.03-3.83-.544-4.407 1.17" transform="translate(17.94 26.303)"/>
        <path fill="#333" d="M63.716 44.419c-.418.14-.909.12-1.244.41-.363.313-.402.875-.708 1.246-.268.326-.737.503-.85.912-.062.22 0 .465-.078.68-.084.229-.302.371-.488.527-.677.568-1.013 1.523-.843 2.397.05.257.14.511.123.773-.043.643-.696 1.064-.922 1.667-.405 1.081.676 2.26.398 3.382-.178.722-.886 1.238-.992 1.975-.112.782.487 1.476.649 2.249.15.72-.06 1.568.404 2.134.41.5 1.198.562 1.57 1.09.234.33.25.769.424 1.134.382.804 1.502 1.042 2.288.638.787-.404 1.248-1.28 1.399-2.16.069-.405.086-.83.271-1.197.19-.377.543-.657.697-1.05.373-.95-.554-2.106-.065-3 .123-.226.323-.397.475-.605.301-.411.398-.969.253-1.46-.115-.388-.372-.744-.37-1.15.001-.39.247-.753.23-1.143-.039-.903-1.328-1.217-1.616-2.073-.149-.439.004-.92-.012-1.383-.018-.505-.236-.981-.303-1.482-.072-.536.03-1.078.132-1.608.06-.31.123-.629.3-.888.165-.24.413-.408.655-.568.644-.428 1.497-.859 2.13-.414.208.147.364.379.604.46.171.057.37.033.519.137.131.092.184.26.23.415l.496 1.72c.312 1.081.626 2.228.34 3.316-.056.214-.135.423-.179.64-.064.324-.047.657-.03.986l.094 1.768c.02.378.042.766.198 1.11.136.298.365.544.504.841.249.532.18 1.165-.012 1.72-.191.555-.495 1.062-.721 1.604-.293.703-.452 1.463-.465 2.226-.006.358.044.765.327.98.272.205.676.146.95-.056.275-.203.446-.517.584-.831.19-.43.526-.976.963-.818.233.083.35.34.524.516.38.385 1.058.343 1.472-.006.413-.35.584-.93.558-1.474-.014-.298-.08-.597-.035-.892.044-.294.24-.597.532-.634.259-.033.498.147.757.176.433.047.817-.362.881-.798.065-.436-.112-.873-.335-1.252-.223-.379-.498-.73-.66-1.139-.274-.687-.205-1.457-.21-2.198-.006-.741-.122-1.549-.654-2.057-.231-.221-.526-.369-.74-.608-.458-.513-.424-1.289-.386-1.98.038-.69.01-1.484-.513-1.93-.35-.298-.876-.39-1.11-.788-.198-.337-.114-.791-.32-1.125-.353-.574-1.246-.402-1.802-.778-.323-.218-.499-.6-.79-.86-.795-.712-1.867-.157-2.795-.309-.4-.065-.726-.1-1.123.033-.57.19-.992.661-1.56.852" transform="translate(17.94 26.303)"/>
        <path fill="#232222" d="M64.396 79.598c.723.541 1.502 1.103 2.385 1.13.518.017 1.023-.154 1.516-.324 2.08-.714 4.17-1.434 6.116-2.49 1.445-.783 2.867-1.826 3.557-3.385-.968-.056-1.928.163-2.887.314-3.247.512-6.54.257-9.804.532-.89.075-3.133.113-3.431 1.366-.27 1.134 1.832 2.321 2.548 2.857" transform="translate(17.94 26.303)"/>
        <path fill="#626162" d="M55.839 83.16c-.176.427-.198.88-.22 1.327-.013.297-.02.614.193.865.21.246.628.385 1.015.336.262-.033.493-.141.726-.236 1.037-.42 2.22-.595 3.392-.688.494-.04 1.005-.068 1.44-.244.437-.175.776-.546.657-.903-.099-.294-.467-.493-.836-.621-1.105-.383-2.395-.36-3.524-.702-.549-.166-1.214-.456-1.813-.252-.529.179-.867.72-1.03 1.117" transform="translate(17.94 26.303)"/>
        <path fill="#F3D0BD" d="M72.187 84.286c.95.168 1.97.288 2.87-.022.075-.026.152-.056.207-.107.084-.077.103-.189.118-.293.074-.537.109-1.078.103-1.618 0-.068-.005-.143-.061-.191-.051-.044-.13-.051-.203-.053-.46-.011-.901.132-1.351.211-.758.133-1.56.08-2.285-.151-.175-.056-.365-.123-.543-.072-.11.031-.195.104-.276.175-.375.33-.73.677-1.065 1.038-.135.146-.462.468-.422.677.05.26.435.12.704.121.747.002 1.478.158 2.204.285" transform="translate(17.94 26.303)"/>
        <path fill="#626162" d="M73.852 82.408c.125.5.134 1.024.024 1.526-.043.2-.105.398-.097.6.007.203.101.418.295.513.144.071.315.066.478.06l3.219-.138c.396-.017.797-.033 1.185.04.907.17 1.734.82 2.643.665.708-.122 1.236-.749 1.323-1.409.088-.66-.203-1.327-.652-1.847-.64-.739-1.61-1.225-2.63-1.317-.671-.06-1.36.042-2.016-.105-.295-.066-.576-.182-.875-.233-.378-.065-.769-.024-1.15.032-.786.114-1.921.223-2.597.625.121.162.37.21.524.359.172.167.27.408.326.63" transform="translate(17.94 26.303)"/>
        <path fill="#333" d="M82.139 77.945c-.698.786-1.672 1.252-2.62 1.699-.795.373-1.596.75-2.45.945-.816.188-1.658.202-2.49.28-.78.076-1.554.203-2.317.386-.956.23-1.894.545-2.868.667-1.124.144-2.392.007-3.273-.789-.666-.6-.767-1.418-.209-2.063.055-.066.118-.132.19-.193.861-.756 2.418-.866 3.48-1.19 1.116-.345 2.222-.723 3.315-1.139.226-.083.452-.17.678-.258.578-.225 1.16-.467 1.646-.852.402-.318.727-.723 1.107-1.062 1.473-1.311 3.826-1.467 5.452-.364.383.259.732.588.94 1.004.477.942.119 2.14-.581 2.929" transform="translate(17.94 26.303)"/>
        <path fill="#232222" d="M74.244 77.004c-.385.548-1.327.686-1.55 1.31-.041.116-.052.245-.11.356-.126.25-.437.359-.67.532-.38.28-.555.745-.558 1.191 0 .449.154.883.34 1.298.045.105.053.276-.068.28-.025.003-.048-.004-.072-.011-1.404-.432-2.792-.954-4.01-1.733-.315-.201-.631-.46-.754-.771.059-.064.126-.129.203-.188.919-.735 2.58-.842 3.712-1.158 1.19-.335 2.371-.702 3.537-1.106" transform="translate(17.94 26.303)"/>
        <path fill="#333" d="M55.033 73.477c-.797.172-1.585.477-2.195 1.024-.61.547-1.019 1.364-.94 2.185.073.767.556 1.445 1.157 1.918.6.473 1.316.769 2.024 1.053 4.555 1.833 9.207 3.42 13.93 4.75.127.037.264.072.389.03.13-.046.218-.165.299-.279l1.77-2.509c.148-.207.3-.435.293-.69-.017-.555-.704-.773-1.242-.883-1.598-.328-3.116-1.04-4.398-2.06-.646-.513-1.233-1.104-1.922-1.556-1.428-.934-3.057-1.449-4.484-2.407-1.334-.895-3.156-.907-4.681-.576" transform="translate(17.94 26.303)"/>
        <path fill="#5A80D3" d="M74.476 77.748l-13.183.497c-.538.02-1.003-.402-1.074-.977l-.87-6.985c-.081-.656.376-1.247.99-1.277l14.052-.695c.596-.029 1.095.484 1.095 1.128v7.18c0 .609-.447 1.107-1.01 1.129" transform="translate(17.94 26.303)"/>
        <path fill="#FFF" d="M31.513 0h-8.921c-3.708 0-6.713 2.948-6.713 6.585v3.312c0 1.49.505 2.864 1.355 3.967l-3.848 4.766 6.03-2.93c.946.498 2.027.782 3.176.782h8.921c3.708 0 6.713-2.948 6.713-6.585V6.585C38.226 2.948 35.221 0 31.513 0" transform="translate(17.94 26.303)"/>
        <path fill="#333" d="M34.08 7.452H18.774c-.232 0-.42-.278-.42-.621 0-.343.188-.621.42-.621H34.08c.232 0 .42.278.42.62 0 .344-.188.622-.42.622M34.08 11.178H18.774c-.232 0-.42-.278-.42-.621 0-.343.188-.621.42-.621H34.08c.232 0 .42.278.42.621 0 .343-.188.621-.42.621" transform="translate(17.94 26.303)"/>
    </g>
</svg>
