<svg xmlns="http://www.w3.org/2000/svg" width="138" height="139" viewBox="0 0 138 139">
    <g fill="none" transform="translate(31.74 20.783)">
        <rect width="52.992" height="96.048" x="1.656" fill="#E9EEF2" rx="4.608"/>
        <path fill="#333" d="M54.648 6.624H1.656C1.656 2.966 4.622 0 8.28 0h39.744c3.658 0 6.624 2.966 6.624 6.624zM54.648 89.424c0 3.658-2.966 6.624-6.624 6.624H8.28c-3.658 0-6.624-2.966-6.624-6.624h52.992z"/>
        <path fill="#2D85CC" d="M26.496 72.864L0 72.864 3.312 49.68 23.184 49.68z"/>
        <path fill="#1261A0" d="M18.216 54.648c-.915 0-1.656-.741-1.656-1.656v-4.968c0-1.83-1.483-3.312-3.312-3.312-1.83 0-3.312 1.483-3.312 3.312v4.968c0 .915-.741 1.656-1.656 1.656-.915 0-1.656-.741-1.656-1.656v-4.968c0-3.658 2.966-6.624 6.624-6.624 3.658 0 6.624 2.966 6.624 6.624v4.968c0 .915-.741 1.656-1.656 1.656z"/>
        <path fill="#F7B030" d="M56.304 72.864L29.808 72.864 33.12 49.68 52.992 49.68z"/>
        <path fill="#BD620E" d="M48.024 54.648c-.915 0-1.656-.741-1.656-1.656v-4.968c0-1.83-1.483-3.312-3.312-3.312-1.83 0-3.312 1.483-3.312 3.312v4.968c0 .915-.741 1.656-1.656 1.656-.915 0-1.656-.741-1.656-1.656v-4.968c0-3.658 2.966-6.624 6.624-6.624 3.658 0 6.624 2.966 6.624 6.624v4.968c0 .915-.741 1.656-1.656 1.656z"/>
        <path fill="#D13330" d="M41.4 72.864L14.904 72.864 18.216 46.368 38.088 46.368z"/>
        <path fill="#962523" d="M33.12 51.336c-.915 0-1.656-.741-1.656-1.656V41.4c0-1.83-1.483-3.312-3.312-3.312-1.83 0-3.312 1.483-3.312 3.312v8.28c0 .915-.741 1.656-1.656 1.656-.915 0-1.656-.741-1.656-1.656V41.4c0-3.658 2.966-6.624 6.624-6.624 3.658 0 6.624 2.966 6.624 6.624v8.28c0 .915-.741 1.656-1.656 1.656z"/>
        <circle cx="48.024" cy="59.616" r="1.656" fill="#BD620E"/>
        <circle cx="33.12" cy="56.304" r="1.656" fill="#962523"/>
        <circle cx="23.184" cy="56.304" r="1.656" fill="#962523"/>
        <circle cx="8.28" cy="59.616" r="1.656" fill="#1261A0"/>
        <g fill="#9AA3A8">
            <path d="M18.216 3.312H8.28c-.915 0-1.656-.741-1.656-1.656C6.624.741 7.365 0 8.28 0h9.936c.915 0 1.656.741 1.656 1.656 0 .915-.741 1.656-1.656 1.656zM4.968 9.936H1.656C.741 9.936 0 9.195 0 8.28c0-.915.741-1.656 1.656-1.656h3.312c.915 0 1.656.741 1.656 1.656 0 .915-.741 1.656-1.656 1.656zM14.904 9.936h-3.312c-.915 0-1.656-.741-1.656-1.656 0-.915.741-1.656 1.656-1.656h3.312c.915 0 1.656.741 1.656 1.656 0 .915-.741 1.656-1.656 1.656zM24.84 9.936h-3.312c-.915 0-1.656-.741-1.656-1.656 0-.915.741-1.656 1.656-1.656h3.312c.915 0 1.656.741 1.656 1.656 0 .915-.741 1.656-1.656 1.656z" transform="translate(14.904 21.528)"/>
        </g>
        <path fill="#E60000" d="M75.249 24.84L69.951 28.199 72.263 34.031 66 33.631 64.447 39.711 59.616 35.703 54.784 39.711 53.232 33.631 46.969 34.031 49.281 28.199 43.983 24.84 49.281 21.481 46.969 15.649 53.232 16.049 54.785 9.969 59.616 13.977 64.448 9.969 66 16.049 72.263 15.649 69.951 21.481z"/>
        <path fill="#FFF" d="M57.959 29.808c-.574 0-1.107-.298-1.408-.786-.302-.488-.329-1.098-.072-1.611l3.312-6.624c.262-.534.79-.887 1.383-.924.594-.037 1.162.247 1.488.744.327.497.361 1.131.091 1.661l-3.312 6.624c-.28.562-.854.916-1.482.916z"/>
        <circle cx="64.584" cy="28.152" r="1.656" fill="#FFF"/>
        <circle cx="54.648" cy="21.528" r="1.656" fill="#FFF"/>
        <path fill="#9AA3A8" d="M21.528 81.144h-6.624c-.915 0-1.656-.741-1.656-1.656 0-.915.741-1.656 1.656-1.656h6.624c.915 0 1.656.741 1.656 1.656 0 .915-.741 1.656-1.656 1.656zM41.4 81.144h-6.624c-.915 0-1.656-.741-1.656-1.656 0-.915.741-1.656 1.656-1.656H41.4c.915 0 1.656.741 1.656 1.656 0 .915-.741 1.656-1.656 1.656z"/>
    </g>
</svg>
