<svg xmlns="http://www.w3.org/2000/svg" width="24" height="24" viewBox="0 0 24 24">
    <path fill="#E60000" d="M19.078 0H4.922C2.208 0 0 2.208 0 4.922v14.156C0 21.792 2.208 24 4.922 24h14.156C21.792 24 24 21.792 24 19.078V4.922C24 2.208 21.792 0 19.078 0zM7.39 18.493c-.217.375-.612.586-1.017.586-.199 0-.4-.05-.584-.157-.56-.323-.752-1.041-.429-1.6l.23-.4h2.707l-.907 1.57zm-2.21-2.509c-.646 0-1.172-.525-1.172-1.171 0-.647.526-1.172 1.172-1.172h2.305l3.162-5.477L9.79 6.68c-.323-.56-.13-1.278.429-1.601.56-.323 1.278-.13 1.6.429L12 5.82l.18-.312c.324-.56 1.042-.752 1.601-.429.271.157.465.41.546.712.081.302.04.618-.117.889l-4.019 6.96h2.535l1.353 2.344h-8.9zm13.64 0h-.952l.772 1.337c.323.56.13 1.278-.429 1.6-.18.105-.381.158-.584.158-.102 0-.204-.013-.305-.04-.303-.081-.555-.275-.712-.546l-4.069-7.048 1.353-2.344 2.621 4.54h2.305c.646 0 1.172.525 1.172 1.171 0 .647-.526 1.172-1.172 1.172z"/>
</svg>
