<svg xmlns="http://www.w3.org/2000/svg" xmlns:xlink="http://www.w3.org/1999/xlink" width="138" height="139" viewBox="0 0 138 139">
    <defs>
        <path id="prefix__a" d="M0 0L137.983 0 137.983 138 0 138z"/>
        <path id="prefix__b" d="M11.666 25.46c1.34-2.017 3.652-3.437 5.792-3.811.541-8.888 3.697-10.272 5.49-12.677 2.875-3.984 1.126-6.437 2.907-8.776-4.218 4-6.796.19-12.274 7.015-2.22 2.751-.533 1.146-.85 5.488-.19-.954-.581-1.883-1.063-2.751-1.138 1.93-3.257 6.094-4.042 7.61C.853 30.982.513 25.218 3.902 29.8c.598.817 1.09 1.683 1.375 2.574-.992-1.978-2.449-3.343-3.934-4.265-2.455 4.493-1.558 6.239 3.023 12.455 4.986 6.938 1.646 8.974 3.445 2.349 2.97-10.936 8.774-6.334 9.589-20.264-2.288.076-4.488 1.35-5.734 2.81"/>
        <path id="prefix__e" d="M11.805 7.552c5.43-7.87 6.47-6.763 5.786-7.437-2.404 2.438-4.562 5.106-6.468 7.957.346-1.387.117-2.777-.474-3.86-.692.376.474.31.359 2.792-.11 2.726-2.28 3.417-5.657 12.249.135-1.826-.374-3.588-1.627-4.877-.577.56.872.377 1.318 3.388.26 2.088-.39 3.21-.325 3.234-4.33 12.52.67 4.547-4.26-.392l-.195.195c5.878 5.89-2.723 15.45 3.736 37.135.831-.248-1.823-4.091-2.209-15.337-.2-5.97-.102-10.12 2.329-13.62 2.829-4.077 5.615-3.715 5.336-4.485-3.123 1.134-5.754 3.701-7.057 7.173 1.014-6.905 2.308-15.72 9.162-16.93-.127-.655-3.583.77-5.192 2.736 6.46-15.25 10.445-10.68 10.58-12.116-1.793-.17-3.794.962-5.142 2.195"/>
        <path id="prefix__h" d="M7.072 37.384C6.064 37.294 9.992 21.125.076.2.658-.076 8.9 16.75 7.072 37.384"/>
        <path id="prefix__k" d="M4.942 10.565c-.209-.23-.754-.71-1.26-1.02-3.93-2.46-4.14.686-2.818-4.748.29-1.193.603-3.311.568-4.615 2.105 4.731 6.964 10.34 7.887 22.594C8.297 14.8.162 14.073.033 9.24c1.645-.067 3.82.325 4.909 1.326"/>
        <path id="prefix__n" d="M4.045 7.54C3.07 6.726 1.708 6.48.46 6.286.165 4.577.023 1.735.54.151c1.534 3.388 3.43 5.09 5.7 7.892 6.386 8.15 3.972 18.436 4.3 28.725C9.033 18.411 3.325 18.89.595 6.992c1.201-.179 2.63.097 3.45.547"/>
        <path id="prefix__q" d="M14.278 25.46c-1.34-2.017-3.652-3.437-5.792-3.811-.541-8.888-3.697-10.272-5.49-12.677C.12 4.988 1.87 2.535.089.196c4.218 4 6.796.19 12.274 7.015 2.22 2.751.533 1.146.85 5.488.19-.954.581-1.883 1.063-2.751 1.138 1.93 3.257 6.094 4.042 7.61 6.773 13.425 7.113 7.661 3.724 12.243-.598.817-1.09 1.683-1.375 2.574.992-1.978 2.449-3.343 3.934-4.265 2.455 4.493 1.558 6.239-3.023 12.455-4.986 6.938-1.646 8.974-3.445 2.349-2.97-10.936-8.774-6.334-9.589-20.264 2.288.076 4.488 1.35 5.734 2.81"/>
        <path id="prefix__t" d="M6.135 7.552C.705-.318-.335.789.35.115 2.753 2.553 4.91 5.22 6.817 8.072c-.346-1.387-.117-2.777.474-3.86.692.376-.474.31-.359 2.792.11 2.726 2.28 3.417 5.657 12.249-.135-1.826.374-3.588 1.627-4.877.577.56-.872.377-1.318 3.388-.26 2.088.39 3.21.325 3.234 4.33 12.52-.67 4.547 4.26-.392l.195.195c-5.878 5.89 2.723 15.45-3.736 37.135-.831-.248 1.823-4.091 2.209-15.337.2-5.97.102-10.12-2.329-13.62-2.829-4.077-5.615-3.715-5.336-4.485 3.123 1.134 5.754 3.701 7.057 7.173-1.014-6.905-2.308-15.72-9.162-16.93.127-.655 3.583.77 5.192 2.736C5.113 2.223 1.128 6.793.993 5.357c1.793-.17 3.794.962 5.142 2.195"/>
        <path id="prefix__w" d="M.38 37.384C1.388 37.294-2.54 21.125 7.376.2 6.794-.076-1.448 16.75.38 37.384"/>
        <path id="prefix__z" d="M4.442 10.565c.209-.23.754-.71 1.26-1.02 3.93-2.46 4.14.686 2.818-4.748-.29-1.193-.603-3.311-.568-4.615C5.847 4.913.988 10.522.065 22.776 1.087 14.8 9.222 14.073 9.35 9.24c-1.645-.067-3.82.325-4.909 1.326"/>
        <path id="prefix__C" d="M6.719 7.54c.975-.813 2.337-1.06 3.587-1.253.293-1.71.435-4.552-.082-6.136-1.534 3.388-3.43 5.09-5.7 7.892-6.386 8.15-3.972 18.436-4.3 28.725C1.731 18.411 7.44 18.89 10.17 6.992c-1.201-.179-2.63.097-3.45.547"/>
        <linearGradient id="prefix__c" x1="52.826%" x2="46.99%" y1="98.515%" y2="-33.735%">
            <stop offset="0%" stop-color="#FFFFFE"/>
            <stop offset="100%" stop-color="#247F70"/>
        </linearGradient>
        <linearGradient id="prefix__f" x1="51.522%" x2="49.686%" y1="87.625%" y2="11.709%">
            <stop offset="0%" stop-color="#FFFFFE"/>
            <stop offset="100%" stop-color="#37988C"/>
        </linearGradient>
        <linearGradient id="prefix__i" x1="50.527%" x2="48.687%" y1="71.872%" y2="-46.17%">
            <stop offset="0%" stop-color="#FFFFFE"/>
            <stop offset="100%" stop-color="#37988C"/>
        </linearGradient>
        <linearGradient id="prefix__l" x1="50.971%" x2="47.491%" y1="99.773%" y2="-6.241%">
            <stop offset="0%" stop-color="#FFFFFE"/>
            <stop offset="100%" stop-color="#37988C"/>
        </linearGradient>
        <linearGradient id="prefix__o" x1="53.305%" x2="49.49%" y1="117.44%" y2="21.363%">
            <stop offset="0%" stop-color="#FFFFFE"/>
            <stop offset="100%" stop-color="#247F70"/>
        </linearGradient>
        <linearGradient id="prefix__r" x1="47.174%" x2="53.01%" y1="98.515%" y2="-33.735%">
            <stop offset="0%" stop-color="#FFFFFE"/>
            <stop offset="100%" stop-color="#247F70"/>
        </linearGradient>
        <linearGradient id="prefix__u" x1="48.478%" x2="50.314%" y1="87.625%" y2="11.709%">
            <stop offset="0%" stop-color="#FFFFFE"/>
            <stop offset="100%" stop-color="#37988C"/>
        </linearGradient>
        <linearGradient id="prefix__x" x1="49.473%" x2="51.313%" y1="71.872%" y2="-46.17%">
            <stop offset="0%" stop-color="#FFFFFE"/>
            <stop offset="100%" stop-color="#37988C"/>
        </linearGradient>
        <linearGradient id="prefix__A" x1="49.029%" x2="52.509%" y1="99.773%" y2="-6.241%">
            <stop offset="0%" stop-color="#FFFFFE"/>
            <stop offset="100%" stop-color="#37988C"/>
        </linearGradient>
        <linearGradient id="prefix__D" x1="46.695%" x2="50.51%" y1="117.44%" y2="21.363%">
            <stop offset="0%" stop-color="#FFFFFE"/>
            <stop offset="100%" stop-color="#247F70"/>
        </linearGradient>
    </defs>
    <g fill="none" fill-rule="evenodd" transform="translate(0 .083)">
        <g transform="translate(38.088 52.716)">
            <mask id="prefix__d" fill="#fff">
                <use xlink:href="#prefix__b"/>
            </mask>
            <path fill="url(#prefix__c)" d="M11.666 25.46c1.34-2.017 3.652-3.437 5.792-3.811.541-8.888 3.697-10.272 5.49-12.677 2.875-3.984 1.126-6.437 2.907-8.776-4.218 4-6.796.19-12.274 7.015-2.22 2.751-.533 1.146-.85 5.488-.19-.954-.581-1.883-1.063-2.751-1.138 1.93-3.257 6.094-4.042 7.61C.853 30.982.513 25.218 3.902 29.8c.598.817 1.09 1.683 1.375 2.574-.992-1.978-2.449-3.343-3.934-4.265-2.455 4.493-1.558 6.239 3.023 12.455 4.986 6.938 1.646 8.974 3.445 2.349 2.97-10.936 8.774-6.334 9.589-20.264-2.288.076-4.488 1.35-5.734 2.81" mask="url(#prefix__d)"/>
        </g>
        <g transform="translate(43.608 55.2)">
            <mask id="prefix__g" fill="#fff">
                <use xlink:href="#prefix__e"/>
            </mask>
            <path fill="url(#prefix__f)" d="M11.805 7.552c5.43-7.87 6.47-6.763 5.786-7.437-2.404 2.438-4.562 5.106-6.468 7.957.346-1.387.117-2.777-.474-3.86-.692.376.474.31.359 2.792-.11 2.726-2.28 3.417-5.657 12.249.135-1.826-.374-3.588-1.627-4.877-.577.56.872.377 1.318 3.388.26 2.088-.39 3.21-.325 3.234-4.33 12.52.67 4.547-4.26-.392l-.195.195c5.878 5.89-2.723 15.45 3.736 37.135.831-.248-1.823-4.091-2.209-15.337-.2-5.97-.102-10.12 2.329-13.62 2.829-4.077 5.615-3.715 5.336-4.485-3.123 1.134-5.754 3.701-7.057 7.173 1.014-6.905 2.308-15.72 9.162-16.93-.127-.655-3.583.77-5.192 2.736 6.46-15.25 10.445-10.68 10.58-12.116-1.793-.17-3.794.962-5.142 2.195" mask="url(#prefix__g)"/>
        </g>
        <g transform="translate(35.052 80.316)">
            <mask id="prefix__j" fill="#fff">
                <use xlink:href="#prefix__h"/>
            </mask>
            <path fill="url(#prefix__i)" d="M7.072 37.384C6.064 37.294 9.992 21.125.076.2.658-.076 8.9 16.75 7.072 37.384" mask="url(#prefix__j)"/>
        </g>
        <g transform="translate(32.568 80.868)">
            <mask id="prefix__m" fill="#fff">
                <use xlink:href="#prefix__k"/>
            </mask>
            <path fill="url(#prefix__l)" d="M4.942 10.565c-.209-.23-.754-.71-1.26-1.02-3.93-2.46-4.14.686-2.818-4.748.29-1.193.603-3.311.568-4.615 2.105 4.731 6.964 10.34 7.887 22.594C8.297 14.8.162 14.073.033 9.24c1.645-.067 3.82.325 4.909 1.326" mask="url(#prefix__m)"/>
        </g>
        <g transform="translate(31.464 68.172)">
            <mask id="prefix__p" fill="#fff">
                <use xlink:href="#prefix__n"/>
            </mask>
            <path fill="url(#prefix__o)" d="M4.045 7.54C3.07 6.726 1.708 6.48.46 6.286.165 4.577.023 1.735.54.151c1.534 3.388 3.43 5.09 5.7 7.892 6.386 8.15 3.972 18.436 4.3 28.725C9.033 18.411 3.325 18.89.595 6.992c1.201-.179 2.63.097 3.45.547" mask="url(#prefix__p)"/>
        </g>
        <g transform="translate(73.968 52.716)">
            <mask id="prefix__s" fill="#fff">
                <use xlink:href="#prefix__q"/>
            </mask>
            <path fill="url(#prefix__r)" d="M14.278 25.46c-1.34-2.017-3.652-3.437-5.792-3.811-.541-8.888-3.697-10.272-5.49-12.677C.12 4.988 1.87 2.535.089.196c4.218 4 6.796.19 12.274 7.015 2.22 2.751.533 1.146.85 5.488.19-.954.581-1.883 1.063-2.751 1.138 1.93 3.257 6.094 4.042 7.61 6.773 13.425 7.113 7.661 3.724 12.243-.598.817-1.09 1.683-1.375 2.574.992-1.978 2.449-3.343 3.934-4.265 2.455 4.493 1.558 6.239-3.023 12.455-4.986 6.938-1.646 8.974-3.445 2.349-2.97-10.936-8.774-6.334-9.589-20.264 2.288.076 4.488 1.35 5.734 2.81" mask="url(#prefix__s)"/>
        </g>
        <g transform="translate(76.452 55.2)">
            <mask id="prefix__v" fill="#fff">
                <use xlink:href="#prefix__t"/>
            </mask>
            <path fill="url(#prefix__u)" d="M6.135 7.552C.705-.318-.335.789.35.115 2.753 2.553 4.91 5.22 6.817 8.072c-.346-1.387-.117-2.777.474-3.86.692.376-.474.31-.359 2.792.11 2.726 2.28 3.417 5.657 12.249-.135-1.826.374-3.588 1.627-4.877.577.56-.872.377-1.318 3.388-.26 2.088.39 3.21.325 3.234 4.33 12.52-.67 4.547 4.26-.392l.195.195c-5.878 5.89 2.723 15.45-3.736 37.135-.831-.248 1.823-4.091 2.209-15.337.2-5.97.102-10.12-2.329-13.62-2.829-4.077-5.615-3.715-5.336-4.485 3.123 1.134 5.754 3.701 7.057 7.173-1.014-6.905-2.308-15.72-9.162-16.93.127-.655 3.583.77 5.192 2.736C5.113 2.223 1.128 6.793.993 5.357c1.793-.17 3.794.962 5.142 2.195" mask="url(#prefix__v)"/>
        </g>
        <g transform="translate(95.496 80.316)">
            <mask id="prefix__y" fill="#fff">
                <use xlink:href="#prefix__w"/>
            </mask>
            <path fill="url(#prefix__x)" d="M.38 37.384C1.388 37.294-2.54 21.125 7.376.2 6.794-.076-1.448 16.75.38 37.384" mask="url(#prefix__y)"/>
        </g>
        <g transform="translate(96.048 80.868)">
            <mask id="prefix__B" fill="#fff">
                <use xlink:href="#prefix__z"/>
            </mask>
            <path fill="url(#prefix__A)" d="M4.442 10.565c.209-.23.754-.71 1.26-1.02 3.93-2.46 4.14.686 2.818-4.748-.29-1.193-.603-3.311-.568-4.615C5.847 4.913.988 10.522.065 22.776 1.087 14.8 9.222 14.073 9.35 9.24c-1.645-.067-3.82.325-4.909 1.326" mask="url(#prefix__B)"/>
        </g>
        <g transform="translate(95.772 68.172)">
            <mask id="prefix__E" fill="#fff">
                <use xlink:href="#prefix__C"/>
            </mask>
            <path fill="url(#prefix__D)" d="M6.719 7.54c.975-.813 2.337-1.06 3.587-1.253.293-1.71.435-4.552-.082-6.136-1.534 3.388-3.43 5.09-5.7 7.892-6.386 8.15-3.972 18.436-4.3 28.725C1.731 18.411 7.44 18.89 10.17 6.992c-1.201-.179-2.63.097-3.45.547" mask="url(#prefix__E)"/>
        </g>
        <path fill="#121B30" d="M50.112 99.624c-1.63 5.148-1.602 12.393-1.602 12.393h34.116l-.461-10.802-32.053-1.59"/>
        <path fill="#FFFFFE" d="M53.852 50.45s-2.657 7.459.782 18.919c3.658 12.185-2.559 16.505-3.395 32.18h29.105c.99-8.883-4.444-18.183 1.617-26.753 6.697-9.47 7.42-15.256 7.42-15.256s1.254-4.075-10.032-7.21-22.78-4.284-25.497-1.88"/>
        <path fill="#E36861" d="M71.366 59.978L70.716 66.657 69.388 65.03 67.806 65.962 69.388 59.978 71.366 59.978"/>
        <path fill="#8B0000" d="M71.366 59.978h-1.978l-.731 2.767c.166.025.324.058.433.137.285.208.366.838.708.949.039.012.078.017.119.016.286-.007.539.188.612.465l.303 1.151.534-5.485"/>
        <path fill="#E36861" d="M70.492 59.978L71.142 66.657 72.47 65.03 74.052 65.962 72.47 59.978 70.492 59.978"/>
        <path fill="#8B0000" d="M72.47 59.978h-1.978l.342 3.515c.032-.006.064-.013.095-.013.03 0 .063.007.095.013.344.064.733.436 1.035.338.343-.111.424-.741.708-.949.11-.08.268-.112.434-.137l-.731-2.767"/>
        <path fill="#FFEDD4" d="M73.46 59.822c0 1.398-1.133 2.531-2.531 2.531-1.398 0-2.531-1.133-2.531-2.53 0-1.399 1.133-2.532 2.531-2.532 1.398 0 2.53 1.133 2.53 2.531"/>
        <path fill="#E98C86" d="M67.271 44.978c.395 2.59-.363 6.34-.363 6.34s.898 1.936 3.6 3.078c0 0 3.466-.12 5.305-2.853 0 0-.204-2.811-.352-3.651-.118-.667 1.583-3.043 1.583-3.043s-4.516-3.549-4.66-3.511c-.145.037-5.113 3.64-5.113 3.64"/>
        <path fill="#E36861" d="M72.383 41.338c-.144.037-5.112 3.64-5.112 3.64.283 1.61-.109 4.763-.109 4.763.237 1.726 1.542 1.836 2.44 1.457 2.428-1.027 4.733-2.385 6.21.345 0 0-.234-3.312-.351-3.651-.221-.64 1.583-3.043 1.583-3.043s-4.516-3.549-4.66-3.511"/>
        <path fill="#121B30" d="M70.98 36.276c-2.82.017-7.216-3.405-2.597-4.414 1.429-.313 1.526-1.833 2.465-2.798 1.22-1.253 3.272-1.47 4.292.72.39.837.679 1.764 1.33 2.405 1.183 1.162 2.735 1.408 3.658 2.801 1.184 1.787-.374 3.993.194 5.958.424 1.468.86 1.627-1.169 3.128-4.313 3.19-3.246 4.082-3.692 3.816-.74-.444-.114-1.798-.062-1.99.335-1.263.226-2.247-.819-2.839-.506-.287-1.095-.346-1.638-.54-2.545-.91-.237-4.565-.567-5.275-.206-.44-.93-.974-1.395-.972"/>
        <path fill="#E98C86" d="M70.177 33.482c-2.717 1.142-6.483 9.313-3.914 12.32 2.487 2.91 7.338-.33 8.774-1.867.062-.066.168-.055.215.023.204.34.836.965 2.438-.134 1.954-1.342.592-3.495-1.02-1.885-.382.381-.691 1.076-1.09.762-.4-.313-.762-.064-.945-.338-.183-.273.486-.382.94-1.142.454-.76 1.207-1.175.582-2.118-.625-.944-.932-2.047-.105-2.856.828-.81-.457-2.35-2.509-2.844-2.052-.493-3.366.08-3.366.08"/>
        <path fill="#E60000" d="M79.95 87.71c-.612-2.76-.444-8.69 4.108-16.057 4.552-7.366 5.843-10.364 5.364-13.472-.48-3.108-7.473-5.662-11.803-6.439 0 0-4.107 4.108-2.553 11.879 1.554 7.77 4.44 27.198 4.44 27.198l.443-3.108"/>
        <path fill="#BD0000" d="M79.506 90.82l.443-3.11c-.611-2.76-.443-8.69 4.109-16.057 1.407-2.277 2.502-4.136 3.33-5.71-.124-.851-.194-1.345-.194-1.369 0-.214-3.54-2.348-3.54-2.348-1.543 3.279-3.117 7.646-2.975 11.44.127 3.366-1.225 4.69-2.175 10.549.593 3.85 1.002 6.604 1.002 6.604M67.152 49.818c-.84-.116-1.133.367-1.418 1.165-1.395 3.916-5.13 15.893-4.866 31.297 0 0-2.845-10.938-.244-21.195 1.235-4.873 2.179-6.503 1.898-7.853-.35-1.678-2.093-1.568-1.656-2.13 2.786-3.573 6.45-3.026 6.45-3.026s-.032.585-.075 1.012c-.034.346-.09.73-.09.73"/>
        <path fill="#E60000" d="M55.411 49.387c-3.426 1.16-19.61 9.668-20.882 17.868-.173 1.115-.88 1.845-.444 3.287.04.129.097.25.164.366l.203.354c.328.57.915.94 1.57.987 2.12.15 6.98.116 10.737-2.791 4.95-3.829 8.201-5.101 8.201-5.101l.451-14.97"/>
        <path fill="#BD0000" d="M55.307 52.859l-1.883-.954c-.796 3.967-9.122 9.583-14.994 8.63-2.052 2.156-3.549 4.45-3.901 6.72-.173 1.115-.88 1.845-.444 3.287.04.129.097.25.164.366l.203.354c.328.57.915.94 1.57.987 2.12.15 6.98.116 10.737-2.791 4.95-3.829 8.201-5.101 8.201-5.101l.347-11.498"/>
        <path fill="#E60000" d="M60.624 61.085c1.235-4.873 2.179-6.503 1.898-7.853-.35-1.678-2.095-1.57-1.656-2.13.777-.99 1.692-1.722 2.506-2.167-9.279-.623-9.52 1.514-9.52 1.514-3.502 10.419.011 26.208-1.598 34.799-1.404 7.49-3.744 14.554-3.744 14.554-1.106 4.734 13.202 3.34 13.202 3.34.378-3.398-.249-10.639-.844-20.862 0 0-2.845-10.938-.244-21.195"/>
        <path fill="#BD0000" d="M75.654 49.53c1.262.626 4.292 2.868 4.295 4.021.003.845-1.157.735-2.359 1.665s-2.058 3.006-.986 8.825c1.332 7.24 2.19 12.682 1.858 17.384 0 0-5.609-17.598-4.756-23.069.853-5.47 2.033-7.795 2.033-7.795l-.085-1.03"/>
        <path fill="#E60000" d="M78.462 81.425c1.266 5.842 5.401 13.097 5.375 22.31 0 0-5.198 2.776-5.375.334-.177-2.442.433-1.5 0-12.362-.374-9.406-1.678-15.955-1.678-15.955l1.678 5.673"/>
        <path fill="#BD0000" d="M78.462 104.07c.108 1.49 2.087 1.036 3.612.456.179-10.009-3.328-19.62-5.29-28.774 0 0 1.304 6.55 1.678 15.955.433 10.863-.177 9.92 0 12.362"/>
        <path fill="#E98C86" d="M78.993 91.341c-.3-.181-.643-.277-.994-.277h-2.182c-.237 0-.472.044-.693.13-.867.334-3.233 1.213-3.233 1.7 0 .4.14.496.68.496.853 0 2.27-.585 2.27-.585l1.384.312-2.277 1.027s-2.678 1.874-2.856 2.365c-.178.49.178 1.205 1.071.803 0 0-.179 1.205.58.982.759-.223 2.723-1.472 2.723-1.472s-1.205 1.037-1.16 1.5c.044.463 1.606-.161 2.008-.474.402-.312 1.785-.759 1.785-.759s.905.302 2.206.302c1.013 0 3.241-1.182 4.18-1.706-.996-1.42-2.137-3.058-2.872-4.144-.394.074-2.057.14-2.62-.2"/>
        <path fill="#FFFFFE" d="M81.613 91.541c.735 1.086 1.876 2.724 2.871 4.144.268-.15.431-.246.431-.246.481-.366.99-.732 1.514-1.099l-2.811-4.23c-.528.51-1.708 1.376-2.005 1.431"/>
        <path fill="#E60000" d="M88.458 56.43s-2.48.907-4.245 4.446c-1.15 2.303-3.023 9.563-1.663 10.729 3.396 4.111 9.231 6.052 9.102 7.61-.054.64-1.592 1.646-2.885 3.398-1.444 1.956-2.768 4.768-5.15 7.497l2.812 4.23c5.678-3.966 13.439-7.977 13.795-13.566.39-6.104-7.014-19.873-11.766-24.345"/>
        <path fill="#BD0000" d="M82.081 69.458c-.036 1.028.091 1.823.469 2.147 3.396 4.111 9.231 6.052 9.102 7.61-.03.362-.534.84-1.2 1.504 2.397-2.399 3.35-2.581 3.124-3.35-.225-.767-11.812-4.015-11.495-7.911"/>
        <path fill="#E60000" d="M48.144 59.914c-1.593.672-3.562 1.429-5.897 1.807-4.475.726-6.41 1.27-7.438 4.415-1.028 3.144-1.611 3.81-1.47 4.717.078.51.515.944.882 1.226.29.224.655.323 1.02.295 1.765-.137 4.726 1.035 8.196-1.004 1.913-1.123 3.877-3.14 5.542-4.87-1.234-2.215-1.525-5.106-.835-6.586"/>
        <path fill="#FFFFFE" d="M51.56 58.637c-.81.116-1.955.661-3.416 1.277-.69 1.48-.399 4.371.835 6.587.614-.638 1.188-1.237 1.703-1.738-.977-2.757-.704-5.852.878-6.126"/>
        <path fill="#E98C86" d="M65.03 58.82c-1.083-.41-4.523-1.078-4.523-1.078l-3.081-.617s-4.173 1.27-5.866 1.512c-1.582.274-1.855 3.369-.878 6.126.87-.844 1.573-1.409 2.027-1.409 1.451 0 3.792 1.628 5.641.55 0 0 .924.565 1.387.565.462 0 1.13-.616 1.13-.925 0 0 .77.36.872-1.335 0 0 .875 0 .669-1.386l-.566-.925h3.749s.523-.667-.56-1.078"/>
        <path fill="#E60000" d="M21.626 108.07c8.624 4.702 22.552-1.61 22.71 2.564V98.68c-.21-5.57-11.772.61-23.265-2.564 0 0 1.483 3.535 6.735 7.385-.232 2.038-6.18 4.57-6.18 4.57"/>
        <path fill="#8B0000" d="M44.336 110.634c-2.199 2.636-13.1-3.553-12.888 2.072V100.75c0-4.635 10.69.565 12.888-2.071v11.955"/>
        <path fill="#E60000" d="M116.374 108.07c-8.624 4.702-22.552-1.61-22.71 2.564V98.68c.21-5.57 11.772.61 23.265-2.564 0 0-1.483 3.535-6.735 7.385.233 2.038 6.18 4.57 6.18 4.57"/>
        <path fill="#8B0000" d="M93.664 110.634c2.199 2.636 12.888-3.55 12.888 2.072V100.75c0-4.635-10.69.565-12.888-2.071v11.955"/>
        <path fill="#E60000" d="M106.552 100.75v11.956c-.1 2.644-13.95 9.27-37.552 9.27s-37.452-6.626-37.552-9.27V100.75c.1 2.644 15.869 9.27 37.552 9.27s37.452-6.626 37.552-9.27z"/>
        <path stroke="#E60000" stroke-width=".5" d="M61.212 19.655l-1.443.282c-.24.049-.481.09-.72.145l-.714.175c-.475.12-.955.224-1.427.357l-1.41.414c-1.868.591-3.716 1.26-5.493 2.091l-.67.302c-.222.104-.439.218-.658.327l-1.312.665c-.851.486-1.72.94-2.543 1.475-.413.264-.84.505-1.241.788l-1.214.83c-.405.276-.788.583-1.183.873-.393.292-.786.586-1.16.903l-1.136.933-1.096.98c-.37.321-.719.666-1.07 1.01-.346.346-.71.675-1.043 1.035-1.367 1.406-2.632 2.907-3.833 4.456-2.353 3.135-4.37 6.53-5.919 10.133-.412.89-.738 1.815-1.1 2.726l-.477 1.391-.236.696-.207.706-.411 1.412-.35 1.427c-.058.239-.12.476-.173.715l-.144.721c-.094.48-.196.96-.284 1.442l-.225 1.454c-.036.242-.08.483-.109.727l-.08.73c-.052.488-.111.975-.158 1.462l-.096 1.468-.047.733-.048 2.205.025 1.47c.007.49.044.98.065 1.47.432 7.83 2.747 15.549 6.704 22.322M76.788 19.655l1.443.282c.24.049.481.09.72.145l.714.175c.475.12.955.224 1.427.357l1.41.414c1.868.591 3.716 1.26 5.493 2.091l.67.302c.222.104.439.218.658.327l1.312.665c.851.486 1.72.94 2.543 1.475.413.264.84.505 1.241.789l1.214.83c.405.275.788.582 1.183.872.393.292.786.586 1.16.903l1.136.933 1.096.98c.37.321.719.666 1.07 1.01.346.346.71.675 1.043 1.035 1.367 1.406 2.632 2.907 3.833 4.456 2.353 3.135 4.37 6.53 5.919 10.133.412.89.738 1.815 1.1 2.726l.477 1.391.236.696.207.706.411 1.412.35 1.427c.058.239.12.476.173.715l.144.721c.095.48.196.96.284 1.442l.225 1.454c.036.242.08.483.109.727l.08.73c.052.488.111.975.158 1.462l.096 1.468.047.733.048 2.205-.025 1.47c-.007.49-.044.98-.065 1.47-.432 7.83-2.747 15.549-6.704 22.322"/>
    </g>
</svg>
