<svg xmlns="http://www.w3.org/2000/svg" xmlns:xlink="http://www.w3.org/1999/xlink" width="234" height="171" viewBox="0 0 234 171">
    <defs>
        <linearGradient id="prefix__b" x1="49.938%" x2="52.365%" y1="19.575%" y2="95.16%">
            <stop offset="0%" stop-color="#E60000"/>
            <stop offset="100%" stop-color="#900"/>
        </linearGradient>
        <linearGradient id="prefix__d" x1="50%" x2="50%" y1="0%" y2="100%">
            <stop offset="0%"/>
            <stop offset="100%" stop-color="#333"/>
        </linearGradient>
        <linearGradient id="prefix__e" x1="50%" x2="50%" y1="0%" y2="100%">
            <stop offset="0%"/>
            <stop offset="100%" stop-color="#333"/>
        </linearGradient>
        <linearGradient id="prefix__f" x1="49.938%" x2="52.365%" y1="27.916%" y2="82.779%">
            <stop offset="0%" stop-color="#E60000"/>
            <stop offset="100%" stop-color="#900"/>
        </linearGradient>
        <path id="prefix__a" d="M92.608 48.798l125.007 48.253c9.34 3.606 14.837 13.305 13.13 23.17-11.56 66.834-27.883 101.337-48.967 103.51-34.213 3.526-114.895-26.836-139.759-57.359-15.187-18.644-6.87-54.868 24.95-108.673 5.224-8.832 16.066-12.596 25.639-8.9z"/>
    </defs>
    <g fill="none" fill-rule="evenodd" transform="translate(-15 -51)">
        <mask id="prefix__c" fill="#fff">
            <use xlink:href="#prefix__a"/>
        </mask>
        <use fill="url(#prefix__b)" opacity=".9" transform="rotate(-37 134.073 133.255)" xlink:href="#prefix__a"/>
        <g mask="url(#prefix__c)">
            <g>
                <path fill="#626162" d="M93.377 43.417l6.346 77.943s.664 4.724-2.738 4.732c-5.593.014-27.839 0-27.839 0s4.21-.983 4.16-3.196c-.06-2.608-7.417-80.216-7.417-80.216l27.488.737" transform="translate(50.388 92.086)"/>
                <path fill="#999" d="M95.006 125.096c-5.595.072-27.42.003-28.55 0 .425 0 3.708-.081 4.171-2.566.037-.194.057-.404.056-.63-.002-.486-.268-3.569-.699-8.266-.386-4.213-.904-9.724-1.485-15.822-2.251-23.636-5.434-56.102-5.434-56.102l28.236.736 6.517 77.919s.797 4.684-2.812 4.73" transform="translate(50.388 92.086)"/>
                <path fill="#9B9B9B" d="M160.017 1.94L135.011 104.759 0 104.759 26.785 1.94 160.017 1.94" transform="translate(50.388 92.086)"/>
                <path fill="#999" d="M160.667 0L162.841 0.743 138.432 105.729 135.544 103.482 160.667 0" transform="translate(50.388 92.086)"/>
                <path fill="#626162" d="M138.367 105.729L4.634 105.729 0.941 103.789 135.502 103.789 138.367 105.729" transform="translate(50.388 92.086)"/>
                <path fill="#999" d="M62.124 126.099L91.304 126.099 91.304 124.159 62.124 124.159z" transform="translate(50.388 92.086)"/>
                <path fill="#626162" d="M96.01 105.729l-.181 2.077-.008.076s-18.916 1.74-26.446 4.637c-.19-1.985-.414-4.276-.662-6.79H96.01M88.203 124.159h-6.39c-7.135-.007-14.348-.03-14.982-.032.42 0 3.664-.081 4.121-2.566.465.025 1.372.062 2.627.062 4.747 0 14.478-.528 24.072-4.254l.167 2.025s.075.441.075 1.053c-.001 1.385-.38 3.648-2.853 3.68-1.423.019-3.911.027-6.837.032" transform="translate(50.388 92.086)"/>
                <path fill="#E78B37" d="M84.907 125.134c-.987 0-2 0-3.016-.002h5.648c-.843.002-1.726.002-2.632.002" transform="translate(50.388 92.086)"/>
                <path fill="#E3BB9E" d="M97.893 103.793L135.544 103.793" transform="translate(50.388 92.086)"/>
                <path fill="#626162" d="M96.01 103.793L97.893 103.793" transform="translate(50.388 92.086)"/>
                <path fill="#E58433" d="M90.362 103.793L96.01 103.793" transform="translate(50.388 92.086)"/>
                <path fill="#626162" d="M135.387 103.789H90.362c19.037-6.308 28.05-15.535 31.681-20.37h18.207l-4.863 20.37" transform="translate(50.388 92.086)"/>
                <path fill="#9ED9F0" d="M27.297 0.97L5.706 83.419 5.648 83.419 27.108 0.97 27.297 0.97" transform="translate(50.388 92.086)"/>
                <path fill="#FFF" d="M160.017 1.94L140.836 83.419 8.471 83.419 29.966 1.94 160.017 1.94" transform="translate(50.388 92.086)"/>
                <path fill="#F1A34F" d="M160.958 0.97L160.958 2.91 159.075 2.91 159.567 0.97 160.958 0.97" transform="translate(50.388 92.086)"/>
                <path fill="#FFF" d="M65.009 93.604c.348-1.875 2.076-3.395 3.862-3.395s2.952 1.52 2.605 3.395S69.4 97 67.614 97c-1.785 0-2.952-1.52-2.605-3.395" transform="translate(50.388 92.086)"/>
            </g>
        </g>
        <g>
            <path fill="#000" d="M19.84 82.056s.272 4.629-.55 4.696c-.109.008-4.168.008-4.168.008l-5.18-.033s.033-1.375 1.547-1.666c1.515-.29 4.175-1.357 4.625-3.732.45-2.374 3.725.727 3.725.727M9.898 82.056s.273 4.629-.55 4.696c-.108.008-4.167.008-4.167.008L0 86.727s.034-1.375 1.548-1.666c1.515-.29 4.175-1.357 4.625-3.732.45-2.374 3.725.727 3.725.727" transform="matrix(-1 0 0 1 88.249 134.729)"/>
            <path fill="#CCC" d="M32.535 48.995l4.758 1.615s3.028-6.069 3.766-6.893c.841-.94 1.446-8.177 1.826-14.722.333-5.724.495-10.92.495-10.92s-1.62.363-2.677 3.056c-1.813 4.616-1.8 13.629-2.808 18.276-.58 2.677-4.38 9.207-5.36 9.588" transform="matrix(-1 0 0 1 88.249 134.729)"/>
            <path fill="#CCC" d="M37.054 50.61c1.785-2.001 2.979-5.846 3.705-6.64.828-.906 4.744-6.053 1.084-14.146-1.793 5.118-.297 7.908-.86 10.93-.56 2.996-3.766 7.855-3.929 9.856" transform="matrix(-1 0 0 1 88.249 134.729)"/>
            <path fill="#626162" d="M50.61 85.461s.403.396 1.356.396c1.08 0 1.356-.396 1.356-.396V68.685H50.61v16.776" transform="matrix(-1 0 0 1 88.249 134.729)"/>
            <path fill="#333" d="M33.582 61.408l.005.037c.102.725.248 1.401.423 2.019.337 1.2.778 2.176 1.19 2.862 1.596 2.66 4.622 5.622 11.877 6.588.351.046.714.09 1.086.127.677.069 1.39.12 2.136.153l.143.005c.047.003.095.004.143.005 2.11-.052 4.472-.434 7.106-1.052 5.406-1.268 8.927-3.878 11.155-7.054.19-.271.37-.544.541-.821.444-.722.829-1.468 1.158-2.23 1.237-2.856 1.711-5.936 1.755-8.791-.041-2.71-.466-5.157-.94-6.897-.368-1.357-.94-2.647-1.718-3.782-.203-.299-.422-.588-.657-.864-.741-.881-1.629-1.636-2.667-2.22-2.582-1.455-11.075-2.905-18.27.85-13.243 6.907-15.236 15.44-14.466 21.065" transform="matrix(-1 0 0 1 88.249 134.729)"/>
            <path fill="#666" d="M36.144 67.363c2.104 2.383 3.998 4.825 11.224 5.607.35.037.712.073 1.082.101.674.057 1.384.097 2.127.125.047.001.095.003.143.003.047.003.094.004.142.005 2.102-.05 4.454-.425 7.077-1.032 5.385-1.243 8.892-3.802 11.11-6.916l.002-.001c.187-.265.367-.533.538-.804-4.085-.95-12.81-2.612-21.479-1.933-4.702.369-9.58.776-13.756 1.135-.142.011 1.096 2.924 1.79 3.71" transform="matrix(-1 0 0 1 88.249 134.729)"/>
            <path fill="#F4F4F4" d="M61.131 24.69c-.067-.276-.137-.548-.212-.815-1.018-3.636-2.677-6.271-5.285-6.704-.327.9-3.519 2.394-6.312 2.248-.308-.016-.763-.439-.768-.44-2.206-.314-3.255-1.507-3.152-1.669-.093.008-2.316.637-2.316.637-1.93 8.517-2.16 13.25.162 25.398.848 4.436-.448 6.847-.162 7.137.503.509 6.061.655 10.53.83.537.02 1.066.039 1.58.055 3.268.109 5.958.147 5.958.147.222-.28.631-2.853.909-6.479.447-5.788.564-14.254-.932-20.346" transform="matrix(-1 0 0 1 88.249 134.729)"/>
            <path fill="#E49963" d="M54.225 17.493l-2.507 2.39-3.819-.679c.036-.423.226-2.257.39-3.821.134-1.278.251-2.375.251-2.375l4.562-2.1.137-.063-.004.079c-.013.21-.021.415-.025.617-.077 3.586 1.015 5.952 1.015 5.952" transform="matrix(-1 0 0 1 88.249 134.729)"/>
            <path fill="#4A4A4A" d="M43.032 63.783c-13.697.982-17.96.804-18.44 1.462-3.025 4.141-3.33 4.856-9.463 13.152-1.17 1.583-2.552 3.44-4.206 5.652H4.519s6.909-13.173 12.433-22.098c2.18-3.523 4.144-6.383 5.383-7.51 4.28-3.9 21.334-3.81 21.334-3.81s14.806-.357 15.972 1.835c.253.477-6.297 10.575-16.61 11.317" transform="matrix(-1 0 0 1 88.249 134.729)"/>
            <path fill="#3D3C3D" d="M43.12 63.892c-13.625.99-17.865.811-18.344 1.474-3.008 4.175-3.311 4.896-9.412 13.26l1.813-16.58c2.168-3.553 4.123-6.437 5.355-7.574 4.257-3.93 21.22-3.84 21.22-3.84s14.73-.36 15.889 1.85c.252.48-6.264 10.661-16.521 11.41" transform="matrix(-1 0 0 1 88.249 134.729)"/>
            <path fill="#333" d="M50.432 20.125l-3.112-.242s-.39.062-.315.422c.075.36 1.1 1.334 1.488 1.383.386.049 2.782-.901 1.939-1.563" transform="matrix(-1 0 0 1 88.249 134.729)"/>
            <path fill="#4A4A4A" d="M61.214 54.884s-.458 8.248-10.831 8.984c-13.777.98-16.618.656-17.52 1.489-4.428 4.092-1.5 4.96-11.883 18.692h-6.52s7.959-26.062 11.563-29.18c4.377-3.786 22.259-4.072 22.259-4.072s11.918-.907 13.09 1.274c.255.474-.158 2.813-.158 2.813" transform="matrix(-1 0 0 1 88.249 134.729)"/>
            <path fill="#333" d="M46.995 73.811c0 .041 1.433.245 2.216.28.317.014.638.019.966.016h.084l.255-.005c2.116-.053 4.486-.437 7.128-1.057 7.084-1.663 10.943-5.628 12.896-10.148 1.24-2.87 1.716-5.961 1.76-8.83-.041-2.721-.467-5.178-.942-6.925-.369-1.363-.943-2.658-1.724-3.799-.153-.225-.317-.446-.49-.659-.054-.07-.112-.139-.169-.208-4.881 5.053-19.631 21.115-21.98 31.335" transform="matrix(-1 0 0 1 88.249 134.729)"/>
            <path fill="#999" d="M47.899 73.81c0 .04 1.454.246 2.249.28.2.01.4.015.604.017h.086l.258-.005c2.148-.053 4.553-.44 7.234-1.064 7.19-1.674 11.106-5.665 13.087-10.215 1.26-2.888 1.742-6 1.787-8.888-.042-2.74-.474-5.212-.956-6.971-.375-1.372-.957-2.675-1.75-3.824-.155-.227-.321-.45-.497-.664-5.145 5.306-19.75 21.182-22.102 31.333" transform="matrix(-1 0 0 1 88.249 134.729)"/>
            <path fill="#CCC" d="M47.318 16.268s.408 2.032 1.485 3.014l-1.661 2.408s-2.012-2.653-1.953-4.553c0 0 1.596-.799 2.129-.87" transform="matrix(-1 0 0 1 88.249 134.729)"/>
            <path fill="#CCC" d="M47.376 16.268s.32 2.04 1.427 3.088l-1.64 2.334s-1.8-2.419-1.975-4.496c0 0 1.64-.851 2.188-.926M53.16 16.268s-2.634 2.4-4.357 2.592l1.18 2.83s5.131-2.924 5.146-4.675c0 0-1.413-.731-1.969-.747" transform="matrix(-1 0 0 1 88.249 134.729)"/>
            <path fill="#CCC" d="M54.004 16.268s-2.522 2.556-4.297 2.752l.983 2.67s5.328-2.864 5.343-4.657c0 0-1.456-.749-2.03-.765M62.325 45.357c-.277 3.71-.203 5.649-1.306 6.74 0 0-2.235.872-5.532-.26-1.126-.596-2.005-1.417-2.44-2.54-2.173-5.598 1.962-10.251 2.173-13.96.21-3.708 3.486-6.417 3.486-6.417s4.064 10.512 3.62 16.437" transform="matrix(-1 0 0 1 88.249 134.729)"/>
            <path fill="#333" d="M48.838 20.91s.463 4.743.545 6.33c.231 4.465.316 17.883.316 17.883s.121 1.171-.598 2.106c-.719.934-1.47 1.574-1.47 1.574s-1.056-1.004-1.475-2.89c-.278-1.255.39-11.792 1.065-18.81.339-3.527.9-6.29.9-6.29s.55-.104.717.097" transform="matrix(-1 0 0 1 88.249 134.729)"/>
            <path fill="#999" d="M69.59 86.76H37.053c1.549-3.094 8.243-5.422 16.267-5.422 8.025 0 14.72 2.328 16.268 5.422" transform="matrix(-1 0 0 1 88.249 134.729)"/>
            <path fill="#E49963" d="M51.369 46.092s-2 .499-2.655.841c-.655.344-1.971 1.99-1.676 2.247 1.48 1.291 1.71-.14 3.528-.609.33-.085 1.852-1.7 1.852-1.7l-1.049-.78" transform="matrix(-1 0 0 1 88.249 134.729)"/>
            <path fill="#EBEBEB" d="M50.06 50.153L46.778 38.861 28.016 38.861 31.404 50.61 56.033 50.61 56.033 50.153 50.06 50.153" transform="matrix(-1 0 0 1 88.249 134.729)"/>
            <path fill="#4A4A4A" d="M37.089 44.285c-.137-.5.14-.905.619-.905.48 0 .98.405 1.119.905.136.498-.14.903-.62.903s-.98-.405-1.118-.903" transform="matrix(-1 0 0 1 88.249 134.729)"/>
            <path fill="#F4F4F4" d="M55.513 17.171s3.58.616 5.372 2.582c1.792 1.966 4.824 18.057 4.066 20.313-.758 2.257-6.821 6.844-11.163 8.737 0 0-2.136-1.02-2.274-2.767 0 0 7.374-6.553 7.718-8.3.344-1.747-3.719-20.565-3.719-20.565" transform="matrix(-1 0 0 1 88.249 134.729)"/>
            <path fill="#D68D5D" d="M53.322 10.858c-.014.17-.024.335-.028.499-.968.883-3.242 2.77-5.395 3.103.147-1.032.276-1.919.276-1.919l5-1.696.147.013" transform="matrix(-1 0 0 1 88.249 134.729)"/>
            <path fill="#E49963" d="M47.007 14.456s6.042.27 6.155-3.42c.114-3.69.97-6.14-2.882-6.468-3.851-.329-4.645 1.057-4.988 2.28-.344 1.222.147 7.442 1.715 7.608" transform="matrix(-1 0 0 1 88.249 134.729)"/>
            <path fill="#333" d="M53.602 9.941s-.425-4.755-5.491-4.584C43.044 5.527 45.236.71 49.59 0c0 0-.455 1.697 2.284 1.966 5.748.563 2.24 7.22 1.728 7.975" transform="matrix(-1 0 0 1 88.249 134.729)"/>
        </g>
        <path fill="url(#prefix__d)" d="M27.524 91.89l5.332 8.68c.417.677.205 1.564-.473 1.98-.227.14-.487.213-.754.213H21.022c-.795 0-1.44-.644-1.44-1.44 0-.263.072-.522.21-.747l5.275-8.68c.413-.679 1.299-.895 1.979-.482.195.119.359.282.478.477z" opacity=".9" transform="rotate(54 26.333 96.323)"/>
        <path fill="url(#prefix__e)" d="M236.937 186.234l8.53 13.198c.719 1.113.4 2.599-.714 3.318-.388.251-.84.385-1.302.385h-16.97c-1.325 0-2.4-1.075-2.4-2.4 0-.459.132-.907.379-1.293l8.44-13.198c.713-1.117 2.197-1.443 3.314-.73.29.186.536.431.723.72z" opacity=".9" transform="rotate(-56 234.979 193.116)"/>
        <path fill="url(#prefix__f)" d="M219.925 50.139l8.53 13.198c.719 1.113.4 2.599-.714 3.318-.388.251-.84.385-1.302.385H209.47c-1.326 0-2.4-1.075-2.4-2.4 0-.459.131-.907.378-1.293l8.44-13.198c.713-1.117 2.198-1.443 3.314-.73.29.186.536.431.723.72z" opacity=".9" transform="rotate(-56 217.967 57.022)"/>
    </g>
</svg>
