<svg xmlns="http://www.w3.org/2000/svg" xmlns:xlink="http://www.w3.org/1999/xlink" width="138" height="139" viewBox="0 0 138 139">
    <defs>
        <linearGradient id="prefix__a" x1="50%" x2="50%" y1="0%" y2="100%">
            <stop offset="0%" stop-color="#BF0000"/>
            <stop offset="100%" stop-color="#8B0000"/>
        </linearGradient>
        <linearGradient id="prefix__c" x1="43.608%" x2="43.185%" y1="130.811%" y2="14.429%">
            <stop offset="0%" stop-color="#6CC8E8"/>
            <stop offset="100%" stop-color="#86CFEB"/>
        </linearGradient>
        <linearGradient id="prefix__f" x1="50%" x2="50.831%" y1="0%" y2="94.157%">
            <stop offset="0%" stop-color="#EBEBEB"/>
            <stop offset="100%" stop-color="#FFF"/>
        </linearGradient>
        <linearGradient id="prefix__i" x1="-528.694%" x2="-806.627%" y1="9289.677%" y2="-623.345%">
            <stop offset="0%" stop-color="#00577F"/>
            <stop offset="100%" stop-color="#8C92A8"/>
        </linearGradient>
        <path id="prefix__b" d="M.035 28.235L1.153 4.182.035 28.235M1.199 3.192l.146-3.14-.146 3.14"/>
        <path id="prefix__e" d="M2.044 1.905S3.105 12.66 2.65 16.32L.027 44.11H22.66s-1.27-23.68-1.27-25.472c0-1.793-.373-16.732-.373-16.732L17.47.112 8.542 0 2.044 1.905"/>
        <path id="prefix__h" d="M.155.702C.117.506.082.296.05.075c.032.221.067.431.105.627"/>
    </defs>
    <g fill="none" fill-rule="evenodd">
        <path fill="#333" d="M100.87 85.976H1.028c-.552 0-1-.448-1-1v-.028c0-.553.448-1 1-1h99.844c.552 0 1 .447 1 1v.028c0 .552-.448 1-1 1" transform="translate(16.56 26.303)"/>
        <path fill="#EBEBEB" d="M80.845 71.314H12.632c-1.182 0-2.14-.894-2.14-1.996l-1.297-46.7c0-1.102.958-1.996 2.14-1.996h71.457c1.181 0 2.14.894 2.14 1.996l-1.947 46.7c0 1.102-.958 1.996-2.14 1.996" transform="translate(16.56 26.303)"/>
        <path fill="#B7B4B4" d="M84.1 21.039c.227.317.36.698.36 1.108l-1.947 46.7c0 1.102-.958 1.995-2.14 1.995H12.161c-.493 0-.947-.155-1.309-.417.384.536 1.038.889 1.78.889h68.213c1.182 0 2.14-.894 2.14-1.996l1.947-46.7c0-.642-.326-1.214-.832-1.579" transform="translate(16.56 26.303)"/>
        <path fill="url(#prefix__a)" d="M13.459 65.847l-1.298-41.86c0-1.102.958-1.996 2.14-1.996h66.27c1.181 0 2.14.894 2.14 1.996l-1.947 41.86c0 1.103-.958 1.996-2.14 1.996H15.6c-1.182 0-2.14-.893-2.14-1.996" transform="translate(16.56 26.303)"/>
        <g transform="translate(16.56 26.303) translate(80.656 38.134)">
            <mask id="prefix__d" fill="#fff">
                <use xlink:href="#prefix__b"/>
            </mask>
            <path fill="url(#prefix__c)" d="M.035 28.235L1.153 4.182.035 28.235M1.199 3.192l.146-3.14-.146 3.14" mask="url(#prefix__d)"/>
        </g>
        <path fill="#999" d="M41.616 72.87L56.4 72.87 56.4 71.314 41.616 71.314z" transform="translate(16.56 26.303)"/>
        <path fill="#9B9B9B" d="M55.135 80.057L42.881 80.057 42.492 72.87 55.525 72.87 55.135 80.057" transform="translate(16.56 26.303)"/>
        <path fill="#333" d="M42.492 72.87h13.033l-.069 1.255c-3.398.259-8.792.938-9.885 2.666-.604.956-.92 2.148-1.079 3.266h17.809c2.148 0 3.89 1.742 3.89 3.89H32.863c0-2.148 1.741-3.89 3.89-3.89h6.128l-.39-7.187z" transform="translate(16.56 26.303)"/>
        <g>
            <g transform="translate(16.56 26.303) translate(13.414) translate(23.04 24.756)">
                <mask id="prefix__g" fill="#fff">
                    <use xlink:href="#prefix__e"/>
                </mask>
                <path fill="url(#prefix__f)" d="M2.044 1.905S3.105 12.66 2.65 16.32L.027 44.11H22.66s-1.27-23.68-1.27-25.472c0-1.793-.373-16.732-.373-16.732L17.47.112 8.542 0 2.044 1.905" mask="url(#prefix__g)"/>
            </g>
            <path fill="#87A2C2" d="M31.208 24.924l-4.467 1.25s1.789 8.93 2.856 9.998c1.067 1.067-.182 1.867.715 2.764.896.896 5.863 7.631 5.863 7.631l-4.967-21.643" transform="translate(16.56 26.303) translate(13.414)"/>
            <path fill="#87A2C2" d="M40.732 25.216l-4.557 21.351s4.845-8.562 5.26-8.976c.414-.414 0-2.166 0-2.988 0-.822 2.576-7.965 2.576-7.965s-2.352-1.422-3.279-1.422" transform="translate(16.56 26.303) translate(13.414)"/>
            <path fill="#FFF" d="M31.581 24.756l-4.78.485s1.729 8.793 2.796 9.86c1.067 1.067-.182 1.868.715 2.764.896.896 5.863 8.702 5.863 8.702l-4.594-21.811M40.508 24.868l-4.333 21.7s4.845-9.633 5.26-10.048c.414-.414 0-2.166 0-2.987 0-.822 2.621-7.62 2.621-7.62s-2.621-1.045-3.548-1.045" transform="translate(16.56 26.303) translate(13.414)"/>
            <path fill="#7696B5" d="M35.541 68.864L36.175 46.567 36.045 68.864 35.541 68.864" transform="translate(16.56 26.303) translate(13.414)"/>
            <path fill="#FD5E5A" d="M7.803 27.778L6.5 23.108l-5.733 1.47s.818 2.544 1.388 2.893l2.325 1.422 5.125 10.166 3.687-4.555-5.488-6.726" transform="translate(16.56 26.303) translate(13.414)"/>
            <path fill="#333" d="M34.905 1.626s4.37-.535 6.237.356c1.867.89 5.527 4.49 4.556 11.473 0 0 .784.25 1.009 1.318.224 1.07.243 2.976-1.606 4.74-1.849 1.763-4.967 1.567-6.573 1.567-1.607 0-6.126-1.354-7.284-3.848-1.157-2.494 3.661-15.606 3.661-15.606" transform="translate(16.56 26.303) translate(13.414)"/>
            <path fill="#130025" d="M37.021 2.641c-1.171-.11-2.148.428-2.933 1.312-.991 2.918-2.578 7.91-2.946 10.991.163 1.24.572 2.469 1.162 3.442.102.17.21.33.322.485 1.55 1.218 3.828 1.954 5.228 2.154 4.356-.586 5.581-4.608 5.472-9.042-.029-1.195.826-4.915-1.024-7.318-1.242-1.615-3.382-2.21-5.28-2.024" transform="translate(16.56 26.303) translate(13.414)"/>
            <path fill="#FC7575" d="M32.665 17.92s.224 3.026 0 4.408c-.225 1.382-1.084 2.428-1.084 2.428l4.594 21.811 4.333-21.7s-1.076-.659-1.382-2.539c-.306-1.88-.299-6.723-.299-6.723l-6.162 2.316" transform="translate(16.56 26.303) translate(13.414)"/>
            <path fill="#EBEBEB" d="M36.175 46.567l3.373-16.891c-2.572.28-5.123-.044-7.022-.434l3.65 17.325" transform="translate(16.56 26.303) translate(13.414)"/>
            <path fill="#333" d="M39.548 29.676l-.072.007c-.844 3.451-2.774 11.102-3.431 11.76-.632.631-2.56-7.798-3.514-12.2l-.005-.001 3.65 17.325 3.372-16.891" transform="translate(16.56 26.303) translate(13.414)"/>
            <g transform="translate(16.56 26.303) translate(13.414) translate(38.949 21.008)">
                <mask id="prefix__j" fill="#fff">
                    <use xlink:href="#prefix__h"/>
                </mask>
                <path fill="url(#prefix__i)" d="M.155.702C.117.506.082.296.05.075c.032.221.067.431.105.627" mask="url(#prefix__j)"/>
            </g>
            <path fill="#260031" d="M39.033 21.083c-.014-.098-.027-.2-.04-.302l.04.302" transform="translate(16.56 26.303) translate(13.414)"/>
            <path fill="#130018" d="M39.023 20.781c-.033-.259-.062-.528-.087-.803.026.275.054.544.087.803m-5.389-3.225l.44-.165-.44.165" transform="translate(16.56 26.303) translate(13.414)"/>
            <path fill="#FB4E4D" d="M37.8 21.897c-2.314 0-3.593-2.111-4.166-4.34l.44-.166c.696 1.513 1.881 2.725 3.725 2.725.35 0 .725-.044 1.124-.138.013.275.028.544.046.803l.021.302c.017.22.035.431.056.626l-.108.032c-.405.106-.784.156-1.139.156" transform="translate(16.56 26.303) translate(13.414)"/>
            <path fill="#FC7575" d="M37.855 3.243s2.652-.41 4.108 1.718c1.457 2.129.784 5.714.784 6.61 0 .897.43 7.396-3.81 8.404-4.239 1.008-5.676-3.623-5.676-6.424s1.041-9.958 4.594-10.308" transform="translate(16.56 26.303) translate(13.414)"/>
            <path fill="#130018" d="M34.918 5.864l.052-.113.007-.005-.06.118" transform="translate(16.56 26.303) translate(13.414)"/>
            <path fill="#FB4E4D" d="M42.898 9.239c-2.077 0-3.342-1.422-3.94-3.493-1.49.235-2.98.578-4.448 1.02.12-.334.25-.657.388-.963l.031-.063c.813-.493 1.646-.685 2.483-.685 1.79 0 3.597.876 5.252 1.554.212.872.254 1.803.234 2.63" transform="translate(16.56 26.303) translate(13.414)"/>
            <path fill="#FC7575" d="M6.353 25.922c-.24.058-.699.223-1.046.471-.1-.263-.598-1.607-.516-2.142.363-.384 1.154-.395 1.541-.23.052.048.09.11.108.19.123.508.385 1.597-.087 1.711zm.596-2.525c-.051-.063-4.294-4.101-5.133-3.848-1.396.364 1.706 2.679 2.042 3.113.168.217.318.49.448.748-.11.031-.213.06-.305.082-.8.192-2.931.59-3.235 1.086 0 0-.057 2.793.677 2.808.733.016 1.475-.253 2.263-.173.393.04.798-.154 1.105-.358.049-.032.095-.065.139-.098-.102.172-.128.364-.025.575.376.764 2.978-.554 3.092-1.042.113-.488-.468-2.154-1.068-2.893z" transform="translate(16.56 26.303) translate(13.414)"/>
            <path fill="#FFF" d="M6.633 33.906s6.05 15.537 8.366 16.732c2.316 1.195 10.802-11.728 10.802-11.728s.328-12.25-.718-12.25-5.345 5.114-6.582 8.19c-1.258 3.13-1.214 4.71-2.904 1.67-1.727-3.106-4.763-7.278-4.763-7.278-1.742 1.743-4.201 4.664-4.201 4.664" transform="translate(16.56 26.303) translate(13.414)"/>
            <path fill="#333" d="M41.142 2.01s-1.494-.186-2.39.523c-.897.71-2.876 1.046-4.034 6.536-1.158 5.49-.225 6.125-.225 6.125s1.231 2.54-.355 4.482c-1.587 1.942-4.699 1.209-6.441.187-2.535-1.486-2.084-6.639-1.017-10.01.148-.47.222-.75.396-1.144.335-.758.446-1.63.93-2.427 1.57-2.58 4.425-4.94 9.476-4.812 0 0 2.278-.132 3.66.54" transform="translate(16.56 26.303) translate(13.414)"/>
            <path fill="#130025" d="M27.188 8.293c-.315.946-.27.807-.508 1.56-.051.16-.1.324-.148.492.994-.574 1.19-.732 2.323-1.312C30.94 7.971 33.167 7.116 35.44 6.5c.045-.122.092-.24.138-.354-2.916.274-5.81.801-8.39 2.147" transform="translate(16.56 26.303) translate(13.414)"/>
            <path fill="#333" d="M27.823 6.378c5.54-2.898 9.265-3.16 15.617-2.745v1.53c-5.333.02-10.602 1.468-15.031 3.727-1.191.609-1.83 1.025-1.835 1.028l1.249-3.54" transform="translate(16.56 26.303) translate(13.414)"/>
            <path fill="#9B9B9B" d="M47.44 4.588c0 2.478-1.88 4.487-4.198 4.487-2.317 0-4.196-2.009-4.196-4.487S40.925.1 43.242.1c2.319 0 4.197 2.01 4.197 4.488" transform="translate(16.56 26.303) translate(13.414)"/>
            <path fill="#EAE9F3" d="M47.44 4.588c0 2.478-1.823 4.487-4.07 4.487-2.246 0-4.068-2.009-4.068-4.487S41.124.1 43.37.1c2.246 0 4.068 2.01 4.068 4.488" transform="translate(16.56 26.303) translate(13.414)"/>
            <path fill="#7881B6" d="M47.44 4.588c0 2.478-1.88 4.487-4.198 4.487-2.317 0-4.196-2.009-4.196-4.487S40.925.1 43.242.1c2.319 0 4.197 2.01 4.197 4.488" transform="translate(16.56 26.303) translate(13.414)"/>
            <path fill="#9B9B9B" d="M47.44 4.588c0 2.478-1.823 4.487-4.07 4.487-2.246 0-4.068-2.009-4.068-4.487S41.124.1 43.37.1c2.246 0 4.068 2.01 4.068 4.488" transform="translate(16.56 26.303) translate(13.414)"/>
            <path fill="#EAE9F3" d="M41.817 3.731c0-1.491.66-2.812 1.675-3.628C43.452.1 43.412.1 43.371.1c-2.247 0-4.07 2.01-4.07 4.488 0 2.478 1.823 4.487 4.07 4.487.895 0 1.722-.319 2.393-.859-2.19-.07-3.947-2.051-3.947-4.485" transform="translate(16.56 26.303) translate(13.414)"/>
            <path fill="#9B9B9B" d="M44.044 4.398c0 .367-.27.666-.604.666-.334 0-.605-.299-.605-.666 0-.368.271-.667.605-.667.333 0 .604.299.604.667" transform="translate(16.56 26.303) translate(13.414)"/>
            <path fill="#FFF" d="M44.011 26.638s-.77 8.538.394 15.04c.292 1.633 4.802 2.36 7.267 4.214 4.108 3.093 6.97 7.267 7.7 8.925 1.666-.751 1.656-8.25.744-11.228-.99-1.98-16.105-16.951-16.105-16.951" transform="translate(16.56 26.303) translate(13.414)"/>
            <path fill="#333" d="M68.001 37.396L52.111 35.474 42.158 54.437 55.045 54.437 68.001 37.396" transform="translate(16.56 26.303) translate(13.414)"/>
            <path fill="#6882BE" d="M57.272 51.507l3.39-4.46-3.39 4.46m-5.445-15.492l.284-.54-.284.54" transform="translate(16.56 26.303) translate(13.414)"/>
            <path fill="#FC7575" d="M48.662 47.891c.289-.23 2.708 1.272 4.098 2.171l.008-.056c-1.308-.97-3.597-2.128-3.074-2.461.269-.17 6.015 2.145 6.016 2.146.605.273.634.3 1.258.575-.149-.36-1.652-2.808-.637-2.688l3.356 4.389c.57.934.55 1.5.408 1.986-.174.6-1.015 2.206-2.387 2.529-1.322.311-4.902-1.711-5.463-2.235-.603-.519-4.709-4.107-4.052-5.107 0 0 3.423 3.342 3.786 2.927.021-.096-3.385-2.357-3.65-3.24-.192-.633 2.786 1.295 4.091 2.261-1.17-.96-3.958-3.037-3.758-3.197" transform="translate(16.56 26.303) translate(13.414)"/>
            <path fill="#000" d="M55.045 54.437h-2.402c2.403-3.42 7.95-11.683 7.188-14.04-.714-2.207-5.52-3.732-8.004-4.382l.284-.54L68 37.394 55.045 54.438" transform="translate(16.56 26.303) translate(13.414)"/>
            <path fill="#333" d="M51.526 34.612L41.399 54.099 42.158 54.437 52.111 35.474 68.001 37.396 67.032 36.637 51.526 34.612" transform="translate(16.56 26.303) translate(13.414)"/>
        </g>
        <path fill="#FC7575" d="M91.98 82.838L91.681 84.528 90.352 84.623 90.579 81.66 91.98 82.838" transform="translate(16.56 26.303)"/>
        <path fill="#626162" d="M91.913 84.267s-1.23.022-1.499-.19c-.269-.213-.554.198-.99.749-.434.55-2.057.484-2.256.918-.15.329 4.668.232 4.912.225.171-.005-.167-1.702-.167-1.702" transform="translate(16.56 26.303)"/>
        <path fill="#FC7575" d="M95.592 82.573L95.293 84.263 93.963 84.358 94.189 81.396 95.592 82.573" transform="translate(16.56 26.303)"/>
        <path fill="#626162" d="M95.525 84.003s-1.23.022-1.5-.19c-.269-.213-.553.197-.989.748-.435.55-1.969.631-2.186 1.056-.216.425 4.628.357 4.734.222.107-.134-.06-1.836-.06-1.836" transform="translate(16.56 26.303)"/>
        <g>
            <path fill="#FC7575" d="M13.599 9.073L14.371 12.023 16.854 11.061 16.408 8.449 13.599 9.073" transform="translate(16.56 26.303) translate(79.108 29.55)"/>
            <path fill="#FB4E4D" d="M13.88 10.148l-.281-1.075 2.169-.482c-.182.232-.352.435-.437.582-.34.585-.908.88-1.451.975" transform="translate(16.56 26.303) translate(79.108 29.55)"/>
            <path fill="#333" d="M13.667 30.029l.14 12.096.94 11.762 1.765.302s1.47-20.78 2.99-23.076c1.52-2.293-.202-6.08-.21-6.087l-5.625 5.003" transform="translate(16.56 26.303) translate(79.108 29.55)"/>
            <path fill="#000" d="M18.67 30.7c.654-.987 1.137-2.297 1.015-3.787-.039-.483-.814-1.018-.91-1.426l-5.108 4.542.14 12.096.523 6.551c.942-5.643 2.692-13.746 3.043-16.068.15-.208.65-.93 1.296-1.908" transform="translate(16.56 26.303) translate(79.108 29.55)"/>
            <path fill="#333" d="M11.637 24.376s-.896 11.038-.969 14.727c-.073 3.77.4 15.076.4 15.076l2.078.01s3.085-18.392 3.6-21.832c0 0-.294.496 1.227-1.8 1.519-2.293.406-5.524.399-5.53l-2.702 1.007-4.033-1.658" transform="translate(16.56 26.303) translate(79.108 29.55)"/>
            <path fill="#BD0000" d="M21.004 19.02l-1.918 3.218.836 1.917s5.089-4.004 4.651-5.1c-.368-.925-5.454-6.384-6.827-7.884-.25-.272-.634-.368-.983-.247l-2.358.817s6.807 6.57 6.599 7.28" transform="translate(16.56 26.303) translate(79.108 29.55)"/>
            <path fill="#E60000" d="M12.338 10.887s-.605 15.528-2.154 18.676c0 0 7.03-1.036 10.257-1.035 0 0-.077-13.153-1.636-16.07-1.56-2.919-4.95-2.382-6.467-1.571" transform="translate(16.56 26.303) translate(79.108 29.55)"/>
            <path fill="#AB3400" d="M15.892 16.61c1.505-.799 1.988-1.904 2.017-3.31.021-1.023-3.411-.488-5.668-.347-.041.798-.097 1.783-.167 2.873.867.95 2.73 1.363 3.818.785" transform="translate(16.56 26.303) translate(79.108 29.55)"/>
            <path fill="#E60000" d="M4.4 11.541s4.867 4.172 8.748 4.015c3.88-.157 4.388-1.09 4.721-2.124.333-1.035-1.879-2.453-4.097-2.878-2.218-.426-6.172-.383-6.78-.944C6.382 9.05 3.261 4.838 3 4.105l-1.882.801L4.4 11.541" transform="translate(16.56 26.303) translate(79.108 29.55)"/>
            <path fill="#FC7575" d="M14.608 4.267s-.659.326-1.22 1.158c-.559.831-1.162 1.278-1.162 1.278l.264.424s-.6.433-.542 1.091c.126 1.45 2.369 1.705 3.485.863.303-.228 1.244-.515 1.552-1.032.824-1.383.581-3.51-2.377-3.782" transform="translate(16.56 26.303) translate(79.108 29.55)"/>
            <path fill="#333" d="M15.707 7.37s-.747-1.382-.394-2.354c0 0-.817-.016-1.471-.386-1.182-.668.254-3.153 2.029-1.381 0 0-.153-1.202 1.104-.988 1.257.215 1.716.716 1.49 1.91-.227 1.194.294.665.676 1.362.383.697-1.632 3.202-2.575 3.294l-.943.093s1.346-.754.969-1.325c-.378-.57-.885-.225-.885-.225" transform="translate(16.56 26.303) translate(79.108 29.55)"/>
            <path fill="#FC7575" d="M2.506 2.388C2.293 2.083.838.218.591.392c-.248.173.646 1.428.78 1.619 0 0-.51-.04-.762.533-.17.385.891 2.215 1.336 2.943.388-.122.96-.586.942-.987 0-.754-.217-1.878-.38-2.112" transform="translate(16.56 26.303) translate(79.108 29.55)"/>
        </g>
    </g>
</svg>
