<svg xmlns="http://www.w3.org/2000/svg" width="138" height="139" viewBox="0 0 138 139">
    <g fill="none" fill-rule="evenodd">
        <path fill="#CCC" d="M37.645 31.543c-4.724 3.732-7.993 4.844-8.825 5.078-1.12.324-2.129-.032-3.012-1.174-1.3-3.547-5.8-12.455-5.77-12.747l2.513-7.672c1.4 2.533 6.888 14.624 6.888 14.624.315-.056 9.666-2.115 10.636-1.484-.207.967-2.128 2.227-2.43 3.375" transform="translate(30.36 6.983)"/>
        <path fill="#000" d="M15.028 6.33c4.444.462 5.278 4.599 6.92 7.028 6.56-3.844 1.975-11.398-6.92-7.028" transform="translate(30.36 6.983)"/>
        <path fill="#E60000" d="M10.019 102.127c.85 2.197 2.004 4.042 3.537 5.442 1.94 1.766 3.739 2.836 5.272 2.607 1.48-.635 1.402-2.031.823-3.948-.845-1.973-2.71-3.813-4.792-5.4 0 0-2.284-2.21-2.287-2.308-.002-.1-2.553 3.607-2.553 3.607" transform="translate(30.36 6.983)"/>
        <path fill="#FFB98A" d="M21.707 81.82c-1.68 4.886-4.771 11.224-8.254 17.968 0 0 4.288 3.69 2.529 5.021-2.613 1.978-5.963-4.246-5.963-4.246l4.967-17.14 6.721-1.603" transform="translate(30.36 6.983)"/>
        <path fill="#E60000" d="M6.611 105.197l-.094.247c-.791.032-1.787 2.487-1.435 4.371 1.127 2.81-.04 5.01.415 8.175.281 1.954.99 3.405 2.642 4.356 2.748 1.544 4.774 1.824 5.097-.352.308-1.497.021-2.937-.722-5.234l-1.316-6.073-4.587-5.49" transform="translate(30.36 6.983)"/>
        <path fill="#FFB98A" d="M9.645 118.525c-3.665.445-4.266-3.979-4.294-7.91-.012-1.176.03-2.305.055-3.25 3.259-8.04-2.487-15.262 1.442-22.257L5.01 74.583l9.416-1.112 1.681 8.494.592 5.052c-1.039 6.757-5.635 14.34-6.581 21.551-.191 3.33 1.717 9.693-.472 9.957" transform="translate(30.36 6.983)"/>
        <path fill="#FFA067" d="M6.682 110.207l-.003-.412c0-1.03.033-2.008.056-2.845.754-1.944 1.005-3.84 1.006-5.695 0-3.705-1-7.253-1-10.71 0-1.992.331-3.954 1.378-5.897l-.194-1.158c.864 1.354 2.129 2.093 3.644 2.45.003-.002.005-.002.008-.002l.112.024c-4.06 3.53-.427 17.681-5.007 24.245" transform="translate(30.36 6.983)"/>
        <path fill="#333" d="M23.357 59.408c.286 9.786-2.565 11.133-2.312 17.958.024.525-.038 1.094-.175 1.679-.524 2.288-2.178 4.809-4.196 5.696-.2.091-.405.162-.613.217-2.08.242-4.04.315-5.7-.058-1.889-.422-3.392-1.423-4.239-3.394C6.163 74.259.65 69.142.04 59.536c-.26-4.09.724-7.961 3.35-10.807l3.23-.05 16.048-.255.689 10.984" transform="translate(30.36 6.983)"/>
        <path fill="#E60000" d="M21.533 39.788c-.135 2.908.277 5.718 1.32 8.404-.403 2.408-1.766 4.199-5.022 4.782-1.296.238-2.55.378-3.753.435-5.319.238-9.643-1.257-11.924-4.173 2.541-2.555 2.499-6.441.875-10.023-1.22-1.997-2.053-4.166-2.55-6.482-.622-2.851-.757-6.688.32-10.015 3.366-3.335 6.042-5.257 9.997-6.104l8.793-3.254c2.617.37 4.72 4.972 4.023 8.413.352 5.332 3.029 7.559 3.104 10.87.05 2.67-1.759 4.395-4.947 4.633-.06.427-.11.846-.143 1.266-.042.419-.076.838-.093 1.248" transform="translate(30.36 6.983)"/>
        <path fill="#9DC4DC" d="M6.68 83.49c-.16-.307-.302-.646-.428-1.018.012-2.616-.521-4.962-1.243-7.331.722 2.368 1.256 4.714 1.245 7.328.124.37.266.709.424 1.015l.001.006" transform="translate(30.36 6.983)"/>
        <path fill="#9D7B59" d="M10.012 85.16c-1.385-.242-2.541-.745-3.331-1.666l-.002-.004c.79.922 1.946 1.429 3.332 1.667l.008.002h-.007" transform="translate(30.36 6.983)"/>
        <path fill="#9DC4DC" d="M3.37 50.136l-.062-.084c.02.028.042.055.063.082v.002" transform="translate(30.36 6.983)"/>
        <path fill="#000" d="M10.6 85.16l-.008-.003c-1.58-.342-2.897-1.07-3.798-2.394-.2-.293-.378-.616-.536-.971.015-2.502-.659-4.748-1.57-7.014-1.704-4.245-4.24-8.562-4.647-14.77C-.2 56.33.615 52.836 2.78 50.11l-.011-.014v-.002c2.114 2.596 5.931 4.014 10.645 4.015H13.422c.352 0 .71-.008 1.074-.024.157.537.333 1.09.532 1.66-1.556-.145-3.561-.602-5.525-1.291-2.205 1.747-3.662 4.288-4.793 7.342-.275 11.23 3.436 18.813 6.09 23.325-.072.015-.135.024-.2.039" transform="translate(30.36 6.983)"/>
        <path fill="#D38B97" d="M21.592 41.745v-.004c.017-.544.05-1.1.09-1.656.034-.556.083-1.112.14-1.68-.057.568-.106 1.124-.14 1.68-.04.556-.065 1.1-.082 1.656l-.008.004" transform="translate(30.36 6.983)"/>
        <path fill="#D3152C" d="M13.445 53.434h-.007c-4.532-.002-8.195-1.472-10.192-4.163 1.317-1.395 1.897-3.19 1.896-5.115 0-1.57-.386-3.227-1.073-4.822-1.148-1.98-1.932-4.13-2.4-6.427l5.109-2.85c.474 7.435 3.814 10.548 6.656 10.548 2.333 0 4.332-2.096 4.139-5.621.959 1.23 2.794 2.431 4.017 2.431.04 0 .079 0 .117-.004-.055.424-.103.84-.135 1.255-.039.416-.07.831-.087 1.238v.003c-7.644 3.38-8.616 7.558-7.016 13.502-.346.017-.687.025-1.023.025h-.001" transform="translate(30.36 6.983)"/>
        <path fill="#821026" d="M13.35 55.103c-4.451-.002-8.049-1.771-10.01-5.009 1.961 3.238 5.559 5.007 10.01 5.01" transform="translate(30.36 6.983)"/>
        <path fill="#FFF" d="M17.783 14.375L19.691 17.991 18.322 19.085 20.038 20.363 18.322 31.726 16.511 27.103 15.028 13.358 17.783 14.375" transform="translate(30.36 6.983)"/>
        <path fill="#FFB98A" d="M6.68 19.623c1.192-2.042 1.63-3.908 1.829-6.265l7.137.568-.081 5.014c1.166 3.177.952 5.418 1.133 11.116-2.483-3.02-9.618-7.812-10.019-10.433" transform="translate(30.36 6.983)"/>
        <path fill="#FFDDBE" d="M16.802 15.085L16.45 14.972 16.946 15.031 16.802 15.085" transform="translate(30.36 6.983)"/>
        <path fill="#FF2137" d="M17.937 16.698l-1.231-1.588-.008-.003.273-.079 1.397.13c-.125.536-.268 1.05-.431 1.54" transform="translate(30.36 6.983)"/>
        <path fill="#FFDDBE" d="M17.043 20.038c-.093-.465-.207-.936-.345-1.428l.044-3.582.796.124.29.12.004.002.536 1.15c-.312 1.566-.775 2.79-1.325 3.614" transform="translate(30.36 6.983)"/>
        <path fill="#FFA067" d="M14.647 21.707c-1.672 0-2.49-2.871-2.958-6.679l4.613.54-.058 3.563c.181.49.33.958.454 1.42-.435.493-.911.84-1.412 1.03-.225.085-.438.126-.639.126" transform="translate(30.36 6.983)"/>
        <path fill="#FFB98A" d="M8.693 14.536C4.841 8.406 6.814 3.07 12.073 1.91c5.754-1.267 9.617 2.657 9.62 7.434.17 5.039-1.176 8.61-3.192 8.92-3.325.508-5.745-.895-6.712-3.006l-3.096-.722" transform="translate(30.36 6.983)"/>
        <path fill="#000" d="M9.547 16.698c1.084-3.142.601-1.796.735-2.708l.254-1.724 1.54.668c3.143.168 3.704-5.428 9.586-4.71.513-5.33-3.407-8.273-8.22-8.223C3.225.868 2.752 10.884 9.547 16.698" transform="translate(30.36 6.983)"/>
        <path fill="#FFBB7D" d="M13.002 14.386c.345-.792.436-.699.288-1.057-.418-1.012-1.165-1.784-1.904-1.618-.487.11-1.038.196-1.256.576-.255.448-.023.973.21 1.429.167.325.339.658.624.92.286.262.713.443 1.13.38.4-.06.77-.31.908-.63" transform="translate(30.36 6.983)"/>
        <path fill="#000" d="M16.99 85.16c.285-.67.447-1.406.523-1.91.714-4.652-1.534-8.768-.571-11.449.29 1.746.736 3.225 1.57 4.707.808 1.438 1.903 2.115 3.195 3.116-.59 2.224-2.449 4.674-4.717 5.536" transform="translate(30.36 6.983)"/>
        <path fill="#FFF" d="M18.368 31.726L17.536 28.788 9.425 16.698 6.679 19.779 9.26 24.818 11.81 23.246 11.036 26.168 18.368 31.726" transform="translate(30.36 6.983)"/>
        <path fill="#FFBB7D" d="M21.4 60.871c-.287.162-.712.188-1.121-.146-.881-.901-1.805-1.616-2.994-1.215-.212.375-.228.887-.1 1.48l.031.131c.308 1.273 1.195 2.925 2.098 4.582.105.282.031.49-.123.61-.201.172-.552.187-.818.021.048.464-.562.641-.97.22l-.612-.658c-.068.537-.716.386-.918 0l-1.158-1.408c-.79-.745-1.438-1.646-1.995-2.663-.075-.146-.155-.292-.229-.443-.542-1.669-.823-3.341-.801-5.01.397-1.386 1.662-1.59 3.297-.838l1.953.995c1.82.876 2.745 2.132 4.699 3.686.159.213.026.5-.24.656" transform="translate(30.36 6.983)"/>
        <path fill="#FFA25D" d="M18.73 66.792c-.176 0-.374-.069-.539-.223l-.63-.614c-.033.23-.192.326-.375.326-.214 0-.46-.131-.573-.326l-1.196-1.315c-.816-.696-1.484-1.538-2.059-2.487.32.116.642.168.968.168.67 0 1.353-.218 2.045-.538.872 1.796 2.44 4.23 3.667 4.562-.11.084-.263.129-.422.129-.144 0-.293-.036-.423-.11l.003.048c0 .236-.21.38-.466.38" transform="translate(30.36 6.983)"/>
        <path fill="#508EA1" d="M20.038 61.783c-.184 0-.388-.078-.588-.275-.613-.761-1.252-1.395-2.014-1.395-.186 0-.379.038-.58.12-.109.23-.158.51-.158.828 0-.318.05-.597.157-.828.202-.082.395-.12.58-.12.763 0 1.402.634 2.015 1.395.2.197.403.275.588.275" transform="translate(30.36 6.983)"/>
        <path fill="#FFA25D" d="M17.22 61.783l-.522-1.609c.25-.042.493-.061.727-.061 1.926 0 3.308 1.29 4.282 1.576-.131.055-.292.09-.467.09-.227 0-.476-.058-.722-.206-.755-.57-1.54-1.046-2.477-1.046-.229 0-.466.028-.714.09-.133.173-.194.383-.194.621 0 .168.03.351.087.545" transform="translate(30.36 6.983)"/>
        <path fill="#E6E6E6" d="M1.056 22.546c-2.512 5.96.152 12.77.871 20.048 2.307 6.349 5.74 11.265 9.322 15.849.286-1.258 1.696-3.027 3.78-2.458L8.044 41.592c-.09-4.458-.693-7.52-.937-13.692 0 0-.014-3.31-2.459-5.311-2.393-1.958-3.593-.043-3.593-.043M51.764 26.717L51.764 41.712 35.067 51.764 35.066 36.768 51.764 26.717" transform="translate(30.36 6.983)"/>
        <path fill="#E60000" d="M38.376 39.472c-.357.162-.581.416-.581.816v.6l-1.06.482v-.545c0-.897.572-1.668 1.67-2.167 1.1-.5 1.67-.246 1.67.65 0 1.763-2.228 3.431-2.228 4.352l.009.115 2.118-.961v.8l-3.238 1.47v-.688c0-1.65 2.22-2.93 2.22-4.548 0-.503-.225-.538-.58-.376M42.122 39.546L43.415 38.893 43.415 39.553 42.122 40.206 42.122 41.364 41.368 41.745 41.368 40.587 40.075 41.241 40.075 40.581 41.368 39.928 41.368 38.786 42.122 38.405 42.122 39.546M45.055 36.133c-.357.161-.58.414-.58.815v.6l-1.06.481v-.543c0-.897.57-1.669 1.67-2.168 1.1-.5 1.67-.245 1.67.651 0 1.762-2.23 3.43-2.23 4.351l.01.116 2.118-.961v.8l-3.238 1.47v-.688c0-1.65 2.22-2.93 2.22-4.548 0-.504-.224-.538-.58-.376" transform="translate(30.36 6.983)"/>
        <path fill="#E60000" d="M50.094 36.329v.608l-3.34 1.468v-.608l3.34-1.468zm0-1.263v.609l-3.34 1.467v-.608l3.34-1.468z" transform="translate(30.36 6.983)"/>
        <path fill="#FFBB7D" d="M36.788 31.787c-.267-2.072.488-3.414 2.319-3.362 1.872-.14 3.15.085 4.97.954l1.008 1.819-.09 2.286c-.018.638-.632.992-.608.507l-.036.694c-.139 1.054-.712.914-.966.674-.143.826-.858 1.106-1.148.488-.122 1.2-1.07 1.106-1.195.188l-.472-3.408-1.328.701-1.76-1.309-.694-.232" transform="translate(30.36 6.983)"/>
        <path fill="#000" d="M53.489 104.31c.511.99 1.343 1.75 2.387 1.916 1.837.525 4.855 3.07 6.061 3.07 2.01.009 1.564-2.008 1.208-3.952l-3.71-2.503-2.876-.201c-1.916-.214-3.438 1.124-3.07 1.67" transform="translate(30.36 6.983)"/>
        <path fill="#2F608F" d="M63.746 95.068l.17.154c-.022.306.028 1.565-.17-.154m.207.185c3.276 2.906 7.848 2.992 7.848 2.992l-.584-4.98-.305-2.596c-3.66-1.736-6.946-2.828-9.427-3.04-.813-.072-1.537-.05-2.158.08-2 .406-2.962 1.859-2.39 4.63l.364 1.997 1.366 8.343.036.203c-.023 2.366 3.308 3.715 4.791 2.77 0 0 1.048-4.633.55-9.626-.046-.417-.073-.656-.091-.773" transform="translate(30.36 6.983)"/>
        <path fill="#FFCD4D" d="M66.82 117.52c-4.379.642-8.55-1.23-11.038-4.54-1.14-1.512-1.927-3.321-2.224-5.331-.677-4.628 1.458-9.015 5.112-11.439 1.388-.925 2.998-1.56 4.76-1.816 6.382-.94 12.323 3.481 13.255 9.87.94 6.383-3.482 12.322-9.865 13.256" transform="translate(30.36 6.983)"/>
        <path fill="#FFA517" d="M54.168 112.636c-.263-.33-.509-.676-.734-1.034.106-.06.205-.13.296-.206.655-5.83 1.702-8.154.6-12.093.98.584 2.04 1.429 3.898 2.194.106.044.215.088.327.132 1.575.726 4.243 1.85 7.1 1.85 2.674 0 5.514-.984 7.783-4.202.125.758-.103 1.581-.647 2.39-1.679 2.505-3.95 3.1-6.893 3.224-.333.014-.662.022-.988.022-1.196 0-2.354-.105-3.524-.358-1.533-.328-3.095-1.177-4.643-1.251-.405 1.463-.383 3.133-.702 4.652-.23 1.108-.513 2.292-.983 3.339-.21.458-.55.903-.89 1.34" transform="translate(30.36 6.983)"/>
        <path fill="#FFB98A" d="M63.452 71.134L64.607 75.9 71.801 73.517 70.215 69.221 63.452 71.134" transform="translate(30.36 6.983)"/>
        <path fill="#000" d="M45.651 110.831c-1.45-1.384.138-3.32 1.921-3.2l3.993.238 3.538 2.471v2.665c.02.888-.505 1.355-1.714 1.295-.997.041-2.066-.634-3.164-1.608-1.692.034-3-.667-4.574-1.86" transform="translate(30.36 6.983)"/>
        <path fill="#2F608F" d="M63.452 94.68l-.813 8.157c-1.756-.354-3.093-.81-4.157-1.296-1.787-.813-2.806-1.71-3.749-2.332 1.06 4.186.054 6.654-.576 12.849-1.086 1.016-3.299.648-4.429-.755-.457-.57-.734-1.32-.677-2.216l-.528-14.145c-.43-1.724.611-2.873 1.808-3.49.695-.353 1.433-.524 1.97-.524.674 0 2.472.377 4.488.961.94.276 1.926.598 2.867.947 1.153.428 2.234.897 3.075 1.38.268.156.51.308.721.464" transform="translate(30.36 6.983)"/>
        <path fill="#2F608F" d="M74.35 97.402c1.295-2.102.838-5-.207-8.166-.179-.54-.375-1.09-.581-1.647l-12.334 4.275-1.931.668c-.098.58-.19 1.165-.272 1.754-.3 2.155-.492 4.176-.582 6.425 3.269 1.506 11.103 4.678 15.906-3.309" transform="translate(30.36 6.983)"/>
        <path fill="#E60000" d="M76.773 74.863c-1.332 6.145-2.2 10.844-1.695 14.646-.882 1.254-1.79 2.213-2.78 2.932-2.05 1.494-4.431 1.94-7.553 1.804-.177-.009-.381-.05-.6-.121-1.045-.325-2.468-1.22-3.316-1.651-.192-2.218-.405-3.99-.55-5.587-.2-2.212-.264-4.098.063-6.306.027-.184.054-.368.09-.549.955-2.825 2.478-4.983 4.813-6.167 3.517-.395 5.807-1.111 6.693-2.649 2.767-1.21 5.207 1.179 4.835 3.648" transform="translate(30.36 6.983)"/>
        <path fill="#FFB98A" d="M64.658 57.57c-3.252.287-4.605 3.11-4.543 6.93.062 3.82.562 4.872.562 4.872.546 2.438 2.118 3.84 6.024 2.887 3.814-.6 7.135-2.609 6.738-7.759-.293-3.8-3.727-7.376-8.78-6.93" transform="translate(30.36 6.983)"/>
        <path fill="#1D1D1B" d="M75.1 64.594c-.314-3.79-4.302-7.47-9.732-7.025-3.375.277-5.218 1.92-5.255 5.532.295 1.624 1.788 3.962 3.204 4.874l1.195 4.495c.323-.038 11.378 1.63 10.589-7.876" transform="translate(30.36 6.983)"/>
        <path fill="#FFB98A" d="M61.867 68.224c-.143-.345.591-.773.927-.652.477.173.615.786.652 1.192.036.389-.084.805-.18 1.169-.09.335-.174.804-.572.925-.75.23-.803-.825-.803-1.249.002-.528-.228-.884-.024-1.385" transform="translate(30.36 6.983)"/>
        <path fill="#273455" d="M60.113 92.598h-.002c-1.038-.31-2.124-.593-3.162-.836-.118-.478-.175-.913-.176-1.306-.002-1.659 1.011-2.572 2.756-2.867.154 1.433.38 3.023.584 5.009M59.452 94.268c-.802-.142-1.568-.377-2.318-.653-2.314-.856-4.472-2.103-7.04-2.214.718-.32 1.481-.473 2.036-.473.695 0 2.554.337 4.635.86.973.247 1.99.535 2.963.848h.002c0 .01.001.019.003.028.117.055.244.117.38.185l-.45.149c-.075.42-.146.844-.21 1.27M61.587 94.268c-.508 0-.998-.056-1.474-.153.06-.456.126-.909.195-1.358l.418-.159c.792.455 1.89 1.144 2.726 1.417-.652.177-1.271.253-1.865.253" transform="translate(30.36 6.983)"/>
        <path fill="#D3152C" d="M63.452 94.268c-.746-.293-1.726-1.031-2.432-1.518-.113-.079-.218-.15-.314-.212l-.003-.032c-.158-2.309-.333-4.156-.453-5.822-.083-1.159-.137-2.232-.137-3.305 0-.227.002-.455.007-.683.517-.007 1.077-.031 1.692-.072l.062-.004h.004l.005-.001.228-.016.06-.004.015-.002.106-.008.032-.002.06-.005.031-.003c-.237 1.3-.365 2.639-.359 4.021.012 2.304.395 4.731 1.276 7.318.038.119.08.231.12.35" transform="translate(30.36 6.983)"/>
        <path fill="#FFB98A" d="M61.849 82.376l-.127.007c-2.482.172-4.1.288-5.662.1-1.225-.15-2.418-.486-3.973-1.13-3.542-2.857-4.348-4.328-6.82-8.484l-.037-.096c-.179-.46-.182-.85-.067-1.157.27-.717 1.197-.96 2.077-.468l6.55 6.637c.912-.302 1.795-.511 2.656-.658l.362-.06c2.03-.322 3.953-.335 5.91-.488 3.24.166 3.446 5.936-.87 5.797" transform="translate(30.36 6.983)"/>
        <path fill="#E60000" d="M63.417 84.102l-.428.03c-2.081.137-3.659.16-5.009.035-.153-.082-.292-.195-.42-.334-.155-.177-.291-.395-.401-.64-.72-1.607-.415-4.414.779-4.847l.353-.06c2.004-.351 4.045-.56 5.957-.716 3.165.17 3.896 6.74-.831 6.532" transform="translate(30.36 6.983)"/>
        <path fill="#FFB98A" d="M50.094 73.77h-.665c-.736-.02-1.996 1.241-1.585 2.13l-1.747-2.026c-.336-.051-.79-.345-1.2-.696-.227-.194-.382-.454-.476-.735-.203-.61-.488-1.172-.856-1.783-.127-.21-.181-.46-.132-.7.171-.825.433-1.565.828-1.982l1.425-2.097.496.207.809.774c.485.465.727 1.123.654 1.786l-.197 1.804c.407.408 1.326 1.59 1.434 2.288l1.212 1.03" transform="translate(30.36 6.983)"/>
        <path fill="#FFDCC4" d="M48.54 72.653L48.48 72.641 48.308 72.468 48.54 72.653" transform="translate(30.36 6.983)"/>
        <path fill="#FF9F6A" d="M50.094 72.924L50.026 72.919 48.424 72.196 49.766 72.751 50.094 72.924M48.424 72.56l-.609-.106-1.665-.74-.203-.557-.862-1.503.07-3.773.056.012.724.696c.384.37.597.875.597 1.398 0 .07-.004.14-.012.21l-.176 1.623c.364.366 1.187 1.43 1.283 2.058l.797.682" transform="translate(30.36 6.983)"/>
        <path fill="#E8A97F" d="M44.162 69.221L43.415 67.551 45.085 68.14 44.162 69.221" transform="translate(30.36 6.983)"/>
        <path fill="#E6E6E6" d="M49.477 69.21l-3.838 1.615c-.5.21-1.065-.104-1.262-.701l-2.564-7.779c-.197-.597.048-1.252.55-1.463l3.837-1.615c.5-.21 1.065.104 1.263.702l2.563 7.78c.197.597-.049 1.252-.549 1.462" transform="translate(30.36 6.983)"/>
        <path fill="#FFB98A" d="M45.085 68.948c.41-.938.718-1.88.907-2.825.039-.195.182-.293.306-.215.333.21.46.716.26 1.515l-.3 1.487c.48.567.546 1.69.47 2.77l-.47.88-1.173-3.612" transform="translate(30.36 6.983)"/>
        <path fill="#D31222" d="M60.113 82.765c.434-.014.903-.062 1.42-.144-.517.082-.986.13-1.42.144m1.478-.154c.063-.01.127-.02.192-.032-.065.012-.129.022-.192.032" transform="translate(30.36 6.983)"/>
        <path fill="#FF9F6A" d="M56.773 82.58c-1.296-.141-2.558-.458-4.202-1.064-.277-.198-.54-.403-.807-.607 1.544.539 3.578.983 4.574 1.082.12.225.267.425.435.588" transform="translate(30.36 6.983)"/>
        <path fill="#FF2139" d="M59.84 84.249h-.005c-.786 0-1.496-.041-2.156-.13-.169-.13-.323-.307-.463-.527-.171-.28-.321-.625-.443-1.013.819.142 1.708.183 2.617.183.608 0 1.225-.018 1.836-.037.608-.018 1.21-.036 1.791-.036.147 0 .292.001.435.004l-.14.737-.113.635-.08.008-.043.004-.14.012-.02.002-.08.007c-.103.01-.203.017-.302.025-.002 0-.004 0-.006.002h-.006l-.082.006c-.814.066-1.555.105-2.24.115-.117.003-.234.003-.348.003h-.012" transform="translate(30.36 6.983)"/>
        <path fill="#E60000" d="M46.79 65.494l-.825-2.346-.06 2.68.885-.334zm-1.705.643l.116-4.897.975-.368 1.507 4.285.423-.159.318.906-.422.16.404 1.15-.893.337-.405-1.151-1.705.643-.318-.906z" transform="translate(30.36 6.983)"/>
    </g>
</svg>
