<svg xmlns="http://www.w3.org/2000/svg" width="138" height="139" viewBox="0 0 138 139">
    <g fill="none">
        <g fill="#2F4859">
            <path d="M44.573.127v2.785c0 1.35 1.03 2.444 2.3 2.444h5.963c1.27 0 2.3-1.094 2.3-2.444V.127H44.574zM.11.127v2.785c0 1.35 1.031 2.444 2.302 2.444h5.961c1.271 0 2.301-1.094 2.301-2.444V.127H.111z" transform="translate(31.74 34.583) translate(9.66 64.86)"/>
        </g>
        <path fill="#D5D6DB" d="M0 3.087v60.066c0 1.705 1.4 3.087 3.126 3.087h69.648c1.726 0 3.126-1.382 3.126-3.087V3.087C75.9 1.382 74.5 0 72.774 0H3.126C1.4 0 0 1.382 0 3.087z" transform="translate(31.74 34.583)"/>
        <path fill="#E60000" d="M5.52 4.14H69V62.1H5.52z" transform="translate(31.74 34.583)"/>
        <g>
            <path fill="#FFF" d="M44.096 13.771v-.004c0-7.556-6.17-13.704-13.753-13.704h-.007-.004c-3.768.004-7.185 1.526-9.67 3.983-.017.015-.038.02-.054.036-.017.017-.023.04-.039.058-2.457 2.477-3.98 5.877-3.98 9.626 0 7.555 6.171 13.703 13.754 13.703 7.58 0 13.748-6.144 13.753-13.695v-.002zm-4.883 7.306l-6.24-6.217h8.829c-.227 2.356-1.152 4.49-2.59 6.217zM18.885 14.86h8.814l-6.232 6.209c-1.433-1.726-2.355-3.857-2.582-6.209zm2.576-8.39l6.238 6.214h-8.815c.224-2.354 1.145-4.486 2.577-6.214zm9.966-4.121c2.367.223 4.51 1.142 6.247 2.574l-6.247 6.224V2.349zm-2.184 8.795L23.004 4.93c1.734-1.432 3.875-2.353 6.239-2.58v8.794zm0 5.256v8.781c-2.361-.226-4.5-1.144-6.232-2.574l6.232-6.207zm2.184-.002l6.24 6.216c-1.735 1.429-3.876 2.346-6.24 2.57v-8.786zm1.546-3.714l6.246-6.222c1.436 1.73 2.36 3.864 2.584 6.222h-8.83z" transform="translate(31.74 34.583) translate(11.04 19.32)"/>
            <path fill="#333" d="M2.233 7.634H4.418V20.192999999999998H2.233z" transform="translate(31.74 34.583) translate(11.04 19.32)"/>
            <path fill="#333" d="M3.324 9.629c1.803 0 3.264-1.456 3.264-3.251 0-1.796-1.46-3.252-3.264-3.252-1.802 0-3.263 1.456-3.263 3.252 0 1.795 1.461 3.25 3.263 3.25zM3.324 17.925c-1.79 0-3.24 1.446-3.24 3.23 0 1.783 1.45 3.228 3.24 3.228 1.79 0 3.241-1.445 3.241-3.229 0-1.783-1.45-3.229-3.24-3.229z" transform="translate(31.74 34.583) translate(11.04 19.32)"/>
        </g>
        <g fill="#333">
            <path d="M1.252 37.155h3.09c.63 0 1.14-.46 1.14-1.028v-8.953c0-.568-.51-1.028-1.14-1.028h-3.09c-.63 0-1.14.46-1.14 1.028v8.953c0 .568.51 1.028 1.14 1.028zM.112 1.184v8.953c0 .568.51 1.029 1.14 1.029h3.09c.63 0 1.14-.46 1.14-1.029V1.184c0-.567-.51-1.028-1.14-1.028h-3.09c-.63 0-1.14.46-1.14 1.028z" transform="translate(31.74 34.583) translate(67.62 15.18)"/>
        </g>
    </g>
</svg>
