<svg xmlns="http://www.w3.org/2000/svg" xmlns:xlink="http://www.w3.org/1999/xlink" width="298" height="315" viewBox="0 0 298 315">
    <defs>
        <path id="prefix__a" d="M67.452 49.537L1.455 11.132.65 6.952 12.535.038C36.888 7.624 63.415 11.96 90.232 13.04L110.2 24.661 67.452 49.537z"/>
    </defs>
    <g fill="none" fill-rule="evenodd">
        <g>
            <path fill="#EAE4D8" d="M89.965 237.038L0.886 185.562 103.13 126.479 192.21 177.955 89.965 237.038" transform="translate(105)"/>
            <path fill="#C7C0B1" d="M89.462 237.922L192.21 178.889 192.21 51.299 89.462 110.332 89.462 237.922" transform="translate(105)"/>
            <path fill="#626259" d="M180.695 71.642L180.695 171.441 101.914 217.038 100.977 217.579 100.977 117.775 112.876 110.891 113.474 110.546 154.847 86.601 165.565 80.401 180.371 71.828 180.695 71.642" transform="translate(105)"/>
            <path fill="#747267" d="M118.692 221.117L100.977 216.152 100.977 122.941 118.692 127.906 118.692 221.117" transform="translate(105)"/>
            <path fill="#97968A" d="M165.637 80.487L118.588 128.248 100.977 123.283 113.488 110.581 154.907 86.676 165.637 80.487" transform="translate(105)"/>
            <path fill="#938E80" d="M89.462 237.038L0 185.709 0 58.375 89.462 109.703 89.462 237.038M124.006 232.615L105.405 227.293 105.405 127.364 124.006 132.686 124.006 232.615" transform="translate(105)"/>
            <path fill="#858175" d="M124.006 232.615L105.405 227.293 105.405 127.364 107.003 127.821 107.003 226.353 124.006 231.412 124.006 232.615" transform="translate(105)"/>
            <path fill="#EAE4D8" d="M183.352 72.625L124.24 132.67 105.405 127.353 129.562 102.818 134.406 97.893 179.872 71.642 179.915 71.652 183.352 72.625M192.21 51.482L89.965 110.559.886 59.084 103.13 0 192.21 51.482" transform="translate(105)"/>
            <path fill="#F0EADD" d="M80.604 12.383L80.604 105.252 37.202 80.392 37.202 37.242 80.604 12.383M149.693 26.685L149.693 75.913 115.149 95.523 115.149 7.076 149.693 26.685" transform="translate(105)"/>
            <path fill="#DED4C3" d="M103.13 0L188.008 51.476 89.965 107.418 4.549 59.083 37.208 38.093.886 59.083 89.965 110.559 192.21 51.476 103.13 0M124.006 232.615L183.352 172.837 183.352 73.411 124.006 133.189 124.006 232.615" transform="translate(105)"/>
            <path fill="#D4CCBC" d="M125.778 133.923L183.352 75.18 183.352 172.988 125.778 231.731 125.778 133.923" transform="translate(105)"/>
            <path fill="#B7B2A2" d="M145.265 164.202c0 4.878 2.578 6.2 5.757 2.952 3.18-3.249 5.757-9.837 5.757-14.716 0-4.878-2.578-6.2-5.757-2.952-3.18 3.25-5.757 9.837-5.757 14.716" transform="translate(105)"/>
            <path fill="#B7B2A2" d="M155.264 147.706L158.551 149.447 153.371 169.818 149.693 167.802 155.264 147.706M141.302 191.045l8.256-21.856c.173-.457.18-.965.022-1.338l-.037-.087c-.189-.444-.546-.664-.944-.583-.316.066-.622.355-.812.77l-9.609 21.006 3.124 2.088M153.968 132.67l-2.482 16.403c-.078.508.065.966.362 1.174.305.211.714.121 1.041-.232l.452-.485c.192-.207.34-.487.414-.79l3.91-15.76-3.697-.31" transform="translate(105)"/>
            <path fill="#B7B2A2" d="M163.486 125.401c-2.182.57-4.672 2.297-7.307 5.11-9.783 10.45-17.742 31.713-17.742 47.399 0 6.849 1.537 11.46 4.326 12.983 2.822 1.54 6.754-.152 11.073-4.765 9.783-10.45 17.742-31.712 17.742-47.399 0-6.848-1.536-11.458-4.326-12.982-1.1-.601-2.37-.71-3.766-.346zm-16.973 72.4c-2.205.576-4.262.378-6.093-.622-4.301-2.349-6.67-8.757-6.67-18.045 0-8.673 2.08-19.006 5.855-29.097 3.775-10.087 8.829-18.82 14.23-24.588 5.831-6.228 11.428-8.354 15.76-5.988 4.302 2.348 6.671 8.757 6.671 18.045 0 8.672-2.08 19.006-5.856 29.097-3.775 10.087-8.829 18.819-14.23 24.589-3.366 3.594-6.655 5.823-9.667 6.61z" transform="translate(105)"/>
            <path fill="#B7B2A2" d="M170.952 155.667l-16.46 1.274-.37 3.066 15.415.966c.813-1.53 1.306-3.326 1.404-5.11l.01-.196" transform="translate(105)"/>
            <path fill="#B7B2A2" d="M148.808 165.97c0 4.879 2.577 6.201 5.757 2.952 3.18-3.248 5.757-9.836 5.757-14.715 0-4.878-2.577-6.2-5.757-2.951-3.18 3.248-5.757 9.836-5.757 14.715" transform="translate(105)"/>
            <path fill="#B7B2A2" d="M149.693 165.48c0 4.472 2.182 5.684 4.872 2.706s4.872-9.016 4.872-13.488c0-4.473-2.182-5.684-4.872-2.706-2.69 2.977-4.872 9.017-4.872 13.488" transform="translate(105)"/>
            <path fill="#DFD8C7" d="M148.808 158.255c0 5.506 2.974 7.029 6.643 3.401 3.669-3.627 6.643-11.032 6.643-16.538s-2.974-7.029-6.643-3.401c-3.669 3.627-6.643 11.032-6.643 16.538" transform="translate(105)"/>
            <path fill="#DFD8C7" d="M159.97 139.746L165.637 141.171 156.722 165.396 150.579 163.652 159.97 139.746" transform="translate(105)"/>
            <path fill="#F2E5CF" d="M147.362 188.392l6.63-24.282c.186-.528.172-1.107-.037-1.52l-.05-.097c-.249-.492-.69-.722-1.166-.605-.38.092-.733.438-.942.921l-8.304 23.394 3.869 2.189M161.09 122.251l-3.422 19.692c-.033.58.192 1.072.58 1.26.397.194.886.032 1.244-.41l.493-.61c.211-.259.358-.594.413-.944l5.239-19.182-4.547.194" transform="translate(105)"/>
            <path fill="#F2E5CF" d="M174.228 118.31c-2.32 0-5.484 1.869-8.793 5.26-10.756 11.017-19.506 33.638-19.506 50.426 0 8.589 2.31 12.592 4.47 13.474 2.346.957 6.128-.918 10.127-5.013 10.755-11.018 19.504-33.64 19.504-50.427 0-8.589-2.31-12.591-4.47-13.474-.403-.165-.849-.245-1.332-.245zm-22.525 76.273c-1.616 0-2.927-.348-3.896-.743-5.639-2.303-8.743-9.35-8.743-19.844 0-18.645 9.427-42.907 21.462-55.236 8.362-8.568 14.634-7.795 17.626-6.573 5.64 2.302 8.743 9.35 8.743 19.843 0 18.645-9.426 42.907-21.46 55.236-5.657 5.795-10.357 7.317-13.732 7.317z" transform="translate(105)"/>
            <path fill="#F2E5CF" d="M179.81 147.706l-21.706 2.311-.439 3.582 20.47.299c.962-1.78 1.546-3.875 1.662-5.962l.012-.23" transform="translate(105)"/>
            <path fill="#F3EAD7" d="M154.122 160.024c0 5.506 2.974 7.029 6.643 3.4 3.669-3.627 6.644-11.032 6.644-16.537 0-5.506-2.975-7.029-6.644-3.401-3.669 3.627-6.643 11.032-6.643 16.538" transform="translate(105)"/>
            <path fill="#F9EFEB" d="M155.008 160.422c0 5.098 2.776 6.508 6.2 3.149 3.425-3.359 6.2-10.215 6.2-15.313 0-5.098-2.775-6.508-6.2-3.15-3.424 3.36-6.2 10.215-6.2 15.314" transform="translate(105)"/>
            <path fill="#FAF2E5" d="M162.094 185.541c3.325-4.211 6.098-8.72 8.552-13.406 2.455-4.683 4.556-9.546 6.352-14.521l1.288-3.752 1.137-3.802c.331-1.278.702-2.552 1.003-3.84.268-1.293.606-2.579.819-3.884.208-1.305.486-2.606.609-3.922l.233-1.972c.075-.658.085-1.32.137-1.979.22-2.645.222-5.29.1-7.97l.085-.014c.37 1.297.6 2.632.75 3.974.174 1.343.204 2.694.19 4.044-.005.675.013 1.353-.024 2.026l-.126 2.021c-.052 1.354-.26 2.687-.4 4.032-.144 1.345-.414 2.668-.616 4.006-.235 1.33-.539 2.647-.807 3.974-.303 1.317-.678 2.616-1.015 3.926l-1.199 3.876c-1.735 5.124-3.95 10.097-6.69 14.777-2.755 4.654-6.055 9.08-10.175 12.604l-.203-.198M170.066 116.75c-2.624 1.425-4.801 3.437-6.771 5.587-1.923 2.204-3.71 4.506-5.289 6.958-3.21 4.862-5.771 10.119-7.997 15.484-2.165 5.39-4.023 10.915-5.299 16.577-.312 1.415-.667 2.827-.887 4.26l-.39 2.144-.29 2.157c-.367 2.88-.612 5.788-.554 8.72l-.257.026c-.278-1.452-.448-2.928-.536-4.407l-.051-2.221-.024-1.114.05-1.11.107-2.226c.063-.738.141-1.476.226-2.214.138-1.48.41-2.94.643-4.407 1.061-5.846 2.844-11.552 5.171-17.025l.878-2.05.958-2.017c.612-1.356 1.363-2.649 2.06-3.964.707-1.31 1.512-2.571 2.27-3.853l1.258-1.855c.415-.62.834-1.237 1.299-1.825l1.355-1.787c.467-.584.978-1.136 1.463-1.705.95-1.154 2.06-2.181 3.115-3.239 2.208-2.012 4.675-3.855 7.492-4.894" transform="translate(105)"/>
            <path fill="#938E80" d="M180.695 71.642L179.91 72.128 129.321 103.483 134.187 98.528 179.867 72.118 180.695 71.642" transform="translate(105)"/>
            <path fill="#D4CCBC" d="M120.463 171.701c0 3.073-2.577 4.92-5.758 4.123-3.18-.795-5.757-3.931-5.757-7.004 0-3.073 2.578-4.92 5.757-4.124 3.181.796 5.758 3.932 5.758 7.005" transform="translate(105)"/>
            <path fill="#D4CCBC" d="M118.692 175.766L110.603 183.97 101.862 174.397 109.856 166.28 118.692 175.766" transform="translate(105)"/>
            <path fill="#D4CCBC" d="M120.463 188.506c0 3.073-2.577 4.92-5.758 4.123-3.18-.795-5.757-3.932-5.757-7.004 0-3.074 2.578-4.92 5.757-4.124 3.181.796 5.758 3.932 5.758 7.005" transform="translate(105)"/>
            <path fill="#D4CCBC" d="M118.692 191.719L110.583 199.89 101.862 190.263 109.848 182.201 118.692 191.719" transform="translate(105)"/>
            <path fill="#F2E5CF" d="M114.888 184.854l-5.054 5.72s1.458.92 1.908 2.24l5.178-5.869s-.56-1.584-2.032-2.09" transform="translate(105)"/>
            <path fill="#B9B5A8" d="M112.491 180.546c0 3.073-2.577 4.919-5.757 4.123-3.18-.795-5.757-3.931-5.757-7.005 0-3.073 2.578-4.919 5.757-4.123 3.18.795 5.757 3.931 5.757 7.005" transform="translate(105)"/>
            <path fill="#A3A08F" d="M111.606 180.546c0 3.073-2.38 4.919-5.315 4.123-2.935-.795-5.314-3.931-5.314-7.005 0-3.073 2.379-4.919 5.314-4.123 2.935.795 5.315 3.932 5.315 7.005" transform="translate(105)"/>
            <path fill="#B9B5A8" d="M112.491 196.466c0 3.073-2.577 4.92-5.757 4.124-3.18-.796-5.757-3.932-5.757-7.005s2.578-4.92 5.757-4.124c3.18.796 5.757 3.932 5.757 7.005" transform="translate(105)"/>
            <path fill="#A3A08F" d="M111.606 197.351c0 3.073-2.38 4.92-5.315 4.123-2.935-.796-5.314-3.932-5.314-7.005s2.379-4.919 5.314-4.123c2.935.795 5.315 3.932 5.315 7.005" transform="translate(105)"/>
            <path fill="#F2E5CF" d="M114.888 168.05l-5.054 5.72s1.458.92 1.908 2.24l5.178-5.87s-.56-1.584-2.032-2.09" transform="translate(105)"/>
        </g>
        <path fill="#D4AD56" d="M29 209.007c0 .237-.031.474-.09.71l-.307.034-.02.066c-.054.184-.128.366-.222.545-.057.116-.123.23-.2.34l-.04.064.24.116c-.306.428-.734.838-1.263 1.213l-.296-.055-.076.05c-.18.122-.367.235-.553.341-.186.101-.385.205-.6.3l-.01.005-.095.043.105.167c-.678.295-1.417.527-2.188.698l-.206-.13-.116.022c-.513.106-1.047.185-1.59.235l-.118.01-.06.171c-.842.066-1.692.063-2.532-.004l-.062-.172-.121-.01c-.543-.053-1.077-.131-1.593-.24l-.113-.023-.206.129c-.774-.174-1.515-.406-2.197-.704l.103-.167-.095-.042-.008-.003c-.216-.1-.419-.205-.605-.307-.188-.104-.374-.22-.555-.342l-.079-.052-.293.055c-.537-.378-.967-.787-1.28-1.216l.24-.118-.042-.064c-.074-.108-.139-.217-.197-.328-.099-.181-.176-.368-.233-.557l-.021-.066-.309-.035-.026-.121c-.034-.147-.055-.29-.066-.436-.005-.117-.008-.233 0-.352.01-.166.034-.333.076-.497h.008l.309-.035-.028-.786c.089-.302.277.12.469-.165l.041-.063-.238-.114c.31-.429.723-.84 1.255-1.218l.301.058.076-.05c.18-.122.367-.235.554-.34.187-.105.393-.208.61-.307l.094-.043-.102-.164c.678-.297 1.412-.532 2.185-.704l.207.134.115-.023c.514-.106 1.048-.184 1.59-.234l.119-.01.06-.17c.84-.062 1.692-.062 2.533.006l.06.169.121.01c.543.053 1.078.134 1.594.24l.112.022.207-.131c.775.174 1.512.411 2.193.709l-.1.164.095.043c.22.103.427.207.613.31.186.103.375.22.555.34l.079.054.301-.058c.535.378.954.792 1.268 1.221l-.235.116.042.063c.193.285.338-.05.43.254l.02.066.317.667c.06.229.089.464.089.696"/>
        <path fill="#EEBE57" d="M12.52 206.087L12.52 207.992 12.001 208.686 12 210.685 12.295 210.721 12.295 208.721 13.391 209.702 13.757 211.098 13.757 213.097 14.038 213.041 14.038 210.818 17.317 212.677 17.316 214.676 17.513 214.546 17.513 212.359 19.256 212.822 19.256 214.821 19.316 214.995 19.316 212.806 21.731 213.001 21.732 215 21.789 214.826 21.789 212.626 23.528 212.556 23.53 214.556 23.727 214.689 23.727 212.519 26.987 211.065 26.988 213.066 27.27 213.122 27.27 210.544 28.707 208.752 28.706 210.752 29 210.716 29 208.468 28.441 207.049 28.441 206.117 28.227 206.232 25.771 204.456 25.771 204.02 25.32 204.195 15.277 204.166 15.18 204 15.18 204.53 12.52 206.087"/>
        <path fill="#E5B856" d="M12.436 208l.128.665-.001 2.335c-.047-.173-.112-.486-.127-.658V208M14 209l1 .155V213c-.42-.474-.756-.985-1-1.523V209M16 212l2 .79V215c-.705-.194-1.38-.455-2-.787V212M19 213l3 .003v1.95c-.997.065-2.005.062-3-.005V213M23 212.783l2-.783v2.217c-.62.33-1.296.59-2 .783v-2.217M27 211.52l1-1.52v2.48c-.243.536-.58 1.05-1 1.52v-2.48M29.561 208v2.218c0 .262-.043.523-.122.782v-2.177l.122-.823"/>
        <path fill="#EEBE57" d="M28.911 207.311l-.316-.035-.02-.067c-.092-.301-.237-.6-.43-.885l-.044-.064.237-.114c-.314-.43-.732-.842-1.269-1.222l-.301.057-.078-.052c-.182-.122-.369-.236-.556-.34-.187-.104-.394-.208-.613-.31l-.093-.043.1-.164c-.682-.298-1.42-.536-2.193-.71l-.208.133-.114-.024c-.514-.107-1.052-.188-1.593-.24l-.12-.01-.061-.17c-.84-.067-1.693-.068-2.533-.003l-.059.167-.12.011c-.543.05-1.077.129-1.59.234l-.113.023-.21-.132c-.772.171-1.507.406-2.185.701l.102.164-.094.044c-.217.1-.422.203-.609.307-.186.104-.372.218-.552.339l-.077.051-.302-.057c-.533.377-.947.787-1.255 1.216l.237.116-.041.063c-.19.285-.331.583-.421.885l-.02.066-.315.034c-.117.466-.106.94.016 1.406l.308.034.02.067c.092.301.237.6.43.886l.044.063-.241.117c.313.43.743.84 1.279 1.218l.294-.056.079.053c.18.121.368.236.556.34.188.104.393.209.612.31l.094.043-.1.166c.68.298 1.421.532 2.195.706l.206-.131.113.024c.516.107 1.052.188 1.593.239l.12.011.062.173c.841.067 1.692.068 2.532.004l.06-.172.12-.011c.543-.05 1.077-.128 1.59-.233l.113-.023.208.13c.772-.17 1.51-.402 2.188-.698l-.103-.166.093-.043c.218-.1.423-.204.61-.307.186-.104.372-.218.553-.34l.076-.05.295.056c.532-.377.958-.785 1.266-1.214l-.241-.117.04-.064c.19-.284.332-.582.421-.884l.02-.066.307-.033c.117-.467.122-.94.001-1.406"/>
        <path fill="#FAE177" d="M20.554 213c-.38 0-.763-.015-1.14-.045l-.059-.175-.204-.021c-.514-.052-1.024-.134-1.513-.243l-.166-.038-.196.134c-.676-.166-1.308-.38-1.884-.639l.094-.167-.225-.11c-.206-.103-.4-.208-.579-.314-.177-.106-.354-.222-.524-.344l-.123-.088-.28.056c-.428-.33-.78-.682-1.053-1.049l.223-.115-.125-.199c-.179-.282-.312-.576-.396-.874l-.046-.159-.29-.034c-.085-.402-.09-.8-.014-1.186l.296-.035.045-.16c.082-.296.212-.59.387-.872l.122-.198-.22-.115c.274-.377.62-.728 1.03-1.047l.288.06.123-.09c.17-.122.345-.237.52-.34.176-.106.37-.21.575-.312l.227-.111-.096-.165c.582-.26 1.21-.474 1.872-.634l.2.135.166-.036c.488-.107.996-.188 1.51-.238l.205-.02.056-.171c.358-.027.724-.041 1.085-.041.38 0 .765.015 1.143.045l.058.171.203.021c.514.052 1.024.134 1.514.243l.165.038.199-.135c.664.163 1.296.379 1.88.642l-.093.165.225.111c.208.103.403.208.58.313.175.105.352.22.523.344l.123.088.287-.057c.415.32.764.673 1.043 1.052l-.22.114.126.198c.178.283.31.577.396.874l.046.159.297.036c.08.386.08.784-.002 1.185l-.288.034-.045.16c-.081.297-.212.59-.387.872l-.122.198.223.116c-.267.366-.616.716-1.04 1.045l-.281-.058-.123.088c-.17.123-.345.237-.52.342-.174.104-.369.209-.575.311l-.226.112.096.166c-.572.256-1.202.468-1.875.631l-.198-.134-.165.036c-.488.108-.996.187-1.511.238l-.204.02-.057.175c-.36.027-.724.041-1.086.041"/>
        <path fill="#D4AD56" d="M24.82 210.838c-2.92 1.556-7.668 1.549-10.607-.018-2.937-1.568-2.953-4.1-.033-5.657 2.92-1.558 7.668-1.55 10.607.018 2.937 1.566 2.953 4.1.033 5.657"/>
        <path fill="#F3D06A" d="M24.965 210.838c-2.725 1.556-7.157 1.548-9.9-.018-2.741-1.567-2.755-4.1-.03-5.657 2.725-1.557 7.157-1.55 9.9.017 2.741 1.568 2.755 4.1.03 5.658"/>
        <path fill="#D4AD56" d="M20.495 210.453c-.953.482-2.301.413-3.485-.052l-1.184.599-.826-.417v-.877l1.177.282c-.702-.447-1.112-.998-1.173-1.515v-.877l1.404.64c.07.571.538 1.135 1.164 1.451.626.317 1.232.389 1.638.184 1.21-.612-2.612-1.85-.549-2.892.887-.449 2.04-.979 3.366.051l.92-.78 1.034-.25v.877l-1.12.566c.55.342.965-.075 1.139.301v.878l-1.412.258c-.252-.504-.737-.942-1.187-1.17-.527-.266-1.058-.342-1.415-.163-1.177.596 2.597 1.859.509 2.906"/>
        <path fill="#FAE177" d="M20.495 209.396c-.953.532-2.301.456-3.485-.056l-1.184.66-.826-.46 1.177-.656c-.702-.492-1.112-1.1-1.173-1.67l1.404-.262c.07.631.538 1.252 1.164 1.6.626.35 1.232.429 1.638.203 1.21-.675-2.612-2.038-.549-3.189.887-.494 2.175-.46 3.366.057l1.12-.623.834.455-1.12.624c.577.395.978.867 1.139 1.299l-1.412.285c-.252-.557-.737-1.04-1.187-1.29-.527-.293-1.058-.378-1.415-.18-1.177.657 2.597 2.05.509 3.203"/>
        <path fill="#D4AD56" d="M29 208.007c0 .237-.031.475-.09.71l-.307.035-.02.065c-.054.184-.128.366-.222.545-.057.116-.123.23-.2.34l-.04.064.24.116c-.306.429-.734.837-1.263 1.214l-.296-.056-.076.05c-.18.122-.367.235-.553.34-.186.102-.385.205-.6.301l-.01.006-.095.042.105.167c-.678.295-1.417.527-2.188.699l-.206-.131-.116.022c-.513.106-1.047.184-1.59.235l-.118.01-.06.171c-.842.066-1.692.064-2.532-.005l-.062-.17-.121-.011c-.543-.053-1.077-.132-1.593-.24l-.113-.023-.206.129c-.774-.174-1.515-.406-2.197-.704l.103-.166-.095-.044-.008-.002c-.216-.1-.419-.204-.605-.308-.188-.103-.374-.22-.555-.34l-.079-.053-.293.056c-.537-.38-.967-.788-1.28-1.217l.24-.118-.042-.064c-.074-.108-.139-.216-.197-.327-.099-.183-.176-.369-.233-.558l-.021-.066-.309-.035-.026-.121c-.034-.146-.055-.29-.066-.437-.005-.115-.008-.231 0-.35.01-.167.034-.333.076-.497h.008l.309-.036-.028-.785c.089-.303.277.12.469-.166l.041-.063-.238-.113c.31-.43.723-.841 1.255-1.22l.301.059.076-.05c.18-.121.367-.235.554-.339.187-.106.393-.21.61-.308l.094-.043-.102-.163c.678-.298 1.412-.533 2.185-.704l.207.133.115-.023c.514-.105 1.048-.183 1.59-.234l.119-.01.06-.169c.84-.063 1.692-.063 2.533.005l.06.169.121.01c.543.053 1.078.134 1.594.24l.112.022.207-.131c.775.174 1.512.411 2.193.71l-.1.163.095.043c.22.103.427.207.613.31.186.104.375.22.555.341l.079.053.301-.058c.535.378.954.792 1.268 1.22l-.235.117.042.063c.193.285.338-.05.43.254l.02.065.317.668c.06.23.089.464.089.696"/>
        <path fill="#EEBE57" d="M12.52 204.087L12.52 205.991 12.001 206.686 12 208.686 12.295 208.721 12.295 206.721 13.391 207.702 13.757 209.098 13.757 211.097 14.038 211.041 14.038 208.818 17.317 210.677 17.316 212.676 17.513 212.546 17.513 210.36 19.256 210.822 19.256 212.822 19.316 212.995 19.316 210.806 21.731 211 21.732 213 21.789 212.827 21.789 210.625 23.528 210.556 23.53 212.557 23.727 212.689 23.727 210.52 26.987 209.065 26.988 211.066 27.27 211.123 27.27 208.543 28.707 206.751 28.706 208.752 29 208.716 29 206.469 28.441 205.05 28.441 204.116 28.227 204.232 25.771 202.456 25.771 202.019 25.32 202.195 15.277 202.166 15.18 202 15.18 202.53 12.52 204.087"/>
        <path fill="#E5B856" d="M12.436 205l.128.666-.001 2.334c-.047-.173-.112-.485-.127-.659V205M14 207l1 .156V211c-.42-.475-.756-.986-1-1.523V207M16 210l2 .79V213c-.705-.194-1.38-.454-2-.787V210M19 211l3 .002v1.95c-.997.066-2.005.063-3-.004V211M23 210.783l2-.783v2.217c-.62.33-1.296.59-2 .783v-2.217M27 208.521L28 207v2.48c-.243.537-.58 1.048-1 1.52v-2.479M29.561 205v2.218c0 .262-.043.523-.122.782v-2.177l.122-.823"/>
        <path fill="#EEBE57" d="M28.911 205.311l-.316-.035-.02-.067c-.092-.301-.237-.6-.43-.886l-.044-.063.237-.115c-.314-.43-.732-.842-1.269-1.221l-.301.057-.078-.052c-.182-.122-.369-.237-.556-.34-.187-.105-.394-.209-.613-.31l-.093-.044.1-.164c-.682-.297-1.42-.534-2.193-.709l-.208.133-.114-.025c-.514-.107-1.052-.187-1.593-.239l-.12-.011-.061-.168c-.84-.068-1.693-.07-2.533-.005l-.059.168-.12.012c-.543.05-1.077.127-1.59.233l-.113.023-.21-.133c-.772.172-1.507.406-2.185.703l.102.164-.094.042c-.217.1-.422.204-.609.307-.186.104-.372.218-.552.34l-.077.051-.302-.058c-.533.378-.947.788-1.255 1.217l.237.116-.041.063c-.19.285-.331.583-.421.884l-.02.067-.315.034c-.117.466-.106.94.016 1.407l.308.034.02.067c.092.3.237.599.43.885l.044.064-.241.116c.313.43.743.84 1.279 1.218l.294-.055.079.052c.18.122.368.236.556.34.188.105.393.21.612.31l.094.043-.1.166c.68.298 1.421.532 2.195.706l.206-.13.113.023c.516.108 1.052.188 1.593.24l.12.01.062.173c.841.067 1.692.068 2.532.004l.06-.171.12-.011c.543-.05 1.077-.129 1.59-.234l.113-.023.208.13c.772-.17 1.51-.402 2.188-.697l-.103-.167.093-.043c.218-.1.423-.204.61-.307.186-.104.372-.218.553-.339l.076-.052.295.057c.532-.377.958-.785 1.266-1.214l-.241-.117.04-.063c.19-.286.332-.583.421-.885l.02-.066.307-.034c.117-.466.122-.939.001-1.406"/>
        <path fill="#FAE177" d="M20.554 211c-.38 0-.763-.015-1.14-.045l-.059-.175-.204-.02c-.514-.053-1.024-.135-1.513-.244l-.166-.037-.196.133c-.676-.166-1.308-.38-1.884-.639l.094-.167-.225-.11c-.206-.103-.4-.208-.579-.314-.177-.106-.354-.221-.524-.344l-.123-.088-.28.056c-.428-.33-.78-.681-1.053-1.048l.223-.116-.125-.199c-.179-.282-.312-.576-.396-.874l-.046-.158-.29-.035c-.085-.402-.09-.8-.014-1.186l.296-.035.045-.159c.082-.297.212-.59.387-.872l.122-.199-.22-.115c.274-.376.62-.728 1.03-1.047l.288.06.123-.088c.17-.123.345-.238.52-.342.176-.105.37-.21.575-.312l.227-.111-.096-.165c.582-.26 1.21-.473 1.872-.634l.2.135.166-.036c.488-.107.996-.187 1.51-.237l.205-.021.056-.171c.358-.027.724-.041 1.085-.041.38 0 .765.015 1.143.045l.058.172.203.02c.514.052 1.024.135 1.514.244l.165.037.199-.135c.664.163 1.296.38 1.88.642l-.093.165.225.111c.208.103.403.209.58.313.175.105.352.22.523.344l.123.089.287-.058c.415.32.764.674 1.043 1.052l-.22.114.126.198c.178.283.31.577.396.874l.046.16.297.035c.08.386.08.784-.002 1.186l-.288.033-.045.16c-.081.297-.212.59-.387.873l-.122.198.223.116c-.267.366-.616.715-1.04 1.044l-.281-.058-.123.088c-.17.123-.345.237-.52.342-.174.104-.369.209-.575.311l-.226.112.096.166c-.572.257-1.202.468-1.875.631l-.198-.134-.165.037c-.488.107-.996.186-1.511.237l-.204.02-.057.175c-.36.027-.724.041-1.086.041"/>
        <path fill="#D4AD56" d="M24.82 208.692c-2.92 1.752-7.668 1.743-10.607-.02-2.937-1.763-2.953-4.612-.033-6.364 2.92-1.752 7.668-1.743 10.607.02 2.937 1.763 2.953 4.612.033 6.364"/>
        <path fill="#F3D06A" d="M24.965 208.837c-2.725 1.557-7.157 1.55-9.9-.017-2.741-1.567-2.755-4.1-.03-5.658 2.725-1.556 7.157-1.548 9.9.018 2.741 1.567 2.755 4.1.03 5.657"/>
        <path fill="#D4AD56" d="M20.495 208.453c-.953.482-2.301.412-3.485-.052l-1.184.599-.826-.418v-.877l1.177.282c-.702-.446-1.112-.998-1.173-1.515v-.877l1.404.64c.07.572.538 1.136 1.164 1.452.626.316 1.232.389 1.638.183 1.21-.611-2.612-1.849-.549-2.892.887-.449 2.04-.978 3.366.052l.92-.78 1.034-.25v.877l-1.12.566c.55.34.965-.075 1.139.3v.878l-1.412.259c-.252-.505-.737-.943-1.187-1.17-.527-.266-1.058-.343-1.415-.163-1.177.595 2.597 1.858.509 2.906"/>
        <path fill="#FAE177" d="M20.495 207.397c-.953.531-2.301.454-3.485-.057l-1.184.66-.826-.46 1.177-.656c-.702-.492-1.112-1.1-1.173-1.67l1.404-.262c.07.63.538 1.252 1.164 1.601.626.348 1.232.428 1.638.202 1.21-.674-2.612-2.039-.549-3.189.887-.494 2.175-.46 3.366.057l1.12-.623.834.455-1.12.624c.577.394.978.867 1.139 1.298l-1.412.286c-.252-.556-.737-1.04-1.187-1.29-.527-.293-1.058-.378-1.415-.179-1.177.656 2.597 2.048.509 3.203"/>
        <path fill="#D4AD56" d="M29 206.007c0 .238-.031.474-.09.709l-.307.035-.02.066c-.054.184-.128.366-.222.545-.057.116-.123.23-.2.34l-.04.064.24.116c-.306.428-.734.838-1.263 1.213l-.296-.055-.076.05c-.18.121-.367.235-.553.341-.186.1-.385.204-.6.3l-.01.005-.095.043.105.167c-.678.295-1.417.527-2.188.698l-.206-.13-.116.022c-.513.106-1.047.184-1.59.235l-.118.01-.06.171c-.842.066-1.692.063-2.532-.004l-.062-.172-.121-.01c-.543-.054-1.077-.132-1.593-.24l-.113-.023-.206.129c-.774-.175-1.515-.406-2.197-.704l.103-.167-.095-.042-.008-.003c-.216-.101-.419-.205-.605-.308-.188-.103-.374-.22-.555-.34l-.079-.053-.293.055c-.537-.378-.967-.787-1.28-1.216l.24-.119-.042-.063c-.074-.108-.139-.217-.197-.328-.099-.181-.176-.368-.233-.558l-.021-.065-.309-.035-.026-.121c-.034-.147-.055-.29-.066-.437-.005-.116-.008-.232 0-.35.01-.167.034-.334.076-.498h.008l.309-.035-.028-.786c.089-.302.277.12.469-.165l.041-.063-.238-.114c.31-.429.723-.84 1.255-1.218l.301.058.076-.05c.18-.122.367-.236.554-.34.187-.105.393-.209.61-.306l.094-.044-.102-.164c.678-.297 1.412-.532 2.185-.703l.207.133.115-.022c.514-.107 1.048-.185 1.59-.235l.119-.01.06-.17c.84-.062 1.692-.062 2.533.005l.06.17.121.01c.543.053 1.078.134 1.594.24l.112.022.207-.13c.775.173 1.512.41 2.193.708l-.1.164.095.043c.22.103.427.207.613.31.186.103.375.22.555.34l.079.054.301-.058c.535.378.954.792 1.268 1.221l-.235.116.042.064c.193.284.338-.05.43.253l.02.066.317.666c.06.23.089.465.089.697"/>
        <path fill="#EEBE57" d="M12.52 201.087L12.52 202.992 12.001 203.686 12 205.685 12.295 205.721 12.295 203.721 13.391 204.702 13.757 206.097 13.757 208.097 14.038 208.041 14.038 205.818 17.317 207.677 17.316 209.676 17.513 209.546 17.513 207.359 19.256 207.822 19.256 209.821 19.316 209.995 19.316 207.806 21.731 208.001 21.732 210 21.789 209.826 21.789 207.626 23.528 207.556 23.53 209.556 23.727 209.689 23.727 207.519 26.987 206.065 26.988 208.066 27.27 208.122 27.27 205.544 28.707 203.751 28.706 205.752 29 205.716 29 203.468 28.441 202.049 28.441 201.117 28.227 201.232 25.771 199.456 25.771 199.02 25.32 199.195 15.277 199.166 15.18 199 15.18 199.53 12.52 201.087"/>
        <path fill="#E5B856" d="M12.436 203l.128.665-.001 2.335c-.047-.173-.112-.486-.127-.659V203M14 205l1 .155V209c-.42-.474-.756-.986-1-1.523V205M16 207l2 .79V210c-.705-.195-1.38-.454-2-.787V207M19 209l3 .003v1.95c-.997.065-2.005.062-3-.005V209M23 207.783l2-.783v2.217c-.62.33-1.296.59-2 .783v-2.217M27 206.52l1-1.52v2.48c-.243.536-.58 1.05-1 1.52v-2.48M29.561 203v2.219c0 .262-.043.522-.122.781v-2.177l.122-.823"/>
        <path fill="#EEBE57" d="M28.911 202.312l-.316-.036-.02-.067c-.092-.301-.237-.6-.43-.885l-.044-.064.237-.114c-.314-.431-.732-.843-1.269-1.222l-.301.057-.078-.052c-.182-.123-.369-.237-.556-.341-.187-.103-.394-.207-.613-.31l-.093-.042.1-.164c-.682-.298-1.42-.536-2.193-.71l-.208.133-.114-.024c-.514-.108-1.052-.188-1.593-.24l-.12-.01-.061-.169c-.84-.068-1.693-.07-2.533-.005l-.059.168-.12.012c-.543.05-1.077.128-1.59.233l-.113.023-.21-.132c-.772.17-1.507.406-2.185.701l.102.165-.094.043c-.217.1-.422.203-.609.307-.186.103-.372.218-.552.339l-.077.051-.302-.057c-.533.376-.947.787-1.255 1.216l.237.115-.041.064c-.19.285-.331.583-.421.885l-.02.066-.315.034c-.117.467-.106.94.016 1.406l.308.035.02.067c.092.301.237.599.43.886l.044.062-.241.117c.313.43.743.84 1.279 1.218l.294-.056.079.053c.18.121.368.236.556.34.188.105.393.209.612.31l.094.043-.1.166c.68.298 1.421.532 2.195.706l.206-.131.113.024c.516.107 1.052.187 1.593.24l.12.01.062.172c.841.068 1.692.07 2.532.005l.06-.172.12-.011c.543-.05 1.077-.128 1.59-.234l.113-.023.208.132c.772-.172 1.51-.404 2.188-.699l-.103-.166.093-.043c.218-.1.423-.203.61-.308.186-.103.372-.217.553-.338l.076-.052.295.057c.532-.377.958-.785 1.266-1.214l-.241-.117.04-.064c.19-.284.332-.582.421-.883l.02-.067.307-.033c.117-.467.122-.94.001-1.406"/>
        <path fill="#FAE177" d="M20.554 208c-.38 0-.763-.016-1.14-.045l-.059-.175-.204-.021c-.514-.053-1.024-.134-1.513-.244l-.166-.037-.196.134c-.676-.166-1.308-.38-1.884-.639l.094-.167-.225-.11c-.206-.103-.4-.208-.579-.315-.177-.105-.354-.22-.524-.343l-.123-.088-.28.056c-.428-.33-.78-.682-1.053-1.049l.223-.115-.125-.199c-.179-.282-.312-.577-.396-.873l-.046-.16-.29-.034c-.085-.402-.09-.8-.014-1.186l.296-.035.045-.16c.082-.297.212-.59.387-.872l.122-.198-.22-.114c.274-.377.62-.728 1.03-1.047l.288.058.123-.087c.17-.123.345-.238.52-.342.176-.105.37-.21.575-.311l.227-.112-.096-.165c.582-.26 1.21-.473 1.872-.634l.2.136.166-.037c.488-.107.996-.187 1.51-.237l.205-.02.056-.172c.358-.027.724-.041 1.085-.041.38 0 .765.016 1.143.046l.058.17.203.022c.514.052 1.024.134 1.514.243l.165.037.199-.135c.664.164 1.296.38 1.88.642l-.093.166.225.11c.208.104.403.208.58.314.175.104.352.22.523.344l.123.088.287-.058c.415.32.764.674 1.043 1.052l-.22.114.126.198c.178.283.31.577.396.874l.046.159.297.036c.08.386.08.784-.002 1.185l-.288.034-.045.16c-.081.297-.212.59-.387.872l-.122.198.223.117c-.267.365-.616.716-1.04 1.044l-.281-.058-.123.088c-.17.123-.345.238-.52.342-.174.104-.369.209-.575.31l-.226.113.096.166c-.572.256-1.202.468-1.875.631l-.198-.135-.165.037c-.488.108-.996.187-1.511.238l-.204.02-.057.174c-.36.028-.724.042-1.086.042"/>
        <path fill="#D4AD56" d="M24.82 205.837c-2.92 1.557-7.668 1.55-10.607-.017-2.937-1.567-2.953-4.1-.033-5.657 2.92-1.558 7.668-1.55 10.607.018 2.937 1.566 2.953 4.1.033 5.656"/>
        <path fill="#F3D06A" d="M24.965 206.838c-2.725 1.556-7.157 1.548-9.9-.018-2.741-1.567-2.755-4.1-.03-5.657 2.725-1.557 7.157-1.55 9.9.017 2.741 1.568 2.755 4.1.03 5.658"/>
        <path fill="#D4AD56" d="M20.495 205.453c-.953.482-2.301.413-3.485-.052l-1.184.599-.826-.418v-.877l1.177.283c-.702-.447-1.112-.998-1.173-1.515v-.877l1.404.64c.07.572.538 1.135 1.164 1.451.626.316 1.232.389 1.638.184 1.21-.612-2.612-1.85-.549-2.892.887-.449 2.04-.979 3.366.051l.92-.78 1.034-.25v.877l-1.12.566c.55.342.965-.075 1.139.301v.878l-1.412.258c-.252-.505-.737-.942-1.187-1.17-.527-.266-1.058-.343-1.415-.163-1.177.596 2.597 1.859.509 2.906"/>
        <path fill="#FAE177" d="M20.495 205.397c-.953.531-2.301.455-3.485-.057l-1.184.66-.826-.46 1.177-.656c-.702-.492-1.112-1.1-1.173-1.67l1.404-.261c.07.63.538 1.252 1.164 1.6.626.348 1.232.428 1.638.202 1.21-.674-2.612-2.038-.549-3.188.887-.494 2.175-.46 3.366.056l1.12-.623.834.455-1.12.624c.577.395.978.867 1.139 1.3l-1.412.284c-.252-.556-.737-1.039-1.187-1.29-.527-.293-1.058-.377-1.415-.179-1.177.656 2.597 2.048.509 3.203"/>
        <path fill="#D4AD56" d="M15 227.006c0 .19-.026.38-.075.567l-.256.028-.016.052c-.045.148-.107.293-.185.437-.048.093-.104.183-.167.272l-.035.051.202.093c-.256.343-.612.67-1.053.97l-.247-.044-.063.04c-.15.097-.305.188-.461.273-.155.08-.32.163-.5.24l-.008.004-.079.034.087.134c-.565.236-1.181.421-1.823.558l-.173-.104-.096.018c-.427.084-.873.147-1.325.188l-.098.007-.05.138c-.701.052-1.411.05-2.11-.004l-.053-.137-.1-.009c-.451-.042-.897-.104-1.327-.192l-.094-.017-.172.103c-.644-.14-1.263-.325-1.83-.563l.085-.134-.079-.034-.006-.002c-.181-.08-.35-.164-.505-.246-.157-.083-.312-.176-.462-.273l-.066-.042-.245.044c-.447-.302-.806-.63-1.066-.973l.2-.095-.035-.05c-.062-.087-.116-.174-.165-.262-.082-.146-.146-.295-.194-.447l-.017-.052-.258-.028-.022-.097c-.028-.117-.045-.232-.054-.349-.004-.093-.007-.186 0-.281.009-.133.028-.266.063-.398h.007l.257-.028-.023-.628c.074-.243.23.095.39-.132l.035-.051-.199-.091c.258-.343.603-.672 1.046-.975l.251.046.064-.04c.15-.097.305-.187.46-.27.157-.085.328-.168.509-.246l.079-.035-.085-.131c.565-.238 1.177-.426 1.82-.563l.174.107.095-.019c.429-.084.873-.146 1.326-.187l.099-.008.049-.136c.701-.05 1.41-.05 2.111.005l.051.135.1.008c.452.042.898.107 1.328.192l.094.018.172-.105c.646.139 1.26.33 1.828.567l-.083.131.08.035c.182.083.354.165.51.248.155.083.312.176.462.273l.066.042.251-.047c.446.303.795.634 1.057.977l-.197.093.036.05c.161.229.281-.039.357.204l.018.052.263.534c.051.183.075.37.075.557"/>
        <path fill="#EEBE57" d="M1.429 223.707L1.429 225.266 1.001 225.834 1 227.47 1.243 227.499 1.243 225.863 2.146 226.665 2.447 227.807 2.448 229.442 2.678 229.397 2.678 227.578 5.379 229.099 5.378 230.735 5.541 230.629 5.541 228.84 6.976 229.218 6.975 230.854 7.025 230.996 7.025 229.205 9.013 229.364 9.015 231 9.062 230.858 9.062 229.057 10.494 229 10.494 230.637 10.658 230.745 10.658 228.97 13.343 227.781 13.343 229.418 13.575 229.463 13.575 227.353 14.758 225.887 14.758 227.524 15 227.495 15 225.656 14.54 224.495 14.54 223.731 14.364 223.827 12.341 222.373 12.34 222.016 11.97 222.159 3.699 222.136 3.618 222 3.618 222.433 1.429 223.707"/>
        <path fill="#E5B856" d="M.45 225l.1.444V227c-.038-.115-.09-.324-.1-.438V225M1 226l1 .116V229c-.42-.355-.756-.74-1-1.142V226M3 228l2 .527V230c-.704-.13-1.38-.303-2-.525V228M6 229l2 .003v1.95c-.665.064-1.338.063-2-.005V229M10 228.522l2-.522v1.478c-.62.22-1.296.394-2 .522v-1.478M13 227.14l1-1.14v1.86c-.243.403-.581.787-1 1.14v-1.86M14.549 225v1.48c0 .173-.034.348-.098.52v-1.451l.098-.549"/>
        <path fill="#EEBE57" d="M14.926 224.449l-.263-.028-.018-.054c-.076-.24-.197-.48-.358-.708l-.035-.05.196-.093c-.261-.344-.61-.674-1.056-.977l-.252.046-.065-.042c-.152-.097-.307-.19-.463-.272-.156-.084-.328-.167-.51-.248l-.079-.035.082-.13c-.567-.239-1.181-.428-1.827-.568l-.172.106-.095-.02c-.43-.085-.876-.15-1.328-.19l-.1-.01-.051-.134c-.701-.055-1.41-.056-2.11-.004l-.05.134-.099.01c-.452.039-.899.102-1.327.186l-.094.019-.174-.106c-.644.137-1.255.324-1.821.561l.085.131-.078.035c-.181.08-.352.162-.508.245-.155.084-.31.175-.46.271l-.064.042-.252-.046c-.443.301-.788.63-1.045.973l.198.093-.035.05c-.158.228-.276.466-.35.707l-.017.054-.263.027c-.096.373-.089.752.013 1.125l.257.028.017.053c.077.241.198.48.358.709l.036.05-.2.094c.26.343.62.67 1.066.974l.245-.044.065.041c.151.098.307.189.464.273.156.083.328.166.51.247l.079.034-.085.133c.568.239 1.185.426 1.83.565l.172-.104.095.019c.43.085.876.15 1.327.19l.1.01.051.138c.7.054 1.41.055 2.11.003l.05-.137.1-.009c.452-.04.898-.103 1.325-.187l.094-.018.174.105c.644-.138 1.257-.322 1.822-.56l-.085-.132.078-.034c.181-.08.352-.163.508-.246.155-.083.31-.174.46-.271l.065-.042.245.045c.444-.301.798-.627 1.055-.97l-.201-.094.035-.05c.158-.229.275-.467.35-.708l.017-.053.255-.027c.098-.373.102-.752.001-1.125"/>
        <path fill="#FAE177" d="M8.045 229c-.313 0-.629-.012-.939-.036l-.049-.14-.167-.017c-.424-.042-.844-.107-1.247-.194l-.136-.03-.163.107c-.556-.133-1.076-.305-1.55-.511l.077-.134-.186-.089c-.17-.082-.33-.166-.477-.25-.145-.085-.29-.178-.43-.275l-.102-.071-.23.045c-.352-.264-.644-.545-.867-.839l.183-.092-.103-.16c-.147-.226-.257-.46-.326-.698l-.038-.128-.24-.027c-.07-.322-.073-.64-.011-.95l.245-.027.037-.128c.067-.237.174-.472.318-.697l.1-.16-.18-.09c.225-.302.51-.583.848-.838l.237.047.101-.07c.14-.099.285-.19.428-.274.146-.084.304-.168.475-.249l.185-.089-.078-.132c.479-.208.997-.379 1.542-.508l.164.109.137-.03c.401-.085.82-.149 1.244-.19l.168-.016.046-.136c.295-.022.596-.033.894-.033.314 0 .63.012.941.036l.048.137.167.017c.424.041.844.107 1.247.195l.137.03.162-.109c.547.131 1.067.303 1.549.514l-.077.132.186.089c.172.082.33.166.477.25.145.084.29.177.43.275l.103.071.236-.046c.341.257.63.54.858.841l-.18.092.103.159c.146.226.256.46.327.699l.037.127.245.028c.065.31.065.627 0 .95l-.239.026-.037.128c-.067.237-.174.472-.319.697l-.1.159.184.093c-.22.293-.508.572-.857.835l-.231-.046-.101.07c-.14.098-.284.19-.43.274-.143.084-.302.167-.473.25l-.186.088.08.134c-.472.204-.99.373-1.545.504l-.162-.107-.137.03c-.402.085-.82.149-1.245.19l-.168.015-.046.14c-.296.021-.597.033-.894.033"/>
        <path fill="#D4AD56" d="M12.256 227.983c-2.336 1.362-6.135 1.355-8.486-.016-2.35-1.371-2.361-3.587-.026-4.95 2.336-1.362 6.135-1.355 8.485.016 2.35 1.371 2.363 3.587.027 4.95"/>
        <path fill="#F3D06A" d="M11.401 227.128c-2.141 1.168-5.623 1.162-7.778-.013-2.155-1.175-2.165-3.075-.024-4.243 2.14-1.168 5.623-1.162 7.778.013 2.155 1.175 2.165 3.075.024 4.243"/>
        <path fill="#D4AD56" d="M8.273 227.453c-.74.481-1.789.412-2.71-.052l-.92.599-.643-.418v-.877l.915.282c-.545-.446-.864-.997-.912-1.515v-.877l1.092.64c.054.572.419 1.135.906 1.452.486.316.958.388 1.273.183.941-.611-2.03-1.849-.426-2.892.69-.449 1.587-.978 2.618.052l.716-.78.803-.25v.877l-.87.566c.426.341.75-.075.885.3v.878l-1.099.259c-.195-.505-.573-.943-.923-1.17-.41-.266-.823-.343-1.1-.163-.915.595 2.019 1.857.395 2.906"/>
        <path fill="#FAE177" d="M8.273 226.517c-.74.426-1.789.364-2.71-.045l-.92.528-.643-.368.915-.525c-.545-.393-.864-.88-.912-1.336l1.092-.209c.054.504.419 1.001.906 1.28.486.28.958.343 1.273.162.941-.54-2.03-1.63-.426-2.55.69-.397 1.691-.369 2.618.044l.87-.498.649.364-.87.499c.447.316.76.694.885 1.04l-1.099.227c-.195-.445-.573-.831-.923-1.032-.41-.234-.823-.302-1.1-.143-.915.525 2.019 1.639.395 2.562"/>
        <g transform="translate(117 270)"/>
        <path fill="#729C8A" d="M208 283c-26.921-1.075-53.553-5.396-78-12.955L157.783 254 208 283"/>
        <path fill="#95CB9C" d="M123 264.278L186.152 300 222 279.723 158.848 244 123 264.278"/>
        <path fill="#529A68" d="M122 263L185 299.675 185 314 122 277.325 122 263"/>
        <path fill="#487F57" d="M185 309.537L179 306 185 311 185 309.537M185 303.882L181 302 185 305 185 303.882M122 268L126 271 122 269.034 122 268M123 274L129 278 123 274.851 123 274M153 289s6.845 3.241 16 9c-8.515-3.617-16-9-16-9"/>
        <path fill="#415C3F" d="M185 300.733L185 315 220 294.267 220 280 185 300.733"/>
        <path fill="#487F57" d="M221 286L215 291 221 287.428 221 286M185 309.537L191 306 185 311 185 309.537M185 303.882L189 302 185 305 185 303.882M215 295s-6.845 3.241-16 9c8.636-4.01 16-9 16-9"/>
        <path fill="#996453" d="M148 292.158L160 299 160 284.842 148 278 148 292.158"/>
        <path fill="#868182" d="M150 293.167L158 298 158 283.834 150 279 150 293.167"/>
        <path fill="#6DBC82" d="M178.192 295l.877-.513c3.346-1.955 8.772-1.965 12.096-.021l.873.51 17.919-10.473-.872-.51c-3.325-1.942-3.307-5.114.038-7.069l.877-.513L164.808 250l-.877.513c-3.345 1.955-8.772 1.965-12.096.022l-.872-.51-17.92 10.473.872.51c3.325 1.942 3.308 5.114-.037 7.069l-.878.512L178.192 295"/>
        <path fill="#7AC08A" d="M134.044 260.482l16.274-9.457c3.837 2.23 10.078 2.219 13.94-.025L208 276.418c-3.862 2.244-3.881 5.87-.044 8.1l-16.274 9.457c-3.837-2.23-10.078-2.219-13.94.025L134 268.582c3.861-2.244 3.88-5.87.044-8.1"/>
        <path fill="#6DBC82" d="M159.46 265.099c-7.248 4.113-7.284 10.761-.082 14.849 7.201 4.087 18.915 4.067 26.162-.047 7.247-4.113 7.285-10.761.082-14.848-7.202-4.089-18.915-4.068-26.162.046"/>
        <path fill="#88C593" d="M159.515 265.375c-3.387 1.954-5.253 4.508-5.253 7.193 0 2.66 1.837 5.183 5.17 7.105 7.158 4.13 18.844 4.109 26.052-.047 3.387-1.954 5.253-4.51 5.253-7.195 0-2.658-1.836-5.182-5.169-7.105-7.16-4.13-18.847-4.107-26.053.049zM172.38 284c-4.927 0-9.841-1.077-13.581-3.234s-5.8-5.07-5.8-8.198c0-3.154 2.09-6.097 5.883-8.285v-.001c7.555-4.357 19.808-4.38 27.316-.048 3.741 2.158 5.801 5.069 5.801 8.197 0 3.156-2.09 6.099-5.884 8.287-3.792 2.187-8.77 3.282-13.735 3.282z"/>
        <path fill="#88C593" d="M177.484 270.208c.914-.555.536-1.38-.794-2.19-1.142-.694-3.344-1.437-5.885-1.82l1.325-2.194c1.97.241 4.13.856 5.928 1.742l2.87-1.746 2.072 1.285-2.871 1.746c2.344 1.84 2.482 3.838.207 5.222-5.296 3.221-11.48-2.686-14.584-.797-1.043.634-.687 1.574.898 2.538 1.586.965 4.423 1.681 7.306 1.779l-1.22 2.18c-2.608-.084-5.381-.711-7.624-1.79l-3.02 1.837-2.092-1.273 3.041-1.85c-2.323-1.825-2.651-3.914-.205-5.401 5.317-3.26 11.627 2.569 14.648.732"/>
        <path fill="#7AC08A" d="M212.873 279.104c.157-.112.091-.261-.118-.411-.352-.252-1.183-.528-1.86-.659l.501-1.015c.592.089 1.245.315 1.807.63l.907-.649.89.636-.925.66c.632.65.642 1.326-.038 1.81-1.484 1.06-3.266-.788-3.904-.333-.192.137-.115.32.147.509.431.306 1.407.608 2.203.653l-.484 1.012c-.725-.063-1.502-.301-2.148-.634l-.961.687-.89-.636.949-.678c-.644-.614-.803-1.328-.034-1.878 1.52-1.085 3.34.738 3.958.296M187.873 294.104c.157-.112.091-.261-.117-.411-.353-.25-1.185-.528-1.861-.659l.502-1.015c.593.089 1.244.314 1.806.629l.907-.648.89.636-.924.66c.631.65.641 1.325-.038 1.81-1.484 1.06-3.269-.788-3.905-.333-.192.137-.115.32.148.509.43.306 1.405.608 2.201.653l-.482 1.012c-.725-.064-1.504-.301-2.149-.634l-.962.687-.889-.635.949-.679c-.644-.614-.803-1.328-.034-1.878 1.52-1.086 3.34.737 3.958.296M159.874 248.103c.156-.11.09-.26-.119-.41-.352-.251-1.183-.528-1.86-.659l.501-1.015c.593.089 1.245.314 1.807.629l.907-.648.89.636-.925.66c.632.65.642 1.326-.038 1.81-1.484 1.061-3.267-.789-3.904-.334-.192.138-.115.322.147.51.431.307 1.406.608 2.203.654l-.484 1.01c-.725-.062-1.502-.3-2.148-.632l-.961.686-.89-.635.95-.678c-.645-.616-.804-1.33-.035-1.879 1.52-1.085 3.34.737 3.959.295M132.874 264.104c.155-.112.09-.262-.119-.411-.352-.252-1.183-.529-1.86-.659l.501-1.015c.592.089 1.246.314 1.806.629l.908-.648.89.635-.925.662c.632.648.642 1.324-.038 1.81-1.484 1.06-3.266-.79-3.904-.335-.192.138-.115.322.148.509.43.307 1.405.609 2.202.654l-.484 1.01c-.725-.062-1.503-.3-2.148-.632l-.961.687-.89-.636.949-.678c-.644-.615-.802-1.33-.034-1.878 1.52-1.086 3.34.737 3.959.296"/>
        <path fill="#95CB9C" d="M193 285.789L197.015 289 198 288.214 193.988 285 193 285.789"/>
        <path fill="#6DBC82" d="M190 287.787L194.018 291 195 290.213 190.986 287 190 287.787"/>
        <path fill="#F0AA7F" d="M148 278.263L159.977 285 196 264.737 184.024 258 148 278.263"/>
        <path fill="#E4D4D6" d="M150 279.247L158.555 284 195 263.753 186.445 259 150 279.247"/>
        <path fill="#95CB9C" d="M120 244.127L64.412 284 25 265.873 80.588 226 120 244.127"/>
        <path fill="#415C3F" d="M24 252L24 266.438 64 285 64 270.562 24 252"/>
        <path fill="#529A68" d="M120 231L120 245.107 64 285 64 270.893 120 231"/>
        <path fill="#487F57" d="M96 255s-6.38 5.018-15 13c7.91-5.873 15-13 15-13M64 279.829L70 277 64 281 64 279.829M63 274.255L67 273 63 275 63 274.255M120 233L116 236 120 233.854 120 233M120 239L115 244 120 239.87 120 239M25 261L30 265 25 261.943 25 261M63 279.829L57 277 63 281 63 279.829"/>
        <path fill="#487F57" d="M64 274.255L60 273 64 275 64 274.255M38 265s6.427 2.517 15 7c-8.11-3.114-15-7-15-7"/>
        <path fill="#95CB9C" d="M120 230.127L64.412 270 25 251.873 80.588 212 120 230.127"/>
        <path fill="#6DBC82" d="M70.088 263.142l-.968-.45c-3.69-1.718-9.081-1.381-12.018.75l-.77.558-19.766-9.196.77-.56c2.936-2.129 2.322-5.26-1.369-6.976l-.967-.45 39.912-28.96.968.45c3.69 1.718 9.081 1.381 12.018-.75l.77-.558 19.766 9.197-.77.558c-2.936 2.13-2.322 5.26 1.369 6.977l.967.45-39.912 28.96"/>
        <path fill="#7AC08A" d="M106.424 226.3l-17.95-8.3c-3.388 2.443-9.588 2.827-13.846.858L36 246.711c4.258 1.97 4.964 5.546 1.576 7.99L55.526 263c3.389-2.444 9.587-2.828 13.847-.86L108 234.289c-4.258-1.969-4.964-5.546-1.576-7.989"/>
        <path fill="#6DBC82" d="M84.018 233.325c7.995 3.639 9.32 10.248 2.958 14.764-6.36 4.515-17.999 5.225-25.994 1.586-7.995-3.639-9.32-10.248-2.959-14.764 6.363-4.515 18-5.225 25.995-1.586"/>
        <path fill="#88C593" d="M83.621 233.298c-7.707-3.645-18.967-2.93-25.099 1.592-6.132 4.523-4.85 11.167 2.857 14.812 7.707 3.645 18.967 2.93 25.099-1.592 6.131-4.523 4.85-11.167-2.857-14.812zm-23.267 17.16c-8.417-3.98-9.817-11.238-3.12-16.177 6.697-4.94 18.994-5.72 27.411-1.739 8.418 3.981 9.818 11.238 3.121 16.177-6.697 4.94-18.995 5.72-27.412 1.74z"/>
        <path fill="#88C593" d="M81.024 237.85c2.599 1.324 2.648 3.436.744 5.42L85 244.916l-1.78 1.414-3.21-1.635c-1.957 1.231-4.503 2.044-6.983 2.305l-1.547-2.1c2.742-.292 5.332-1.2 6.68-2.271 1.35-1.072 1.526-2.037.418-2.601-3.3-1.681-8.186 4.645-13.814 1.78-2.418-1.233-2.635-3.242-.713-5.24L61 235.013l1.758-1.425 3.051 1.554c1.566-1.008 3.526-1.768 5.368-2.142l1.652 2.106c-2.367.554-4.343 1.446-5.314 2.217-1.133.9-1.35 1.751-.378 2.246 3.209 1.635 8.23-4.623 13.887-1.72"/>
        <path fill="#7AC08A" d="M35.615 250.601c.902.492.85 1.222.272 1.891l1.113.606-.836.71-1.127-.614c-.627.385-1.409.685-2.164.806l-.675-.977c.833-.11 1.813-.49 2.217-.833.246-.209.297-.4.072-.523-.747-.407-2.327 1.593-4.067.645-.796-.433-.897-1.113-.336-1.816l-1.084-.59.835-.71 1.063.58c.542-.362 1.193-.64 1.804-.776l.695.98c-.692.186-1.524.53-1.855.81-.196.167-.24.322-.057.422.725.395 2.347-1.581 4.13-.61M64.615 263.602c.902.491.85 1.222.272 1.89l1.113.606-.835.71-1.128-.614c-.627.385-1.408.686-2.163.806l-.676-.977c.833-.11 1.813-.49 2.217-.832.246-.21.297-.4.072-.523-.747-.407-2.327 1.593-4.067.645-.796-.434-.897-1.113-.336-1.816l-1.084-.59.835-.71 1.063.58c.542-.363 1.193-.64 1.804-.777l.696.98c-.692.187-1.524.53-1.856.81-.196.167-.24.323-.057.422.725.396 2.347-1.58 4.13-.61M84.615 215.602c.902.491.852 1.221.272 1.89l1.113.606-.835.71-1.127-.614c-.628.385-1.41.686-2.164.806l-.676-.978c.834-.108 1.813-.49 2.217-.832.246-.21.297-.4.073-.523-.747-.406-2.327 1.593-4.067.646-.796-.434-.896-1.115-.336-1.817l-1.085-.59.835-.71 1.064.58c.54-.363 1.193-.64 1.804-.776l.695.98c-.692.186-1.525.53-1.855.81-.196.167-.24.323-.058.422.726.395 2.348-1.581 4.13-.61M112.615 229.602c.902.491.852 1.221.272 1.89l1.113.607-.835.71-1.128-.615c-.626.385-1.409.686-2.164.806l-.675-.978c.833-.108 1.813-.488 2.217-.832.246-.208.298-.4.072-.523-.746-.406-2.326 1.593-4.067.646-.795-.433-.896-1.114-.335-1.817l-1.085-.59.835-.71 1.063.58c.543-.362 1.193-.64 1.804-.776l.696.98c-.692.186-1.525.53-1.856.81-.195.167-.24.323-.057.423.725.394 2.348-1.582 4.13-.611"/>
        <path fill="#95CB9C" d="M51.015 260L50 259.439 53.984 256 55 256.561 51.015 260"/>
        <path fill="#6DBC82" d="M54.016 262L53 261.438 56.985 258 58 258.562 54.016 262"/>
        <path fill="#F0AA7F" d="M98 245.666L87.278 253 47 235.334 57.722 228 98 245.666"/>
        <path fill="#E4D4D6" d="M96 247.56L88.565 253 49 234.44 56.435 229 96 247.56"/>
        <path fill="#996453" d="M98 260.344L87 268 87 253.656 98 246 98 260.344"/>
        <path fill="#868182" d="M96 260.8L89 266 89 252.2 96 247 96 260.8"/>
        <path fill="#529A68" d="M123 235.35L54.894 269 22 246.546 123 221 123 235.35"/>
        <path fill="#487F57" d="M88 244s-6.807 2.81-16 8c8.441-3.08 16-8 16-8"/>
        <path fill="#95CB9C" d="M123 221.012L54.894 254 22 231.987 90.107 199 123 221.012"/>
        <path fill="#6DBC82" d="M62.61 248l-.813-.55c-3.106-2.095-8.584-2.358-12.212-.587l-.95.465L32 236.105l.95-.465c3.628-1.771 4.053-4.917.947-7.013l-.814-.55L82.39 204l.814.55c3.107 2.095 8.583 2.358 12.21.587l.951-.465L113 215.895l-.95.465c-3.628 1.771-4.052 4.917-.947 7.013l.814.549L62.61 248"/>
        <path fill="#7AC08A" d="M111 215.804l-14.915-10.131c-4.132 2.032-10.352 1.73-13.891-.673l-47.118 23.164c3.539 2.404 3.057 6-1.076 8.032l14.915 10.131c4.133-2.032 10.353-1.73 13.891.673l47.117-23.164c-3.538-2.404-3.056-6 1.077-8.032"/>
        <path fill="#6DBC82" d="M86.553 219.721c6.645 4.429 5.74 11.054-2.022 14.797-7.76 3.744-19.439 3.19-26.083-1.24-6.646-4.428-5.74-11.053 2.02-14.796 7.761-3.744 19.44-3.19 26.085 1.24"/>
        <path fill="#88C593" d="M72.379 216.244c-4.208 0-8.43.824-11.872 2.511-3.765 1.845-6.035 4.5-6.23 7.284-.176 2.518 1.331 4.991 4.244 6.965 6.6 4.469 18.25 5.025 25.972 1.24 3.764-1.845 6.035-4.5 6.23-7.285.177-2.517-1.331-4.99-4.244-6.963-3.658-2.477-8.869-3.752-14.1-3.752zM72.644 238c-5.499 0-10.98-1.344-14.83-3.953-3.302-2.235-5.006-5.111-4.797-8.096.227-3.244 2.755-6.28 6.934-8.329 8.086-3.963 20.303-3.366 27.236 1.33 3.302 2.236 5.004 5.111 4.796 8.096-.228 3.244-2.754 6.28-6.934 8.33-3.594 1.76-8.006 2.621-12.405 2.622z"/>
        <path fill="#88C593" d="M82.167 226.396c2.198 1.615 1.607 3.698-.9 5.42L84 233.823 81.79 235l-2.714-1.995c-2.332.973-5.124 1.466-7.684 1.424l-.91-2.253c2.83.044 5.697-.536 7.372-1.427 1.674-.89 2.143-1.818 1.206-2.506-2.79-2.052-9.598 3.58-14.357.081-2.046-1.503-1.652-3.504.878-5.237L63 221.19l2.192-1.19 2.58 1.896c1.872-.8 4.062-1.312 6.02-1.458l1.011 2.272c-2.534.257-4.782.897-5.988 1.538-1.406.748-1.881 1.558-1.06 2.162 2.715 1.995 9.636-3.552 14.412-.014"/>
        <path fill="#7AC08A" d="M33.332 231.988c.753.56.5 1.225-.26 1.77l.928.69-1.023.552-.94-.7c-.726.278-1.582.46-2.36.48l-.393-.98c.852 0 1.925-.23 2.42-.496.302-.163.405-.332.218-.473-.624-.463-2.742 1.183-4.194.103-.664-.495-.572-1.132.179-1.71l-.907-.672 1.023-.552.888.66c.635-.266 1.356-.443 1.997-.495l.412.985c-.735.087-1.653.302-2.058.52-.24.13-.328.267-.174.38.604.452 2.758-1.169 4.244-.062M58.333 247.988c.752.56.498 1.225-.26 1.77l.927.69-1.022.552-.941-.7c-.727.278-1.582.46-2.36.48l-.393-.98c.852 0 1.926-.23 2.42-.497.302-.163.405-.333.218-.472-.623-.464-2.742 1.183-4.194.103-.664-.495-.572-1.132.178-1.71L52 246.55l1.023-.55.887.66c.636-.267 1.357-.444 1.998-.496l.412.986c-.736.086-1.654.302-2.058.52-.24.13-.328.267-.175.38.606.451 2.76-1.17 4.246-.062M92.332 203.988c.753.56.499 1.226-.261 1.77l.929.69-1.023.552-.94-.7c-.727.279-1.583.46-2.361.48l-.392-.98c.852.002 1.925-.23 2.42-.497.3-.162.405-.332.217-.471-.623-.465-2.742 1.183-4.193.102-.664-.495-.574-1.131.177-1.71l-.905-.673 1.023-.551.887.66c.635-.267 1.355-.443 1.997-.496l.412.986c-.735.087-1.653.302-2.059.52-.24.13-.326.267-.174.381.605.451 2.76-1.17 4.246-.063M116.333 219.988c.752.56.498 1.225-.26 1.77l.927.691-1.022.551-.941-.7c-.726.279-1.582.46-2.361.48l-.393-.98c.853 0 1.926-.23 2.42-.496.303-.163.406-.332.219-.473-.623-.463-2.741 1.183-4.194.103-.664-.494-.573-1.132.177-1.71l-.905-.673 1.023-.551.887.66c.637-.266 1.356-.443 1.998-.494l.412.984c-.736.088-1.653.303-2.058.52-.24.13-.328.268-.175.382.605.45 2.76-1.17 4.246-.064"/>
        <path fill="#95CB9C" d="M51 239.691L46.07 242 45 241.308 49.926 239 51 239.691"/>
        <path fill="#6DBC82" d="M53 241.693L48.07 244 47 243.307 51.93 241 53 241.693"/>
        <path fill="#F0AA7F" d="M95 234.826L82.074 241 49 219.173 61.925 213 95 234.826"/>
        <path fill="#E4D4D6" d="M94 235.673L84.918 240 52 218.328 61.082 214 94 235.673"/>
        <path fill="#415C3F" d="M22 232L22 246.037 55 268 55 253.963 22 232"/>
        <path fill="#487F57" d="M55 265.537L61 262 55 267 55 265.537M54 258.882L58 257 54 260 54 258.882M123 224L119 227 123 225.034 123 224M122 230L116 234 122 230.851 122 230M21 239L27 244 21 239.973 21 239M54 265.537L48 262 54 267 54 265.537"/>
        <path fill="#487F57" d="M56 258.882L52 257 56 260 56 258.882M28 247s6.466 3.688 15 10c-8.163-4.576-15-10-15-10"/>
        <path fill="#996453" d="M96 248.864L83 255 83 241.136 96 235 96 248.864"/>
        <path fill="#868182" d="M94 249.715L85 254 85 240.285 94 236 94 249.715"/>
        <path fill="#95CB9C" d="M122 203.278L58.848 239 23 218.722 86.152 183 122 203.278"/>
        <path fill="#529A68" d="M122 204L59 240.675 59 255 122 218.325 122 204"/>
        <path fill="#487F57" d="M58 249.537L64 246 58 251 58 249.537M58 243.882L62 242 58 245 58 243.882M122 208L118 211 122 209.034 122 208M122 214L116 218 122 214.851 122 214M92 227s-6.845 3.241-16 9c8.514-3.617 16-9 16-9"/>
        <path fill="#415C3F" d="M58 239.733L58 254 23 233.267 23 219 58 239.733"/>
        <path fill="#487F57" d="M22 225L28 230 22 226.429 22 225M59 249.537L53 246 59 251 59 249.537M58 243.882L54 242 58 245 58 243.882M29 234s6.845 3.24 16 9c-8.635-4.011-16-9-16-9"/>
        <path fill="#996453" d="M96 232.158L84 239 84 224.842 96 218 96 232.158"/>
        <path fill="#868182" d="M94 233.167L86 238 86 223.833 94 219 94 233.167"/>
        <path fill="#6DBC82" d="M65.808 234l-.877-.513c-3.345-1.955-8.772-1.965-12.096-.022l-.873.51-17.919-10.473.872-.51c3.325-1.943 3.308-5.113-.037-7.068L34 215.41 79.192 189l.877.513c3.346 1.955 8.772 1.965 12.096.022l.873-.51 17.919 10.473-.872.51c-3.325 1.942-3.307 5.113.037 7.068l.878.513L65.808 234"/>
        <path fill="#7AC08A" d="M108.957 199.482l-16.275-9.457c-3.837 2.23-10.078 2.219-13.94-.025L35 215.418c3.861 2.244 3.88 5.87.043 8.1l16.275 9.457c3.837-2.23 10.078-2.219 13.94.025L109 207.582c-3.862-2.244-3.88-5.87-.043-8.1"/>
        <path fill="#6DBC82" d="M85.54 204.099c7.247 4.113 7.285 10.761.082 14.849-7.202 4.087-18.914 4.067-26.163-.046-7.247-4.114-7.283-10.762-.081-14.85 7.202-4.088 18.915-4.067 26.162.047"/>
        <path fill="#88C593" d="M72.381 201.243c-4.697 0-9.385 1.028-12.949 3.084-3.333 1.922-5.17 4.446-5.17 7.105 0 2.685 1.866 5.24 5.254 7.194 7.204 4.155 18.892 4.177 26.052.047 3.333-1.922 5.168-4.445 5.17-7.104 0-2.686-1.867-5.24-5.254-7.194-3.618-2.087-8.366-3.132-13.103-3.132zM72.62 223c-4.967 0-9.943-1.095-13.735-3.282C55.09 217.53 53 214.587 53 211.432c0-3.13 2.06-6.04 5.801-8.198 7.507-4.331 19.76-4.309 27.315.049 3.793 2.188 5.884 5.13 5.884 8.286 0 3.129-2.06 6.04-5.801 8.197-3.738 2.157-8.654 3.234-13.58 3.234z"/>
        <path fill="#88C593" d="M82.164 209.475c2.445 1.488 2.117 3.576-.206 5.403l3.042 1.85L82.907 218l-3.02-1.836c-2.242 1.079-5.016 1.705-7.623 1.79l-1.22-2.182c2.883-.097 5.72-.814 7.305-1.778 1.585-.964 1.94-1.905.899-2.538-3.106-1.89-9.287 4.018-14.583.797-2.276-1.384-2.138-3.382.205-5.222L62 205.285 64.071 204l2.87 1.745c1.798-.886 3.959-1.5 5.929-1.742l1.326 2.195c-2.542.382-4.744 1.125-5.885 1.82-1.332.81-1.71 1.634-.794 2.19 3.02 1.837 9.33-3.992 14.647-.733"/>
        <path fill="#7AC08A" d="M34.085 218.808c.77.55.61 1.263-.034 1.878l.949.678-.89.636-.961-.687c-.646.333-1.423.57-2.148.634l-.483-1.01c.796-.047 1.771-.349 2.202-.656.262-.188.34-.371.147-.509-.637-.455-2.42 1.395-3.904.335-.68-.485-.67-1.162-.038-1.81l-.925-.662.89-.635.907.647c.562-.315 1.214-.54 1.807-.63l.5 1.016c-.675.132-1.507.408-1.86.66-.208.15-.273.298-.118.41.62.442 2.439-1.38 3.96-.295M60.085 232.808c.769.55.61 1.264-.034 1.878l.949.679-.89.635-.961-.687c-.646.333-1.423.57-2.149.634l-.483-1.012c.797-.045 1.772-.347 2.202-.653.263-.188.34-.372.148-.51-.637-.454-2.42 1.395-3.904.334-.68-.485-.67-1.16-.038-1.81l-.925-.66.89-.636.908.648c.56-.315 1.213-.54 1.805-.63l.501 1.016c-.675.131-1.507.408-1.859.659-.209.15-.274.299-.118.41.619.443 2.437-1.38 3.958-.295M89.085 187.808c.768.549.61 1.263-.034 1.878l.949.678-.89.636-.961-.687c-.646.332-1.424.57-2.148.633l-.484-1.01c.797-.046 1.772-.348 2.202-.654.263-.188.34-.372.148-.51-.638-.455-2.42 1.395-3.906.334-.678-.485-.669-1.16-.037-1.81l-.924-.66.89-.636.907.648c.562-.315 1.213-.541 1.806-.63l.502 1.016c-.676.131-1.508.407-1.86.659-.21.149-.275.299-.12.41.62.442 2.44-1.38 3.96-.295M115.085 202.808c.769.55.61 1.264-.034 1.88l.949.677-.89.635-.961-.686c-.646.332-1.424.57-2.149.633l-.482-1.01c.796-.047 1.77-.348 2.201-.655.263-.188.34-.372.148-.51-.637-.455-2.42 1.395-3.905.335-.679-.485-.669-1.161-.037-1.81l-.925-.66.89-.637.907.648c.562-.315 1.214-.54 1.807-.63l.5 1.016c-.675.13-1.507.408-1.86.66-.208.148-.274.298-.117.41.618.441 2.437-1.381 3.958-.296"/>
        <path fill="#95CB9C" d="M52 225.789L47.985 229 47 228.214 51.013 225 52 225.789"/>
        <path fill="#6DBC82" d="M55 227.787L50.982 231 50 230.213 54.014 227 55 227.787"/>
        <path fill="#F0AA7F" d="M96 218.263L84.023 225 48 204.737 59.977 198 96 218.263"/>
        <path fill="#E4D4D6" d="M95 219.247L86.445 224 50 203.753 58.555 199 95 219.247"/>
    </g>
</svg>
