<svg xmlns="http://www.w3.org/2000/svg" xmlns:xlink="http://www.w3.org/1999/xlink" width="138" height="139" viewBox="0 0 138 139">
    <defs>
        <path id="prefix__a" d="M.322 1.24C.258.937.166.64.048.351.35.316 1.47.19 2.888.132c-.277.093-.539.216-.783.37L.518 1.18c-.066.018-.131.038-.196.06zM8.808.6L5.831.146c1.056.062 2.1.198 2.977.455z"/>
    </defs>
    <g fill="none" fill-rule="evenodd">
        <path fill="#E60000" d="M85.557 111.535c.09 1.897-1.71 3.228-4.02 2.974-2.309-.254-4.215-1.986-4.256-3.868-.042-1.881 1.757-3.213 4.019-2.973 2.261.24 4.167 1.971 4.257 3.867" transform="translate(16.56 9.743)"/>
        <path fill="#E60000" d="M91.063 103.27c.327 5.348-4.17 9.122-10.045 8.428-5.875-.694-10.638-5.507-10.638-10.75 0-5.242 4.498-9.016 10.046-8.428 5.548.588 10.31 5.4 10.637 10.75M98.768 102.532l-.579.052c.007.079.01.157.01.233-.002.67-.237 1.206-.631 1.596-.396.388-.965.633-1.666.634-.119 0-.242-.007-.368-.022-.846-.1-1.656-.534-2.257-1.154-.602-.62-.984-1.415-1.03-2.205-.004-.06-.006-.119-.006-.177.002-.686.244-1.24.646-1.644.403-.4.977-.65 1.676-.652.11 0 .224.007.34.02.823.092 1.622.521 2.224 1.143.604.622.998 1.425 1.062 2.228l.579-.052.578-.052c-.095-1.142-.63-2.19-1.403-2.987-.774-.798-1.796-1.357-2.914-1.486-.157-.018-.313-.027-.466-.027-.969-.001-1.846.358-2.477.987-.633.627-1.008 1.525-1.006 2.522 0 .085.003.17.008.255.072 1.142.6 2.19 1.374 2.99.775.799 1.808 1.36 2.942 1.496.168.02.334.03.498.03.963.001 1.834-.346 2.46-.963.63-.615 1-1.498.998-2.48 0-.111-.004-.224-.014-.337l-.578.052M103.487 112.127c.164 1.516-1.257 2.586-3.173 2.39-1.915-.197-3.575-1.578-3.706-3.086-.13-1.507 1.29-2.577 3.173-2.39 1.883.188 3.542 1.57 3.706 3.086M20.597 6.126c-1.128-2.336-3.513-4.22-6.223-4.653-3.678-.589-6.623 1.682-6.578 5.073.021 1.608.725 3.185 1.862 4.467-.512 1.098-.788 2.338-.768 3.69.005.29.026.58.058.87-.335-.121-.682-.214-1.036-.274-2.854-.485-5.16 1.32-5.152 4.03.008 2.71 2.374 5.323 5.284 5.835 2.186.384 4.034-.537 4.79-2.182 2.251 2.185 5.275 3.818 8.574 4.398 6.824 1.2 12.06-2.64 11.694-8.578-.366-5.934-5.964-11.607-12.505-12.676M6.87 29.031c-1.516-.29-2.738.683-2.73 2.174.008 1.49 1.257 2.942 2.789 3.24 1.532.3 2.755-.673 2.73-2.172-.023-1.5-1.272-2.95-2.788-3.242M2.75.532L2.83.037C2.676.012 2.524 0 2.376 0 1.725 0 1.124.24.69.669.257 1.094-.002 1.706 0 2.383c.001.758.311 1.467.792 2.018.483.55 1.146.953 1.898 1.08.157.026.312.039.464.039.65.001 1.247-.238 1.678-.663.433-.422.69-1.03.688-1.704V3.13c-.008-.758-.319-1.467-.8-2.017C4.238.564 3.577.162 2.83.037l-.156.99c.5.08.974.363 1.317.755.343.392.547.883.55 1.357v.014c-.002.421-.15.746-.387.982-.24.235-.58.382-.999.383-.098 0-.2-.008-.306-.026-.507-.083-.983-.368-1.325-.76C1.18 3.342.979 2.854.98 2.384c.002-.424.15-.753.392-.993.242-.239.585-.387 1.004-.388.095 0 .194.008.297.025l.078-.495" transform="translate(16.56 9.743)"/>
        <path fill="#E60000" d="M27.594 9.784c.132 2.64-1.941 4.406-4.63 3.942-2.69-.464-4.938-2.96-5.022-5.577-.083-2.616 1.99-4.38 4.631-3.942 2.64.439 4.889 2.935 5.021 5.577" transform="translate(16.56 9.743)"/>
        <path fill="#183543" d="M82.737 103.063L71.78 21.917c-.466-3.473-3.31-6.668-6.351-7.135l-35.17-5.373.356-1.129-2.667 1.14c-.336.092-.651.228-.943.403l-.048.02.005.007c-1.474.912-2.327 2.836-2.08 5.224l8.854 84.98c.381 3.629 3.287 6.711 6.489 6.885l37.57 2.073c.952.053 1.813-.15 2.545-.546h.009l2.168-.908-.273-1.088c.473-.958.667-2.127.493-3.407" transform="translate(16.56 9.743)"/>
        <path fill="#EBEBEB" d="M80.556 107.632l-37.571-2.065c-3.202-.173-6.108-3.243-6.489-6.857l-8.854-84.65c-.376-3.623 1.788-6.187 4.832-5.726l35.714 5.435c3.042.465 5.886 3.647 6.352 7.107l10.957 80.83c.47 3.451-1.742 6.104-4.941 5.926" transform="translate(16.56 9.743)"/>
        <path fill="#333" d="M78.51 95.213l-37.012-2.517c-1.86-.125-3.55-1.955-3.776-4.088l-7.337-70c-.222-2.138 1.046-3.66 2.833-3.399l35.549 5.204c1.785.263 3.452 2.138 3.722 4.187l8.895 67.14c.272 2.046-1.014 3.6-2.873 3.473" transform="translate(16.56 9.743)"/>
        <path fill="#FFF" d="M63.448 99.593c.257 2.275-1.07 4.021-2.962 3.901-1.892-.12-3.628-2.074-3.876-4.364-.248-2.291 1.079-4.038 2.963-3.903 1.884.136 3.62 2.09 3.875 4.366" transform="translate(16.56 9.743)"/>
        <path fill="#333" d="M64.513 99.577l-.31.034c.023.165.034.327.034.483 0 .835-.302 1.545-.797 2.043-.497.499-1.185.794-2.011.795-.061 0-.123-.002-.185-.005-.956-.05-1.895-.495-2.628-1.188-.734-.692-1.253-1.627-1.381-2.627-.021-.162-.032-.32-.032-.474 0-.84.3-1.553.792-2.054.493-.5 1.174-.794 1.991-.796.068 0 .137.002.206.006.952.057 1.89.506 2.624 1.2.734.693 1.255 1.625 1.388 2.617l.309-.034.31-.035c-.152-1.126-.735-2.164-1.558-2.942-.823-.778-1.892-1.303-3.031-1.373-.084-.005-.166-.007-.248-.007-.987-.001-1.853.369-2.456.985-.605.616-.95 1.47-.95 2.433 0 .177.012.357.035.54.147 1.135.728 2.176 1.552 2.955.823.778 1.896 1.3 3.04 1.361.075.004.149.006.222.006.994.001 1.865-.367 2.473-.981.61-.614.958-1.466.958-2.425 0-.18-.012-.364-.037-.552l-.31.035" transform="translate(16.56 9.743)"/>
        <path fill="#183543" d="M53.324 16.553l-5.751-1.065c-.315-.06-.605-.483-.648-.947-.043-.464.178-.793.493-.734l5.747 1.076c.314.059.605.48.65.941.044.461-.176.788-.49.73" transform="translate(16.56 9.743)"/>
        <path fill="#333" d="M52.96 16.275l.045-.277-6.386-.85c-.08-.01-.192-.065-.283-.162-.092-.095-.159-.225-.173-.348l-.004-.058c0-.092.03-.15.058-.179.03-.028.051-.04.106-.041l.034.002 6.38.858c.081.01.194.065.286.162.092.095.159.224.174.345l.004.06c0 .089-.03.144-.056.172-.03.028-.05.04-.105.041l-.035-.002-.045.277-.045.277c.041.005.083.008.125.008.222.002.436-.088.574-.235.139-.146.206-.338.206-.539 0-.041-.003-.084-.009-.126-.033-.246-.153-.47-.321-.645-.17-.176-.393-.311-.662-.349l-6.38-.858c-.042-.005-.084-.008-.125-.008-.225-.002-.44.09-.577.238-.139.147-.206.34-.206.542 0 .04.002.082.008.123.032.247.15.471.32.649.168.176.392.313.661.35l6.386.85.045-.277" transform="translate(16.56 9.743)"/>
        <path fill="#183543" d="M22.045 61.858c-.051-.061-.141-.068-.2-.015-.06.053-.067.146-.015.207.052.06.142.067.201.014.06-.053.066-.145.014-.206zm-.364-.45c-.05-.063-.14-.072-.2-.022-.062.051-.07.143-.021.206.05.063.139.072.2.021.06-.05.07-.143.02-.205zm-.355-.457c-.049-.064-.138-.075-.2-.025-.062.05-.073.142-.024.205.048.064.138.075.2.025.061-.05.072-.142.024-.205zm-.349-.463c-.047-.064-.137-.077-.2-.028-.062.05-.074.141-.026.205.048.065.137.077.2.028.062-.049.074-.14.026-.205zm-.342-.467c-.047-.065-.136-.078-.2-.03-.063.048-.076.14-.029.205.047.064.136.078.2.03.062-.049.076-.14.029-.205zm-.337-.471c-.047-.065-.136-.08-.2-.032-.063.047-.077.139-.03.204.045.065.134.08.198.032.064-.047.078-.139.032-.204zm-.332-.475c-.046-.066-.135-.081-.199-.034-.064.046-.079.138-.033.204.045.065.134.08.198.034s.08-.138.034-.204zm-.327-.478c-.045-.066-.134-.083-.198-.037-.065.046-.08.137-.036.204.045.066.133.082.198.037.065-.046.08-.138.036-.204zm-.322-.482c-.044-.067-.133-.084-.198-.039-.065.046-.082.137-.038.203.044.067.133.085.198.04.065-.046.082-.137.038-.204zM19 57.63c-.043-.067-.132-.086-.197-.041-.066.045-.084.135-.04.203.043.067.132.085.197.04.066-.044.084-.135.04-.202zm-.312-.488c-.042-.068-.13-.088-.197-.044-.066.045-.084.135-.042.203.043.068.131.087.197.043s.085-.135.042-.202zm-.307-.492c-.042-.068-.13-.088-.197-.045-.066.043-.086.134-.044.202.043.068.13.088.197.045.066-.044.086-.134.044-.202zm-.302-.495c-.042-.068-.13-.09-.196-.047-.067.043-.088.133-.046.201.041.069.129.09.196.048.067-.043.087-.133.046-.202zm-.297-.498c-.041-.069-.129-.09-.196-.049-.067.042-.089.132-.048.2.04.07.128.092.195.05.068-.042.09-.132.049-.2zm-.293-.5c-.04-.07-.127-.093-.195-.052s-.09.13-.05.2c.04.07.127.093.195.052.068-.042.09-.131.05-.2zm-.287-.505c-.04-.07-.127-.094-.195-.053-.068.04-.091.13-.052.2.04.07.127.093.195.053s.091-.13.052-.2zm-.282-.507c-.04-.07-.126-.095-.194-.055-.069.04-.093.129-.054.2.038.07.125.094.194.055.068-.04.092-.13.054-.2zm-.277-.51c-.038-.07-.125-.096-.194-.057s-.094.128-.056.199c.038.07.125.096.194.057s.094-.128.056-.198zm-.272-.513c-.037-.07-.124-.097-.193-.06-.069.04-.095.128-.058.2.037.07.124.097.193.058.07-.038.095-.126.058-.198zm-.266-.515c-.037-.072-.123-.1-.193-.062-.07.037-.096.126-.06.197.037.072.123.1.193.062.07-.037.096-.126.06-.197zm-.261-.519c-.036-.072-.122-.1-.192-.064-.07.037-.098.125-.062.197.036.072.122.1.192.064.07-.037.097-.125.062-.197zm-.255-.521c-.035-.073-.12-.103-.191-.067-.07.036-.1.124-.065.196.035.073.12.102.191.067.07-.036.1-.124.065-.196zm-.25-.525c-.034-.073-.12-.103-.19-.068-.071.035-.1.122-.067.195.035.073.12.103.19.068.071-.035.101-.122.067-.195zm-.244-.527c-.033-.073-.118-.105-.19-.07-.07.034-.101.12-.068.194.034.073.118.104.19.07.07-.034.102-.121.068-.194zm-.238-.53c-.032-.074-.116-.106-.188-.073s-.104.12-.071.194c.032.073.117.106.189.073.071-.034.103-.12.07-.194zm-.231-.533c-.032-.074-.116-.108-.188-.075-.072.032-.105.119-.073.192.032.075.116.108.188.076.072-.033.104-.12.073-.193zm-.226-.536c-.03-.074-.114-.109-.187-.077-.072.032-.106.117-.075.192.031.074.114.109.187.077.072-.031.106-.117.075-.192zm-.219-.538c-.03-.075-.113-.11-.186-.08-.072.03-.107.116-.077.191s.113.11.185.08c.073-.03.108-.116.078-.19zm-.213-.541c-.029-.075-.111-.112-.184-.082-.074.03-.11.115-.08.19.029.075.111.112.185.082.073-.03.108-.115.08-.19zm-.205-.544c-.028-.075-.11-.113-.184-.084-.074.029-.11.113-.083.189.028.075.11.113.184.084.074-.029.11-.113.083-.189zm-.2-.546c-.026-.076-.108-.115-.182-.087-.074.028-.112.112-.085.188.027.075.109.114.183.086.074-.027.112-.111.085-.187zm-.191-.55c-.027-.075-.108-.115-.182-.089-.074.027-.113.11-.087.187.026.076.107.116.182.09.074-.027.113-.11.087-.187zm-.185-.55c-.025-.077-.106-.118-.18-.093-.075.026-.115.11-.09.186.025.076.106.117.18.092.075-.026.115-.109.09-.185zm-.178-.555c-.024-.076-.104-.119-.179-.094-.075.025-.116.107-.092.184.024.077.104.12.18.094.074-.024.116-.107.091-.184zm-.17-.556c-.022-.077-.102-.12-.177-.097-.075.023-.118.105-.095.183.023.077.103.12.178.097.075-.024.118-.106.095-.183zm-.161-.559c-.022-.077-.101-.122-.177-.1-.075.023-.119.104-.097.182.022.077.1.122.177.1.075-.023.119-.104.097-.182zm-.154-.56c-.021-.079-.1-.125-.175-.103-.076.021-.12.101-.1.18.02.077.1.123.175.102.076-.022.12-.102.1-.18zm-.146-.564c-.02-.078-.097-.126-.173-.105-.077.02-.122.1-.103.178.02.078.098.125.174.105.076-.02.122-.1.102-.178zm-.137-.566c-.019-.078-.096-.127-.172-.108-.076.02-.123.098-.105.177.018.078.095.127.172.108.076-.02.123-.098.105-.177zm-.129-.568c-.017-.078-.093-.128-.17-.11-.077.018-.125.096-.108.175.018.078.094.128.17.11.077-.017.125-.096.108-.175zm-.12-.57c-.016-.078-.09-.129-.168-.113-.077.017-.127.094-.11.173.015.08.09.13.168.114.077-.017.126-.094.11-.173zm-.11-.57c-.015-.08-.09-.132-.167-.117-.077.015-.128.092-.113.171.015.08.09.132.166.116.078-.014.128-.091.114-.17zm-.102-.574c-.013-.08-.087-.133-.164-.119-.078.014-.13.09-.117.17.014.079.088.132.165.118.078-.013.13-.09.116-.169zm-.092-.575c-.012-.08-.085-.134-.162-.121-.078.012-.131.087-.12.166.013.08.086.135.164.123.077-.013.13-.088.118-.168zm-.082-.576c-.01-.08-.082-.136-.16-.125-.078.011-.133.085-.122.165.01.08.083.136.16.125.078-.01.133-.085.122-.165zm-.072-.578c-.009-.08-.08-.137-.158-.127-.078.009-.134.082-.125.162.01.08.08.137.159.128.078-.01.134-.082.124-.163zm-.062-.578c-.007-.08-.077-.14-.155-.131-.079.008-.136.08-.128.16.008.08.078.139.156.13.078-.007.135-.079.127-.16zm-.05-.58c-.007-.08-.076-.14-.154-.134-.079.007-.137.077-.13.158.006.08.074.14.153.133.078-.006.137-.077.13-.157zm-.041-.58c-.005-.082-.073-.143-.152-.138-.078.005-.138.075-.133.155.005.08.073.142.151.137.079-.005.139-.074.134-.155zm-.03-.582c-.004-.08-.07-.144-.149-.14-.078.003-.14.071-.136.152.004.081.07.144.149.14.078-.003.14-.072.136-.152zm-.019-.581c-.001-.08-.067-.145-.145-.143-.079.002-.141.069-.14.15.002.08.067.145.146.143.079-.002.141-.07.14-.15zm-.007-.582c0-.08-.064-.146-.143-.146-.078 0-.142.066-.142.147 0 .08.064.146.143.146.079 0 .142-.066.142-.147zm.004-.58c.002-.082-.061-.148-.14-.15-.078-.001-.143.063-.145.144 0 .08.062.147.14.149.079.001.144-.063.145-.144zm.016-.582c.003-.08-.058-.148-.137-.152-.078-.002-.144.06-.147.141-.004.08.058.149.136.152.079.003.145-.06.148-.14zm.028-.58c.005-.08-.055-.15-.134-.155-.078-.004-.146.057-.15.138-.005.08.055.15.133.154.079.005.146-.056.151-.137zm.04-.579c.006-.08-.052-.151-.13-.158-.08-.006-.148.054-.154.134-.007.08.052.151.13.158.079.006.147-.054.154-.134zm.051-.578c.009-.08-.048-.152-.127-.16-.078-.01-.148.05-.156.13-.008.08.049.152.127.16.078.009.148-.05.156-.13zm.065-.577c.01-.08-.046-.153-.124-.163-.078-.01-.15.046-.16.127-.009.08.047.153.125.163.078.01.149-.047.159-.127zm.076-.575c.012-.08-.042-.154-.12-.166-.078-.012-.15.043-.162.123-.011.08.043.155.12.166.078.012.15-.043.162-.123zm.09-.574c.013-.08-.04-.155-.117-.17-.077-.013-.151.04-.164.12-.014.08.038.155.116.17.078.013.151-.04.165-.12zm.101-.573c.015-.079-.035-.156-.112-.171-.077-.016-.152.036-.167.116-.015.079.035.156.112.171.078.015.152-.036.167-.116zm.115-.57c.017-.078-.032-.156-.11-.173-.076-.017-.152.033-.169.112-.016.078.032.156.11.174.076.017.152-.033.169-.112zm.127-.566c.018-.078-.029-.157-.105-.176-.077-.02-.154.029-.172.107-.019.079.028.158.105.177.076.019.153-.03.172-.108zm.14-.563c.02-.079-.025-.159-.101-.18-.077-.02-.155.026-.175.104-.02.078.025.158.101.18.076.02.154-.027.174-.104zm.152-.56c.022-.078-.022-.16-.097-.182-.076-.023-.154.022-.177.1-.022.077.022.158.097.18.076.023.155-.021.177-.099zm.165-.557c.023-.077-.018-.16-.093-.184-.075-.024-.155.019-.179.096-.024.077.018.159.093.183.075.025.155-.018.179-.095zm.177-.552c.025-.077-.014-.16-.088-.186-.075-.026-.156.015-.181.091-.026.076.014.16.088.186.075.026.155-.015.181-.091zm.19-.548c.027-.076-.01-.16-.084-.188-.074-.028-.156.01-.183.087-.028.075.01.16.084.187.074.029.155-.01.183-.086zm.202-.543c.029-.076-.007-.16-.08-.19s-.156.007-.185.082c-.029.075.007.16.08.19s.156-.007.185-.082zm.214-.539c.03-.074-.003-.16-.076-.191-.072-.032-.156.003-.187.077-.03.075.004.16.076.192.073.032.156-.004.187-.078zm.226-.533c.032-.074 0-.16-.072-.194-.071-.033-.156 0-.188.074s0 .16.072.193c.071.033.156 0 .188-.073zm.238-.528c.034-.073.003-.16-.068-.195-.07-.035-.156-.004-.19.07-.033.072-.003.16.068.194.07.035.156.004.19-.07zm.249-.522c.035-.072.007-.16-.063-.197-.07-.036-.156-.007-.191.065-.036.072-.008.16.063.196.07.037.156.008.19-.064zm.26-.517c.038-.071.011-.16-.058-.198-.07-.037-.156-.01-.193.06-.037.072-.01.16.059.199.07.038.156.01.193-.06zm.272-.51c.039-.07.014-.16-.054-.2-.069-.039-.156-.014-.194.057-.039.07-.014.16.054.199.069.04.156.014.194-.056zm.283-.504c.04-.07.017-.16-.05-.2-.069-.042-.156-.019-.196.051-.04.07-.017.16.05.2.068.041.156.018.196-.051zm.293-.498c.041-.069.02-.16-.046-.202-.067-.042-.155-.021-.197.048-.041.068-.02.158.046.2.067.044.155.022.197-.046zm.303-.492c.042-.068.024-.158-.042-.202-.066-.044-.154-.025-.197.043-.043.068-.024.158.042.202.066.044.154.025.197-.043zm.313-.485c.044-.067.027-.158-.038-.203-.065-.045-.154-.028-.198.039-.044.067-.027.158.038.203.065.046.154.028.198-.039zm.323-.478c.045-.066.03-.157-.034-.204-.064-.047-.153-.031-.199.035-.045.066-.03.157.034.204.064.046.153.03.199-.035zm.332-.471c.047-.065.033-.157-.03-.205-.063-.048-.152-.034-.2.03-.046.066-.032.157.03.205.064.048.153.034.2-.03zm.341-.465c.048-.064.037-.156-.026-.205-.062-.05-.151-.038-.2.026-.047.064-.036.156.026.205.063.05.152.038.2-.026zm.35-.458c.05-.063.04-.155-.022-.206-.061-.05-.15-.04-.2.023-.05.063-.04.155.022.206.062.05.151.04.2-.023zm.359-.45c.05-.063.042-.155-.018-.207-.06-.052-.15-.043-.2.019-.051.062-.043.154.017.206.06.052.15.043.2-.019zm.367-.445c.051-.061.044-.153-.015-.206-.06-.053-.15-.046-.2.015-.052.061-.046.153.014.206.06.053.15.046.2-.015zm.374-.437c.053-.06.048-.153-.01-.207-.06-.054-.15-.049-.202.012-.052.06-.047.152.011.206.059.054.149.05.201-.011z" transform="translate(16.56 9.743)"/>
        <g transform="translate(16.56 9.743) translate(27.6 8.28)">
            <mask id="prefix__b" fill="#fff">
                <use xlink:href="#prefix__a"/>
            </mask>
            <path fill="#333" d="M0.048 1.239L8.808 1.239 8.808 0.132 0.048 0.132z" mask="url(#prefix__b)"/>
        </g>
        <path fill="#B54B45" d="M24.732 13.8H23.46l3.782-5.51.082-.01c.118.297.211.602.276.912-.258.088-.503.203-.733.344l-.047.02.004.007c-1.243.784-2.039 2.31-2.092 4.237" transform="translate(16.56 9.743)"/>
        <path fill="#132933" d="M27.181 13.8H24.84c.047-1.981.753-3.551 1.855-4.358l-.004-.006.042-.022c.204-.144.421-.263.65-.353.058-.023.116-.044.176-.063l1.421-.718c-1.137.837-1.847 2.494-1.846 4.572 0 .27.012.549.037.833l.01.115" transform="translate(16.56 9.743)"/>
        <path fill="#396361" d="M33.014 13.8h-6.736l-.012-.106c-.031-.265-.046-.523-.046-.775-.001-2.303 1.241-4.048 3.135-4.61.487-.018 1.006-.029 1.539-.029.558 0 1.133.012 1.705.042l3.281.447-2.866 5.031" transform="translate(16.56 9.743)"/>
        <path fill="#9B9B9B" d="M20.388 17.94L35.88 2.76 17.94 11.62" transform="translate(16.56 9.743)"/>
        <path fill="#44473E" d="M16.56 11.04L19.32 17.94 17.276 11.04 16.56 11.04" transform="translate(16.56 9.743)"/>
        <path fill="#FFF" d="M18.354 11.462L9.66 13.8 37.26 1.38 18.354 11.462M33.035 11.19L40.02 0 17.94 12.42" transform="translate(16.56 9.743)"/>
        <path fill="#44473E" d="M35.88 1.38L17.407 11.04 16.56 11.04 35.88 1.38" transform="translate(16.56 9.743)"/>
        <path fill="#333" d="M75.9 45.54c-1.366-.24-2.626-.75-3.713-1.468L71.76 41.4c.05.047.099.095.15.141l.005.009.023.018c1.07.99 2.342 1.802 3.728 2.364l.234 1.608" transform="translate(16.56 9.743)"/>
        <path fill="#183543" d="M20.34 33.674c-.019.08.031.16.111.178.08.019.16-.031.179-.111.018-.08-.032-.16-.112-.179-.08-.018-.16.032-.178.112zm-.187.527c-.037.074-.006.163.067.2.074.036.163.005.2-.069.036-.074.005-.162-.068-.199-.074-.036-.163-.005-.2.068zm-.303.472c-.051.064-.042.157.022.21.064.051.157.041.21-.022.051-.064.041-.158-.022-.21-.064-.052-.157-.042-.21.022zm-.4.391c-.064.051-.076.144-.026.21.051.064.144.076.21.025.064-.05.076-.143.025-.208-.05-.065-.144-.077-.208-.027zm-.477.292c-.075.035-.107.123-.073.197.035.075.124.107.198.073.075-.035.107-.123.072-.198-.034-.074-.123-.106-.197-.072zm-.531.176c-.08.016-.132.095-.115.175.016.08.095.133.175.116.08-.017.132-.096.116-.176-.017-.08-.095-.132-.176-.115zm-.557.05c-.082-.001-.15.064-.152.146-.002.082.063.15.145.152.082.001.15-.064.152-.146.002-.082-.063-.15-.145-.152zm-.555-.075c-.08-.02-.16.028-.18.108-.02.08.027.16.107.18.08.02.16-.027.18-.107.021-.08-.027-.16-.107-.18zm-.523-.199c-.073-.037-.162-.01-.2.064-.038.073-.01.163.064.2.073.038.162.01.2-.063.038-.073.01-.163-.064-.2zm-.464-.312c-.063-.053-.156-.046-.21.017-.053.062-.045.156.017.21.063.053.156.045.21-.017.053-.063.045-.157-.017-.21zm-.383-.409c-.049-.066-.142-.08-.208-.03-.065.049-.08.142-.03.208.049.066.142.08.208.03.065-.049.08-.142.03-.208zm-.28-.484c-.033-.075-.121-.11-.196-.077-.075.033-.11.12-.077.196.033.075.12.11.196.077.075-.033.11-.12.077-.196zm-.164-.535c-.015-.08-.093-.134-.173-.12-.081.016-.134.093-.12.174.015.081.093.134.174.12.08-.016.134-.093.119-.174zm-.039-.559c.004-.082-.06-.151-.142-.155-.082-.003-.151.06-.155.143-.003.082.06.151.142.155.082.003.152-.06.155-.143zm.087-.552c.022-.08-.024-.162-.103-.184-.08-.022-.161.025-.183.104-.022.08.024.161.103.183.08.022.161-.024.183-.104zm.21-.52c.04-.071.014-.162-.059-.201-.072-.04-.162-.013-.201.06-.04.071-.013.162.059.201.072.04.162.013.202-.06zm.323-.457c.055-.061.049-.155-.012-.21-.062-.055-.156-.05-.21.012-.055.062-.05.156.012.21.061.055.155.05.21-.012zm.417-.374c.067-.047.082-.14.035-.207-.048-.067-.14-.083-.208-.036-.067.048-.082.141-.035.208.048.067.14.083.208.035zm.49-.27c.075-.031.112-.118.08-.194-.03-.076-.118-.112-.194-.081-.076.031-.112.118-.08.194.03.076.117.112.193.081zm.538-.152c.08-.013.136-.09.122-.17-.013-.082-.09-.137-.17-.124-.081.013-.136.09-.123.17.013.082.09.137.17.124zm.559-.027c.082.006.152-.057.158-.138.005-.083-.057-.153-.139-.159-.082-.005-.153.057-.158.14-.005.081.057.152.139.157zm.55.1c.079.023.162-.021.185-.1.024-.078-.02-.161-.1-.185-.078-.024-.16.02-.184.1-.024.078.02.161.099.185zm.514.222c.07.04.162.016.203-.055.04-.072.016-.163-.055-.203-.071-.041-.162-.017-.203.054-.04.072-.017.162.055.204zm.45.332c.06.056.155.052.21-.008.056-.06.053-.154-.008-.21-.06-.056-.154-.053-.21.008-.055.06-.052.154.008.21zm.365.425c.046.068.138.085.206.04.068-.047.086-.139.04-.207-.046-.068-.139-.086-.207-.04-.068.046-.086.139-.04.207zm.259.495c.03.077.115.116.192.086.077-.03.115-.116.085-.192-.03-.077-.115-.115-.192-.086-.077.03-.115.116-.085.192zm.14.542c.011.082.086.139.168.127.081-.011.138-.086.126-.168-.011-.081-.086-.138-.167-.127-.082.012-.138.087-.127.168zm.024.344c0 .083.066.15.148.15.082 0 .149-.067.149-.15 0-.082-.067-.148-.149-.148-.082 0-.148.066-.148.148zM2.292 26.754c-.045.077-.02.176.058.221.076.045.175.02.22-.057.046-.077.02-.176-.057-.222-.077-.045-.176-.019-.221.058zm-.396.388c-.078.044-.105.143-.062.22.044.078.143.106.22.062.078-.043.106-.142.062-.22-.043-.078-.142-.105-.22-.062zm-.537.135c-.09-.002-.163.07-.165.158-.002.09.07.163.158.165.09.002.163-.07.165-.158.002-.09-.069-.163-.158-.165zm-.532-.156c-.076-.047-.175-.023-.222.053-.047.076-.023.176.053.223.076.046.176.023.222-.053.047-.076.023-.176-.053-.223zm-.38-.403c-.042-.08-.14-.109-.219-.066-.079.042-.108.14-.066.218.042.079.14.109.219.067.078-.043.108-.14.066-.22zm-.124-.54c.004-.09-.066-.165-.155-.168-.09-.004-.164.066-.168.155-.003.09.066.164.156.168.089.003.164-.066.167-.156zm.166-.529c.048-.075.026-.175-.049-.223-.075-.049-.175-.027-.223.048-.048.075-.027.175.049.224.075.048.175.026.223-.049zm.41-.372c.08-.041.112-.139.071-.218-.04-.08-.138-.111-.217-.07-.08.04-.111.137-.07.217.04.08.137.11.217.07zm.543-.114c.09.006.165-.063.17-.152.006-.089-.062-.166-.151-.17-.09-.006-.166.062-.171.152-.005.089.063.165.152.17zm.525.177c.074.049.174.03.224-.045.05-.074.03-.174-.044-.224-.074-.05-.175-.03-.224.044-.05.075-.03.175.044.225zm.364.418c.04.08.136.114.216.074.08-.039.114-.135.075-.216-.04-.08-.136-.113-.216-.075-.08.04-.114.136-.075.217zm.106.461c0 .09.072.162.161.162.09 0 .162-.073.162-.162 0-.09-.072-.162-.162-.162-.089 0-.161.073-.161.162zM9.34 58.5c-.011.078.043.149.12.16.077.01.148-.043.16-.12.01-.077-.044-.149-.12-.16-.078-.01-.15.043-.16.12zm-.114.533c-.022.074.022.153.096.174.075.022.153-.021.175-.096.022-.075-.021-.153-.096-.175-.075-.021-.153.022-.175.097zm-.188.51c-.032.072 0 .155.07.188.071.032.155 0 .187-.071s0-.155-.07-.187c-.072-.032-.155 0-.187.07zm-.259.48c-.041.066-.022.153.044.195.066.042.153.022.195-.044.041-.065.022-.153-.044-.195-.066-.041-.153-.022-.195.044zm-.323.438c-.05.06-.043.149.016.2.06.05.148.043.199-.017.05-.059.043-.148-.016-.199-.06-.05-.148-.043-.199.016zm-.381.389c-.059.051-.064.14-.012.2.051.057.14.063.199.011.058-.051.064-.14.012-.2-.052-.058-.14-.063-.2-.011zm-.432.331c-.065.043-.083.13-.04.196.043.065.13.083.196.04.065-.043.083-.13.04-.196-.043-.065-.131-.083-.196-.04zm-.474.267c-.07.034-.1.118-.067.188.034.07.118.1.188.067s.1-.117.067-.188c-.033-.07-.117-.1-.188-.067zm-.507.198c-.074.023-.116.102-.093.177.023.074.103.116.177.093.074-.024.116-.103.093-.177-.023-.075-.102-.116-.177-.093zm-.53.123c-.076.013-.129.085-.116.162.012.077.084.13.161.118.077-.013.13-.085.117-.162-.012-.077-.084-.13-.161-.118zm-.542.049c-.077 0-.14.065-.138.143.002.078.066.14.144.139.078-.001.14-.066.138-.144-.001-.078-.066-.14-.144-.138zm-.543-.028c-.077-.01-.148.045-.157.123-.01.077.045.148.123.157.077.01.147-.046.157-.123.01-.078-.046-.148-.123-.157zm-.534-.104c-.075-.02-.153.024-.173.1-.02.075.024.152.1.172.075.02.152-.024.172-.1.02-.074-.024-.152-.1-.172zm-.514-.179c-.072-.03-.155.003-.186.074-.03.072.003.155.074.186.072.03.155-.003.186-.074.03-.072-.003-.155-.074-.186zm-.484-.25c-.067-.04-.154-.019-.194.048-.04.066-.02.153.047.194.067.04.154.02.194-.047.04-.067.02-.154-.047-.194zm-.444-.315c-.06-.049-.15-.04-.199.02-.05.06-.04.149.02.199.06.05.149.04.198-.02.05-.06.041-.15-.019-.199zm-.395-.374c-.053-.057-.142-.061-.2-.008-.057.052-.061.142-.008.2.052.057.142.06.2.008.057-.053.06-.143.008-.2zm-.34-.426c-.044-.064-.132-.08-.196-.036-.064.044-.08.132-.036.196.044.065.132.08.196.037.065-.045.08-.132.037-.197zm-.275-.469c-.035-.07-.12-.098-.19-.063-.07.034-.098.12-.063.189.035.07.12.098.19.064.069-.035.098-.12.063-.19zm-.207-.503c-.025-.074-.105-.114-.179-.09-.074.025-.114.105-.09.179.025.074.105.114.18.09.073-.025.113-.105.089-.18zm-.134-.527c-.014-.077-.087-.128-.164-.115-.077.014-.127.087-.114.164.014.077.087.128.164.114.077-.013.128-.087.114-.163zm-.058-.542c-.003-.078-.068-.139-.146-.136-.078.003-.139.069-.136.146.003.078.068.14.146.136.078-.002.139-.068.136-.146zm.018-.544c.008-.078-.048-.147-.126-.155-.077-.008-.147.048-.155.126-.008.077.049.147.126.155.078.008.147-.049.155-.126zm.094-.536c.019-.076-.027-.153-.103-.172-.075-.019-.152.028-.171.103-.019.076.027.152.103.171.076.02.152-.027.17-.102zm.169-.518c.03-.072-.006-.155-.078-.184-.072-.03-.154.005-.184.077-.029.073.006.155.078.185.072.029.154-.006.184-.078zm.24-.489c.04-.067.017-.154-.05-.193-.068-.04-.154-.016-.194.05-.04.068-.016.155.05.194.068.04.155.017.194-.05zm.307-.45c.048-.06.038-.15-.023-.198-.061-.048-.15-.038-.198.023-.049.061-.039.15.023.199.06.048.15.037.198-.024zm.367-.402c.056-.054.058-.143.004-.2-.053-.056-.143-.058-.2-.005-.056.054-.058.144-.004.2.054.057.143.059.2.005zm.419-.347c.063-.045.078-.134.033-.197-.046-.064-.134-.078-.197-.033-.064.046-.078.134-.033.197.045.064.133.078.197.033zm.464-.285c.069-.036.096-.121.06-.19-.036-.07-.122-.096-.19-.06-.07.036-.097.121-.061.19.036.07.121.096.19.06zm.499-.216c.073-.026.112-.107.086-.18-.026-.074-.106-.113-.18-.087-.073.026-.112.107-.086.18.026.074.106.113.18.087zm.524-.144c.077-.015.126-.09.111-.166-.015-.076-.09-.126-.166-.11-.076.014-.126.089-.11.165.014.077.089.126.165.111zm.54-.068c.078-.004.138-.07.133-.148-.004-.078-.07-.138-.148-.134-.078.004-.138.071-.133.15.004.077.07.137.148.132zm.544.008c.078.007.146-.051.153-.129.007-.077-.051-.146-.129-.152-.078-.007-.146.05-.152.128-.007.078.05.147.128.153zm.538.084c.076.017.152-.03.17-.106.017-.076-.03-.152-.107-.17-.076-.017-.151.03-.169.107-.017.076.03.152.106.169zm.52.16c.073.027.155-.009.183-.082.028-.073-.008-.154-.08-.182-.074-.029-.155.008-.183.08-.028.073.008.155.08.183zm.494.23c.068.039.153.014.192-.054.038-.068.013-.154-.055-.192-.068-.038-.154-.014-.192.054-.038.069-.014.154.055.193zm.455.3c.062.046.15.034.198-.028.047-.062.035-.15-.027-.198-.062-.047-.151-.035-.198.027-.047.062-.035.151.027.198zm.409.358c.055.056.144.056.2.002.055-.055.055-.144 0-.2-.055-.055-.144-.056-.2-.001-.055.055-.055.144 0 .2zm.354.413c.047.063.135.076.198.03.062-.047.075-.136.029-.198-.047-.063-.135-.076-.198-.029-.062.047-.075.135-.029.197zm.293.459c.038.069.123.094.192.057.068-.038.094-.124.056-.192-.037-.069-.123-.094-.191-.057-.069.038-.094.124-.057.192zm.226.495c.027.073.108.11.181.083.073-.027.11-.109.083-.182-.027-.073-.108-.11-.181-.083-.073.028-.11.109-.083.182zm.153.522c.017.076.092.125.168.108.076-.017.125-.092.108-.168-.017-.076-.092-.125-.168-.108-.076.017-.125.092-.108.168zm.078.539c.006.078.073.136.151.13.078-.005.136-.073.13-.15-.005-.079-.073-.137-.15-.131-.078.005-.137.073-.131.15zm.01.287c0 .078.064.142.142.142.078 0 .141-.064.141-.142 0-.078-.063-.141-.141-.141-.078 0-.141.063-.141.141zM89.337 62.56c-.03.067 0 .145.067.175.066.03.145 0 .175-.067.03-.066 0-.144-.067-.174s-.145 0-.175.066zm-.278.379c-.055.048-.06.132-.011.186.049.055.133.06.187.01.055-.048.06-.131.01-.186-.048-.054-.132-.059-.186-.01zm-.41.233c-.07.021-.108.096-.086.165.022.07.097.108.167.086.07-.022.108-.096.086-.166-.022-.07-.097-.108-.166-.085zm-.468.045c-.073-.008-.139.044-.147.116-.008.073.044.138.117.146.073.008.138-.044.147-.116.008-.073-.045-.138-.117-.146zm-.446-.15c-.064-.037-.145-.016-.182.047-.037.063-.017.144.046.18.063.038.145.017.182-.046.037-.062.016-.143-.046-.18zm-.347-.317c-.042-.06-.125-.074-.185-.032-.06.042-.074.125-.031.184.042.06.125.074.185.032.06-.043.073-.125.031-.184zm-.185-.431c-.014-.072-.084-.118-.156-.104-.072.014-.119.083-.105.155.015.071.084.118.156.104.072-.014.119-.084.105-.155zm.007-.47c.017-.07-.028-.141-.1-.158-.07-.016-.142.028-.158.1-.016.07.028.142.1.158.07.016.142-.028.158-.1zm.2-.424c.044-.058.033-.14-.026-.185-.058-.044-.141-.033-.186.025-.044.059-.032.141.026.186.058.044.142.032.186-.026zm.356-.307c.064-.035.088-.115.052-.18-.035-.063-.116-.086-.18-.051-.064.035-.087.115-.052.18.035.063.116.086.18.051zm.45-.134c.074-.006.128-.07.123-.142-.006-.073-.07-.127-.143-.122-.073.006-.128.07-.122.142.006.073.07.128.143.122zm.468.06c.07.024.145-.012.17-.08.024-.07-.012-.145-.081-.17-.07-.023-.145.013-.17.081-.024.07.012.145.081.169zm.401.246c.053.05.137.048.188-.005.05-.053.048-.136-.005-.187-.053-.05-.137-.048-.187.005-.05.053-.049.136.004.187zm.266.387c.028.067.105.1.173.072.068-.028.1-.105.073-.172-.028-.068-.106-.1-.174-.073-.067.028-.1.105-.072.173zm.084.425c0 .073.06.132.132.132.074 0 .133-.06.133-.132 0-.073-.06-.132-.133-.132-.073 0-.132.059-.132.132zM90.744 48.16c-.014.078.039.152.117.166.079.014.154-.039.167-.117.014-.079-.039-.153-.117-.167-.079-.014-.153.039-.167.117zm-.142.531c-.027.075.011.158.086.185.075.027.158-.011.185-.086.027-.075-.011-.158-.086-.185-.075-.027-.158.011-.185.086zm-.233.5c-.04.068-.017.156.052.197.07.04.158.016.197-.053.04-.07.017-.157-.052-.197-.069-.04-.157-.017-.197.053zm-.317.45c-.05.062-.043.153.018.204.061.051.152.043.203-.018.051-.06.044-.152-.017-.203-.061-.051-.152-.043-.204.018zm-.389.39c-.061.052-.069.143-.018.204.051.06.142.069.203.017.061-.05.07-.142.018-.203-.051-.06-.142-.069-.203-.017zm-.451.317c-.07.04-.093.128-.053.197s.128.093.197.053c.07-.04.093-.129.053-.198-.04-.068-.128-.092-.197-.052zm-.499.233c-.075.027-.113.11-.086.185.027.075.11.114.185.086.075-.027.113-.11.086-.185-.027-.074-.11-.113-.185-.086zm-.532.143c-.078.013-.131.088-.117.167.014.078.088.13.167.117.078-.014.13-.089.117-.167-.014-.078-.089-.13-.167-.117zm-.549.048c-.08 0-.144.064-.144.144 0 .08.065.144.144.144.08 0 .145-.065.144-.144 0-.08-.064-.144-.144-.144zm-.549-.048c-.078-.013-.153.04-.167.118-.014.078.039.153.117.167.079.013.154-.039.167-.117.014-.079-.039-.154-.117-.168zm-.532-.141c-.075-.028-.158.011-.185.086-.027.075.011.158.086.185.075.027.158-.012.185-.087.027-.074-.011-.157-.086-.184zm-.5-.233c-.069-.04-.157-.016-.197.053-.04.069-.016.157.053.197.07.04.157.016.197-.053.04-.069.016-.157-.053-.197zm-.451-.316c-.06-.051-.152-.043-.203.018-.052.06-.043.152.018.203.06.051.152.043.203-.018.05-.061.043-.152-.018-.203zm-.39-.39c-.051-.06-.142-.068-.203-.017-.061.051-.07.142-.018.203.052.061.142.07.203.018.061-.052.07-.142.018-.204zm-.317-.45c-.04-.07-.128-.093-.197-.053s-.093.129-.052.198c.04.068.128.092.197.052s.092-.128.052-.197zm-.234-.5c-.027-.074-.11-.112-.184-.085-.075.027-.114.11-.086.185.027.075.11.113.184.086.076-.027.114-.11.086-.185zm-.142-.53c-.014-.08-.089-.132-.167-.118-.079.014-.131.089-.117.167.013.079.088.131.167.117.078-.014.13-.088.117-.167zm-.049-.55c0-.08-.064-.144-.144-.144-.08 0-.144.065-.144.144 0 .08.065.145.145.144.08 0 .143-.064.143-.144zm.047-.55c.014-.078-.039-.152-.117-.166-.079-.013-.153.04-.167.118-.013.078.039.153.117.167.079.013.154-.04.167-.118zm.142-.531c.027-.075-.012-.158-.087-.185-.075-.027-.157.012-.185.087-.027.074.012.157.087.184.075.027.157-.011.185-.086zm.232-.5c.04-.069.016-.157-.053-.197-.069-.04-.157-.016-.197.053-.04.069-.016.157.053.197.069.04.157.016.197-.053zm.316-.452c.051-.06.043-.152-.018-.203-.061-.051-.152-.043-.203.018-.051.061-.043.152.018.203.06.052.152.044.203-.018zm.39-.39c.06-.051.068-.142.016-.203-.05-.061-.142-.069-.203-.018-.06.052-.069.143-.017.204.051.06.142.068.203.017zm.45-.317c.068-.04.092-.128.052-.197s-.128-.093-.197-.053c-.07.04-.093.129-.053.198.04.068.129.092.198.052zm.498-.234c.075-.027.113-.11.086-.185-.027-.075-.11-.113-.185-.086-.075.028-.113.11-.086.185.027.075.11.113.185.086zm.532-.143c.078-.014.13-.089.117-.167-.014-.079-.09-.131-.168-.117-.078.014-.13.089-.116.167.013.079.088.13.167.117zm.549-.049c.08 0 .144-.064.144-.144 0-.08-.065-.144-.145-.144-.08 0-.144.065-.144.145 0 .08.065.143.145.143zm.549.047c.078.014.153-.04.167-.118.013-.078-.04-.153-.118-.167-.078-.013-.153.04-.166.118-.014.079.038.153.117.167zm.532.141c.075.027.158-.012.185-.087.027-.075-.012-.157-.086-.184-.075-.028-.158.011-.185.086-.027.075.011.158.086.185zm.5.232c.07.04.157.016.197-.053.04-.07.016-.157-.053-.197-.07-.04-.157-.016-.197.053-.04.07-.016.157.053.197zm.452.316c.061.05.152.043.203-.019.051-.06.043-.152-.018-.203-.061-.05-.152-.043-.203.018-.051.061-.043.153.018.204zm.39.388c.052.061.143.07.204.018.06-.052.068-.143.017-.204-.051-.06-.142-.068-.203-.017-.061.051-.069.143-.017.203zm.318.45c.04.07.128.093.197.053s.092-.128.052-.197c-.04-.07-.128-.093-.197-.053s-.092.129-.052.198zm.234.5c.027.074.11.112.185.085.075-.028.113-.11.086-.185-.027-.075-.11-.113-.185-.086-.075.028-.113.11-.086.185zm.143.53c.015.08.09.131.168.118.078-.014.13-.09.117-.168-.014-.078-.09-.13-.168-.116-.078.014-.13.088-.117.167zm.05.55c0 .08.064.144.144.144.08 0 .144-.065.144-.145 0-.08-.065-.144-.145-.144-.08 0-.144.065-.143.145zm0 .008c0 .08.064.144.144.144.08 0 .144-.064.144-.144 0-.08-.065-.144-.144-.144-.08 0-.144.064-.144.144zM78.23 12.327c-.03.086.014.18.1.211.085.03.179-.014.21-.1.03-.085-.015-.18-.1-.21-.085-.031-.179.013-.21.1zm-.294.522c-.057.07-.047.174.023.232.07.058.173.048.23-.022.058-.07.048-.175-.022-.233-.07-.057-.173-.047-.23.023zm-.451.392c-.078.047-.103.149-.056.227.046.078.147.103.225.056.077-.047.102-.148.056-.226-.047-.078-.147-.104-.225-.057zm-.556.216c-.089.018-.147.105-.129.194.017.09.104.148.192.13.09-.018.147-.105.13-.194-.018-.09-.104-.147-.193-.13zm-.596.015c-.09-.014-.173.049-.187.139-.013.09.05.174.139.187.09.013.172-.049.186-.139.013-.09-.049-.174-.138-.187zm-.566-.189c-.08-.042-.18-.012-.222.068-.043.08-.013.18.067.224.08.042.18.012.222-.068.043-.08.012-.18-.067-.224zm-.47-.37c-.06-.067-.164-.072-.232-.01-.067.06-.072.165-.011.232.06.068.164.073.232.012.066-.062.072-.166.01-.233zm-.32-.506c-.034-.084-.13-.124-.214-.09-.083.036-.123.132-.088.216.035.085.13.124.214.09.084-.036.123-.132.089-.216zm-.13-.585c-.004-.091-.08-.162-.17-.157-.091.004-.161.081-.157.172.005.092.081.162.172.157.09-.004.16-.081.156-.172zm.073-.596c.027-.087-.022-.18-.11-.206-.086-.027-.177.023-.203.11-.026.087.022.18.109.206.086.026.178-.023.204-.11zm.269-.536c.054-.073.039-.176-.034-.23-.073-.055-.175-.04-.23.033-.053.073-.038.177.034.231.073.054.176.039.23-.034zm.432-.414c.075-.05.095-.153.045-.229-.05-.076-.152-.096-.227-.045-.076.05-.096.153-.046.229.05.075.153.096.228.045zm.545-.243c.087-.022.141-.112.12-.2-.023-.089-.112-.142-.2-.12-.087.022-.14.111-.12.2.023.088.112.142.2.12zm.594-.044c.09.01.17-.057.18-.148.008-.09-.058-.171-.148-.18-.09-.01-.17.057-.179.148-.009.09.057.171.147.18zm.575.16c.082.04.18.004.218-.078.039-.083.004-.181-.078-.22-.081-.04-.18-.004-.218.078-.039.083-.004.18.078.22zm.487.346c.064.065.168.065.232 0 .064-.064.064-.169 0-.233s-.168-.064-.232 0-.064.169 0 .233zm.343.491c.04.082.137.118.219.079.082-.04.116-.138.078-.22-.039-.083-.137-.118-.218-.079-.082.04-.117.138-.079.22zm.159.578c.009.09.089.157.179.148.09-.008.156-.09.147-.18-.009-.09-.089-.157-.179-.148-.09.009-.156.09-.147.18zm.008.172c0 .09.074.165.164.165.09 0 .164-.074.164-.165 0-.091-.073-.165-.164-.165-.09 0-.164.074-.164.165z" transform="translate(16.56 9.743)"/>
        <path fill="#333" d="M71.252 43.632c-2.137-1.54-3.528-4.05-3.528-6.885 0-.807.113-1.588.324-2.328.002.327.024.66.067 1 .264 2.088 1.282 4.042 2.752 5.586l.385 2.627" transform="translate(16.56 9.743)"/>
        <path fill="#132933" d="M34.5 81.42L31.84 81.168 31.74 80.04 34.4 80.292 34.5 81.42" transform="translate(16.56 9.743)"/>
        <path fill="#919390" d="M40.542 60.72l-.522-.07 1.128-1.31c.088.118.172.246.252.384l-.858.996" transform="translate(16.56 9.743)"/>
        <path fill="#396361" d="M37.26 59.34L35.964 59.149 35.88 57.96 37.258 59.3 37.26 59.34" transform="translate(16.56 9.743)"/>
        <path fill="#669A87" d="M37.288 59.355L37.235 59.351 37.232 59.325 37.288 59.355" transform="translate(16.56 9.743)"/>
        <path fill="#132933" d="M33.822 92.46c-.058 0-.117-.004-.177-.012l-1.457-.194-.448-5.314 1.479.202c.315.043.62.197.887.43l.394 4.678c-.194.135-.425.21-.678.21" transform="translate(16.56 9.743)"/>
        <path fill="#396361" d="M35.024 91.08l-.524-4.14c.66.381 1.147 1 1.235 1.662l.132 1.004c.086.66-.257 1.204-.843 1.474" transform="translate(16.56 9.743)"/>
        <path fill="#30594A" d="M73.471 55.2l-.502-.043c-.06-.232-.103-.47-.13-.71-.079-.714-.003-1.392.203-2.007l.43 2.76" transform="translate(16.56 9.743)"/>
    </g>
</svg>
