<?xml version="1.0" encoding="UTF-8"?>
<svg width="345px" height="205px" viewBox="0 0 345 205" version="1.1" xmlns="http://www.w3.org/2000/svg" xmlns:xlink="http://www.w3.org/1999/xlink">
    <title>DA1BC4C2-B4FF-47F5-BC09-AE9DC720E174</title>
    <g id="web" stroke="none" stroke-width="1" fill="none" fill-rule="evenodd">
        <g id="Web-/-Employee-lines" transform="translate(-422.000000, -313.000000)">
            <g id="3701335" transform="translate(422.000000, 313.000000)">
                <g id="Group-15">
                    <path d="M121.586682,151.552952 C121.586682,151.552952 116.907523,151.323837 116.600683,149.436545 C116.293235,147.549253 118.838489,148.213379 120.631528,148.53475 C122.425175,148.856122 123.516432,150.849112 121.586682,151.552952 Z M124.317254,127.91628 C124.317254,127.91628 121.617062,126.962553 122.428821,125.233502 C123.239972,123.503841 123.938717,123.59793 125.234129,124.885859 C126.528933,126.174399 126.303512,128.43805 124.317254,127.91628 Z M113.706057,185 C116.650506,180.991413 119.543309,176.747602 122.248362,172.461023 C116.762306,167.379569 110.612745,161.374326 111.213665,160.510411 C111.855903,159.587844 119.841035,163.139424 126.095104,166.111191 C127.948903,162.919474 129.661739,159.755861 131.175888,156.70039 C133.998817,151.007965 136.570197,145.963169 138.826838,141.547064 C135.807654,139.673824 132.452465,137.293477 133.03941,136.280486 C133.599621,135.315761 137.487679,136.298204 140.943731,137.405896 C146.765793,125.999661 149.869434,119.655939 148.786684,117.976988 C148.118927,116.942613 142.74953,115.493387 135.066985,116.176454 C135.478333,117.647063 135.619904,119.129281 134.712144,119.53069 C133.628786,120.009081 132.095801,118.322187 130.945607,116.727551 C123.394911,118.061913 114.305155,121.475414 105.404363,128.810132 C107.433761,130.917374 109.838658,133.677745 109.691617,134.781772 C109.592578,135.527768 105.556264,134.545937 100.703331,133.08327 C99.2274607,134.558767 97.766173,136.155237 96.326759,137.88001 C84.581773,151.96047 74.9239069,168.81963 71,182.053893 L113.706057,185 L113.706057,185 Z" id="Fill-9" fill="#AFAFAF"></path>
                    <path d="M23.0085396,129.928518 C23.0085396,129.928518 27.7005826,130.326036 28.2569345,128.495008 C28.8132863,126.663981 26.1903103,126.981995 24.3612502,127.06211 C22.5315794,127.141002 21.1800902,128.972641 23.0085396,129.928518 Z M23.4250401,106.113542 C23.4250401,106.113542 26.2416095,105.528274 25.6626616,103.703973 C25.0837137,101.879062 24.3752964,101.880285 22.9144911,102.984772 C21.4530752,104.08926 21.3773478,106.365507 23.4250401,106.113542 Z M38.5082209,183.024643 C32.199643,174.926291 25.2107402,162.816681 19.5757694,150.582923 C25.7151822,146.275055 32.6387395,141.138515 32.1544508,140.202208 C31.6365734,139.200464 23.2094614,141.656511 16.58576,143.769471 C15.1628184,140.3551 13.8760639,136.987208 12.7725208,133.753861 C10.7162786,127.728716 8.82431596,122.380575 7.1619782,117.698429 C10.4182548,116.242903 14.076375,114.329314 13.6262858,113.246843 C13.1969605,112.213909 9.1925708,112.668914 5.6022388,113.305553 C1.31570363,101.212455 -0.934131901,94.5041922 0.36789018,92.9832285 C1.16974524,92.0456985 6.71127825,91.3246626 14.2742433,93.0303191 C13.6696458,94.4338621 13.3313155,95.8857189 14.1832483,96.4043265 C15.19885,97.0238424 16.9503506,95.5554734 18.3067254,94.1274678 C25.6522796,96.4605905 34.2546637,101.061399 42.1474092,109.527301 C39.8468852,111.34732 37.0840579,113.763616 37.0840579,114.879112 C37.0840579,115.63256 41.2350167,115.197737 46.2641685,114.395363 C47.5380982,116.056375 48.7827141,117.83542 49.9870234,119.739223 C65.5380039,144.314987 74.9703355,175.09386 67.2546943,185 L38.5082209,183.024643 L38.5082209,183.024643 Z" id="Fill-10" fill="#AFAFAF"></path>
                    <path d="M40,89 L95.9168672,89 C98.1663681,89 100,90.8371326 100,93.0901734 L100,128 L54.3987714,128 L40,89" id="Fill-12" fill="#13162E"></path>
                    <path d="M83.8378314,19.4695657 C87.9892421,10.6129995 81.1430777,-0.561390653 73.2041101,3.75768846 C72.9389811,3.63253333 72.6781985,3.52332934 72.4174159,3.41105782 C71.0054644,1.64600234 68.204535,-0.289607692 62.7678385,0.0361637583 L62.7771522,0.198742731 C67.8884913,-0.108010047 70.6316759,1.60367045 72.0796403,3.26197597 C46.7570283,-5.77250684 39.0651832,26.7371526 42.9514649,43.4791057 C43.6090097,43.3729692 44.3634165,43.2527221 45.1991626,43.1269535 C44.3093972,39.7673971 44.6006045,34.9004575 44.6006045,34.9004575 C45.391645,39.0857924 46.3720635,41.5508577 47.0383009,42.8631461 C56.111052,41.6214108 72.2708809,40.366792 86.6604926,46 C88.7306098,34.2556631 80.520925,26.5469658 83.8378314,19.4695657" id="Fill-13" fill="#323961"></path>
                    <path d="M42.0371855,32.7240318 C41.8850564,36.6309234 42.2017332,40.3656735 42.9499596,43.526819 C43.6075296,43.4226914 44.3619654,43.3047202 45.1977437,43.181332 C44.3079441,39.8853624 44.5991625,35.1105401 44.5991625,35.1105401 C45.3902335,39.2166586 46.3706895,41.6350673 47.0369526,42.9225178 C48.8066168,42.6847698 50.8470086,42.4470218 53.0904461,42.2586291 L53.2214633,42.2471931 L53.2556147,42.2447855 L53.4611441,42.2285344 L53.4847397,42.2261268 L53.6182406,42.2158946 L53.7504998,42.2050605 L53.8840007,42.1954302 L53.9939062,42.1864018 L54.0175017,42.1845962 L54.1522446,42.1749659 L54.2869874,42.1647337 L54.557715,42.1454731 L54.6936997,42.134639 L54.8296845,42.1256106 L54.9669111,42.1171841 L55.1041377,42.1081557 L55.2426061,42.0985254 L55.3798327,42.089497 L55.5189221,42.0810704 L55.6573906,42.072042 L55.7971009,42.0642174 L55.9368112,42.0563928 L56.0771425,42.0473644 L56.177113,42.0419474 L56.2174738,42.0401417 L56.3590469,42.032919 L56.6415722,42.0172697 L56.7601708,42.0118527 L56.7837663,42.010047 L56.8197805,42.0088432 L57.0687754,41.9962034 L57.2128323,41.9895826 L57.3494379,41.9835637 L57.3562682,41.9829618 L57.5003251,41.9769428 L57.8865465,41.9612936 L57.9349795,41.958886 L57.9449144,41.9582841 L58.0802782,41.953469 L58.4801602,41.9390235 L58.5192791,41.9378198 L58.5459793,41.936616 L58.6658197,41.9336065 L59.0837089,41.9209667 L59.1091672,41.9203648 L59.1532536,41.9185592 L59.2041702,41.9173554 L59.7040227,41.9047156 L59.7673581,41.9035118 L59.853668,41.902308 C60.0225623,41.8980948 60.1920775,41.8956872 60.3622136,41.8926777 L60.3864301,41.8926777 L60.4547329,41.8920758 L60.9390621,41.8860569 L61.1060935,41.8848531 L61.5463363,41.8824455 L61.7158515,41.8824455 L62.2380577,41.8836493 L62.2895953,41.8836493 C69.9246097,41.9221705 78.5717479,42.8936269 86.6606657,46 C87.7410923,39.9846749 86.019861,35.0497488 84.6010249,30.7173183 C82.3470316,26.0123157 79.6701816,22.6706021 79.6701816,22.6706021 L75.5372395,35.1671181 C75.5372395,35.1671181 74.6077001,26.3626178 57.9902427,30.9069148 L54.6173248,22.2950205 L53.0444969,20 C53.0444969,20 48.5408567,21.6606246 50.6290605,33.2103618 C46.7780228,34.1583443 44.0123791,33.8236915 42.0371855,32.7240318" id="Fill-14" fill="#13162E"></path>
                    <path d="M77.5176479,3.36153006 C80.5455578,4.3710047 83,7.18646743 83,9.65064071 C83,9.76966735 82.9939635,9.88612045 82.9824941,10 C82.4301541,7.82663777 80.2461473,5.61338554 77.6353597,4.74352594 C74.7541368,3.78230534 72.3926568,4.80336095 72.1705135,7.02690739 C72.1705135,7.02690739 69.4045877,4.1741282 66,6.3738693 C66,6.3738693 69.4872878,2.94332833 72.0395213,5.81798269 C72.1548185,3.47476622 74.562176,2.37586075 77.5176479,3.36153006" id="Fill-15" fill="#585E8D"></path>
                    <path d="M57,25 C57,25 59.1956415,38.5182364 59.3324671,48.0091381 C59.3324671,48.0091381 64.2704677,50.2385774 70.7866404,48.0091381 C70.7866404,48.0091381 71.2666995,38.0866925 70.7866404,34.2757427 C70.3065814,30.4647929 57,25 57,25" id="Fill-16" fill="#E88581"></path>
                    <path d="M70.9236528,45 C71.020578,41.9154913 71.076055,37.7224689 70.766787,35.5655522 C70.5467923,34.0232978 67.8494658,32.1999371 64.7988725,30.6052332 C60.8223883,30.2451577 58.006456,30 58.006456,30 C58.006456,30 57.2909949,42.9992535 70.9236528,45" id="Fill-17" fill="#323961"></path>
                    <path d="M78.7423917,17 C79.571711,24.4050335 78.7950663,38.9316139 70.4087741,40.914211 C66.8164863,41.7628615 57.2609397,36.2451254 56.5424821,27.4709116 C46.104329,26.8689548 53.0677935,12.5263392 56.0396231,21.3518218 L56.2907463,23.4387662 C56.2907463,23.4387662 58.374457,25.1728601 59.6319108,21.6353085 C60.8887522,18.0977569 66.5286133,23.9701529 70.1570383,19.547761 C73.7854633,15.1259722 72.2052242,18.804664 78.7423917,17" id="Fill-18" fill="#EFA791"></path>
                    <path d="M70.2240882,40.9263717 C66.6082374,41.7158523 57.2171287,36.0914959 56.50747,27.1779448 C46.1352552,26.5622608 53.0547312,11.9072562 56.0077876,20.9249621 L56.2573245,23.0573611 C56.2573245,23.0573611 58.3278723,24.8292244 59.5773827,21.2146232 C60.8262845,17.600022 66.4305185,23.6003216 70.0360226,19.0822242 L70.1467926,18.9435566 C70.3013838,21.4845627 70.3525084,24.5981118 70.3811139,27.7264521 C70.3811139,27.7264521 72.5301745,25.9336345 72.9519527,28.1104072 C73.3731223,30.2871798 70.8868826,31.439045 70.8868826,31.439045 C70.8868826,31.439045 70.557007,36.3651332 70.2240882,40.9263717" id="Fill-19" fill="#E88581"></path>
                    <path d="M60,22.4826165 C60.0387385,22.3748386 60.0768716,22.2623746 60.1143995,22.1445553 C61.3564511,18.2183592 66.9299458,24.7359116 70.5156738,19.8276645 C74.1014017,14.9200868 72.5397579,19.002929 79,17 C79,17 76.9323351,20.0900803 74.4772858,18.8690434 C72.0216311,17.6486759 68.8674737,24.4447104 65.6376553,22.7169163 C63.1965276,21.4115315 61.5634597,21.3760518 60,22.4826165" id="Fill-20" fill="#E88581"></path>
                    <path d="M70.2585173,30.1380721 C70.5060032,29.9334988 70.842445,29.9794003 70.9348795,30.125605 C71.027811,30.2718097 71.0039569,30.3449121 70.9691697,30.4701495 C70.9637032,30.4576824 71.0039569,30.5188844 70.9507822,30.4355817 C70.8971106,30.3511456 70.6053952,30.2871102 70.4135687,30.4452154 C70.2207483,30.6033205 70.1452104,30.8418949 70.2237301,31 C70.1462044,30.9807327 70.1213564,31 70.0363762,30.866829 C69.9518931,30.7330913 70.0100374,30.3426454 70.2585173,30.1380721" id="Fill-21" fill="#323961"></path>
                    <path d="M63.5930764,25.9395846 C63.5930764,25.9395846 65.6054866,23.804907 68,26 C68,26 66.1384716,21.9585757 63.930111,25.3656383 L63,25.1917151 L63.5930764,25.9395846" id="Fill-22" fill="#323961"></path>
                    <path d="M77.4074219,25.9395846 C77.4074219,25.9395846 75.3944858,23.804907 73,26 C73,26 74.8607082,21.9585757 77.0696459,25.3656383 L78,25.1917151 L77.4074219,25.9395846" id="Fill-23" fill="#323961"></path>
                    <path d="M72.045444,20.7406271 C72.0512881,20.789135 72.3545354,22 72.3545354,22 C72.3545354,22 71.8486904,21.549701 72.045444,20.7406271 Z M72.4116783,20.615239 L72.6194708,21.9157977 C72.6194708,21.9157977 76.06558,20.3305988 79,21.383127 C79,21.383127 77.0883088,18.8735336 72.4116783,20.615239 L72.4116783,20.615239 Z" id="Fill-24" fill="#323961"></path>
                    <path d="M68,20.6572675 L67.8066995,22 C67.8066995,22 64.6736946,20.3383803 62,21.4066996 C62,21.4066996 63.7473892,18.8243761 68,20.6572675" id="Fill-25" fill="#323961"></path>
                    <path d="M68,35 C68,35 71.2496992,36.3511681 74,35.3775782 C74,35.3775782 70.5830325,39.2680375 68,35" id="Fill-26" fill="#323961"></path>
                    <path d="M86.2323233,86.9350146 C86.2323233,86.9350146 89.591929,83.2727468 96.5121216,86.024788 C103.743805,88.9014364 112.415753,92.5328491 122.65912,99.5458664 C122.65912,99.5458664 126.065479,102.17508 128,105.543631 C128,105.543631 127.20154,106.777243 126.233672,106.612287 C125.266412,106.448517 125.222694,106.180908 125.222694,106.180908 L120.838751,109 L117.80278,103.365377 C107.391221,98.0660064 78.7456185,98.3282751 86.2323233,86.9350146" id="Fill-27" fill="#E88581"></path>
                    <path d="M87.4250223,50.0751766 C93.4756573,51.2471457 96.2605277,67.1266899 96.9072687,81.739585 C97.4165233,81.857935 97.8228172,82.1401544 97.9350258,82.7088417 C98.2981626,84.5581373 97.0207104,85.1237899 97.0207104,85.1237899 C95.8665644,85.8120411 93.6082115,86.5640192 89.2783144,87.1533418 C86.3454766,87.5526974 83.8571575,87.7426645 81.8799427,88 C80.939733,73.7555075 79.0075249,48.4437665 87.4250223,50.0751766" id="Fill-28" fill="#BD0000"></path>
                    <path d="M89.5142165,73.9767461 C89.7065016,82.9348107 89.0242593,92.8079103 86.0604806,100 L48.0250116,100 C50.4630879,79.8942573 33.989433,60.5948931 42.4253248,55.4898646 L58.5316659,47 C58.5316659,47 63.7369218,49.2195246 70.6043343,47 C74.4937932,47.2276905 84.8063134,50.6375541 87.4181858,51.5342762 C87.4181858,51.5342762 91.8764881,64.3282848 93,71.0051714 C93,71.0051714 91.6694119,72.6258638 89.5142165,73.9767461" id="Fill-29" fill="#E60000"></path>
                    <path d="M89,82.3081357 C88.6873237,88.691767 87.7432114,95.0011489 85.6870907,100 L48.1440294,100 C49.5279568,88.5625852 44.7356139,77.3895704 42,69 C47.3453056,75.8303345 55.1609976,82.8785878 64.8983718,83.4206683 C76.2222438,84.0508821 83.7343843,81.5885812 89,82.3081357" id="Fill-30" fill="#BD0000"></path>
                    <path d="M56.2844838,47 C56.2919376,47.0134694 58.8560189,51.8457918 70.9124187,48.5284609 L71,48.831844 C58.6926581,52.2184464 56.0080749,47.1654817 56,47.1520123 L56.2844838,47" id="Fill-31" fill="#323961"></path>
                    <path d="M116.77444,55.17765 L116.000822,74.2012702 C115.990135,74.4490692 116.083943,74.665052 116.267996,74.8229092 C116.452643,74.9807663 116.67707,75.034609 116.910403,74.9783189 L125.267028,72.9726767 C125.5912,72.8955837 125.818002,72.6190278 125.839376,72.2776158 L126.998319,53.8150615 C127.013162,53.5752165 126.929448,53.3622929 126.756675,53.2001529 C126.583902,53.0380128 126.370162,52.9725449 126.139799,53.0104796 L117.397848,54.4550559 C117.046365,54.5131816 116.789283,54.8111522 116.77444,55.17765" id="Fill-32" fill="#313864"></path>
                    <polyline id="Fill-33" fill="#13162E" points="114.724728 50 116 52.2332674 115.275272 53 114 50.7658853 114.724728 50"></polyline>
                    <polyline id="Fill-34" fill="#13162E" points="113.076614 55 115 55.1170468 114.925575 56 113 55.8829532 113.076614 55"></polyline>
                    <path d="M40.3651847,55.8710492 C34.5400319,63.3295366 48.4986248,83.4402956 60.6584173,89.1311507 C61.4828929,91.71895 64.19669,94.3103864 67.3300644,93.969711 C70.4634388,93.6308542 74.4280168,89.4415168 74.9362803,84.7490468 C75.4439323,80.057183 72.8628587,76.5770809 69.1698439,76.9783746 C68.8676992,77.0117148 68.5673895,77.0693022 68.2707495,77.1499247 C60.3801261,64.8468151 46.189726,48.4119556 40.3651847,55.8710492" id="Fill-35" fill="#E60000"></path>
                    <path d="M58.0499153,88.8921023 C58.7103195,89.2579634 59.809557,89.7087673 60.4644219,90 C60.2619308,89.1620993 60.1523763,88.2805137 60.1523763,87.3704116 C60.1523763,83.0443928 62.5933484,79.3663667 66,78 C60.812165,79.084235 57.5526118,84.0624937 58.0499153,88.8921023" id="Fill-36" fill="#BD0000"></path>
                    <path d="M40.2595103,55.8796726 C39.5576692,56.7803757 39.1521474,57.879002 39,59.1219601 C39.2202456,58.4009104 39.5496937,57.7444142 39.9981604,57.1683053 C45.8975521,49.6009379 60.2724115,66.2739931 68.2638297,78.7565562 C68.5650569,78.6743419 68.8687382,78.6158784 69.1742599,78.5817747 C72.2331584,78.2498726 74.5380684,80.5488274 74.996351,84 C75.108621,79.7449545 72.6184348,76.7085072 69.1527875,77.0848659 C68.8497198,77.1183606 68.5484925,77.1768241 68.2509462,77.2584294 C60.3362153,64.8976652 46.1018468,48.3859936 40.2595103,55.8796726" id="Fill-37" fill="#FC3333"></path>
                    <path d="M64.8122116,82.3465462 C69.7156082,76.9158778 93.2307089,74.0787976 104.862714,69.6562721 L115.063192,62 L117,74.020213 L106.972495,75.5000839 C106.972495,75.5000839 80.526144,92.826473 70.8228868,92.9961242 C61.1190097,93.1651651 59.907575,87.7766044 64.8122116,82.3465462" id="Fill-38" fill="#EFA791"></path>
                    <path d="M65.7358237,82.9123429 C66.7225549,81.8479509 68.486729,80.8893047 70.7623628,80 C68.6622417,82.2241285 66.705064,85.2994239 67.8045817,88.3752971 C68.8498171,91.3003526 73.5585033,91.7782311 78,91.5262903 C75.4987932,92.4138615 73.2774417,92.9674377 71.5832315,92.99633 C62.14294,93.1563933 60.9644114,88.0540149 65.7358237,82.9123429" id="Fill-39" fill="#E88581"></path>
                    <path d="M115,61.8758996 L121.927796,61 C121.927796,61 122.816514,63.1315814 121.766847,63.5581439 C120.716598,63.9840909 118.07144,64.665483 118.07144,64.665483 C118.07144,64.665483 124.412006,63.2589962 124.654012,63.4725852 C124.896602,63.6855587 125.34096,65.6250947 124.553128,66.1366004 C123.765295,66.6481061 122.675392,66.8179924 122.675392,66.8179924 C122.675392,66.8179924 122.272437,71.7213068 121.98961,72.1897254 C121.707366,72.6581439 116.821754,74 116.821754,74 L115,61.8758996" id="Fill-40" fill="#EFA791"></path>
                    <path d="M110.592936,100.148912 C110.592936,100.148912 123.90699,99.808014 126.434251,106.797043 C128.96212,113.785457 136,176 136,176 L123.529178,176 C123.529178,176 108.167277,144.415225 107.181682,125.034483 C107.181682,125.034483 75.6645358,133.557555 60.3287954,123.159543 C44.9924466,112.762147 62.3504824,100 62.3504824,100 L110.592936,100.148912" id="Fill-41" fill="#13162E"></path>
                    <path d="M123.690252,176 L122,190 L154.859723,190 C154.859723,190 158.094558,185.681695 153.667327,183.108049 C149.240712,180.536234 136.289081,176 136.289081,176 L123.690252,176" id="Fill-42" fill="#13162E"></path>
                    <path d="M47.7602573,99.5663299 C36.785329,130.018938 80.1730671,132.58944 93.8674792,120.539207 C86.2160917,134.90981 86.0043035,159.45928 84.8759939,178 L97.3579951,178 L120.600067,105.276155 C121.488964,102.493194 121.742496,96.4257715 111.907541,95.1800476 C102.071972,93.933706 78.4941081,99.5663299 78.4941081,99.5663299 L47.7602573,99.5663299" id="Fill-43" fill="#323961"></path>
                    <path d="M47.7500658,100 C36.8386803,130.284232 79.9752115,132.841135 93.5903356,120.85753 C86.3341848,134.488413 85.8074746,157.3298 84.8004388,175.409315 L84.7979975,175.451081 L84.7961665,175.491004 L84.7937252,175.532155 L84.7906736,175.57392 L84.7888426,175.613843 L84.7864013,175.655608 L84.7845704,175.696146 L84.7821291,175.736683 L84.7796878,175.777834 L84.7778568,175.818985 L84.7748052,175.859522 L84.7729742,175.900673 L84.7705329,175.940596 L84.7680916,175.981747 L84.7662606,176.022284 L84.7638193,176.063436 L84.7619883,176.104587 L84.7497818,176.307886 L84.7479509,176.348423 L84.7448992,176.38896 L84.7424579,176.430111 L84.7400167,176.470648 L84.7381857,176.510571 L84.7363547,176.551723 L84.7333031,176.591645 L84.7308618,176.632182 L84.7284205,176.673334 L84.7265895,176.713256 L84.7247585,176.754408 L84.7217069,176.79433 L84.7192656,176.835482 L84.7168243,176.875405 L84.7149933,176.915942 L84.7131624,176.955864 L84.7095004,176.996401 L84.7076694,177.036938 L84.7052281,177.076861 L84.7033972,177.117398 L84.7015662,177.130911 L84.7009559,177.157321 L84.6979042,177.197858 L84.6954629,177.238395 L84.693632,177.278318 L84.6570125,177.880232 L84.6551815,177.91954 L84.6527402,177.960691 L84.6509092,178 L97.060642,178 L97.2583872,177.379046 L85.894751,175.581905 C87.0043214,130.359164 102,109.657026 102,109.657026 C68.8557052,121.843931 68.5835004,107.380196 70.2472456,100 L47.7500658,100" id="Fill-44" fill="#13162E"></path>
                    <path d="M58.3563135,105.007266 C58.3551069,105.065395 57.4356634,125.615711 102.593369,108.678457 L103,108.52587 L102.817197,108.92066 C102.773759,109.012698 88.0499939,140.427027 87.9009765,172 L87.5456273,171.998789 C87.6861984,142.353752 100.635027,112.862514 102.314641,109.160441 C57.0748844,126.005052 58,105.05934 58.0015676,105 L58.3563135,105.007266" id="Fill-45" fill="#999999"></path>
                    <path d="M97.8222147,178 L102,193.853228 L80,194 C80,194 80.5743529,186.322082 85.2771375,178 L97.8222147,178" id="Fill-46" fill="#323961"></path>
                    <path d="M102,193 L101.035868,196 L80.472605,196 C80.472605,196 79.6553879,194.798469 80.1702041,193.119388 L102,193" id="Fill-47" fill="#FFFFFF"></path>
                    <path d="M85.9747358,179.782581 C85.4054833,178.368381 86.3441966,177.389553 87.8927356,176.779911 C89.4314386,176.175126 91.5910326,175.939527 93.4051407,176.013 C95.2733463,176.088902 96.7972955,176.511522 96.9817186,177.217712 C97.2042557,178.07449 95.4282617,179.297418 89.8304072,180.720119 C86.4868171,181.56961 85.3022064,181.98798 85.3563038,182.196862 C85.4054833,182.385098 86.6079216,182.533258 88.1453952,182.723316 C89.4179143,182.881191 90.9111263,183.066391 92.2285216,183.377892 C93.0922363,183.581308 93.5858753,183.863055 93.8022651,184.189129 C94.0118926,184.506094 93.9762375,184.847348 93.7678394,185.19346 C93.5815721,185.501924 93.2526844,185.812817 92.8432652,186.110352 C91.458248,187.114683 89.0834938,188 88.3046137,188 L88.3046137,187.641744 C89.0361585,187.641744 91.2959557,186.788609 92.6287197,185.821318 C93.0024837,185.550501 93.2981754,185.273612 93.4567792,185.010081 C93.5926375,184.785412 93.62276,184.570459 93.4985818,184.386473 C93.3313715,184.133872 92.9090427,183.906167 92.1455313,183.725218 C90.8570288,183.421004 89.3693495,183.236411 88.1005189,183.079143 C86.4259575,182.871476 85.1171686,182.710564 85.0071295,182.285515 C84.8927872,181.850143 86.1401018,181.289078 89.7406546,180.374007 C95.0797021,179.017492 96.8052872,177.975514 96.6307,177.305758 C96.491768,176.770195 95.1067508,176.439264 93.3903869,176.369435 C91.6199256,176.298391 89.5162732,176.526096 88.0261349,177.112057 C86.6706255,177.645797 85.8388775,178.478287 86.31223,179.651423 L85.9747358,179.782581" id="Fill-48" fill="#999999"></path>
                    <path d="M67.9455139,177.665995 L67.9455139,133.671642 L51.0297314,133.588361 L70.165199,132 L87.3288251,133.588361 L71.7528526,133.671642 L71.7528526,177.642459 C84.1492761,177.786088 94,180.048537 94,182.81791 C94,185.679616 83.4790681,188 70.499697,188 C57.5215379,188 47,185.679616 47,182.81791 C47,180.146301 56.1690025,177.946614 67.9455139,177.665995" id="Fill-49" fill="#323961"></path>
                    <path d="M89.427329,133 L41.4124445,133 C41.4124445,133 28,133.168485 28,120.139848 C28,110.918586 28,99.1537798 28,93.0661341 C28,90.8292327 29.8306969,89.0058711 32.0744805,89.0058711 L49.296025,89.0058711 C49.296025,89.0058711 63.5560939,88.3284479 63.5560939,101.526899 C63.5560939,114.72535 63.5560939,127.61166 63.5560939,127.61166 L91,127.61166 C90.4128531,129.33179 89.8912853,131.133161 89.427329,133" id="Fill-50" fill="#4C537E"></path>
                    <path d="M89.8334068,132 L42.2828962,132 C42.2828962,132 29,132.167257 29,119.233572 L29,96.7013454 C31.5274164,94.2400098 34.3910932,92.4129577 37.4769205,92.0758051 C48.5741236,90.8642386 53.481463,104.393398 45.8943581,117.065729 C38.3072533,129.738666 59.1717916,127.843092 59.1717916,127.843092 L91,127.843092 C90.5751221,129.185639 90.1878763,130.573059 89.8334068,132" id="Fill-51" fill="#323961"></path>
                    <path d="M58.4373484,115.036761 C58.7471706,115.036761 59,115.293317 59,115.608321 C59,115.923325 58.7471706,116.179266 58.4373484,116.179266 C58.12692,116.179266 57.8746968,115.923325 57.8746968,115.608321 C57.8746968,115.293317 58.12692,115.036761 58.4373484,115.036761 Z M52.6938157,111.432669 C52.9715036,111.432669 53.1970493,111.66154 53.1970493,111.943321 C53.1970493,112.225102 52.9715036,112.453972 52.6938157,112.453972 C52.4161277,112.453972 52.1899757,112.225102 52.1899757,111.943321 C52.1899757,111.66154 52.4161277,111.432669 52.6938157,111.432669 Z M55.9339127,109 C56.1097413,109 56.2516168,109.143352 56.2516168,109.321772 C56.2516168,109.500192 56.1097413,109.644159 55.9339127,109.644159 C55.7586904,109.644159 55.6162086,109.500192 55.6162086,109.321772 C55.6162086,109.143352 55.7586904,109 55.9339127,109 Z M51.180477,118.101284 C51.8322555,118.101284 52.3603476,118.637776 52.3603476,119.299162 C52.3603476,119.959932 51.8322555,120.495809 51.180477,120.495809 C50.5286985,120.495809 50,119.959932 50,119.299162 C50,118.637776 50.5286985,118.101284 51.180477,118.101284 Z M56.2407033,122.186495 C57.005861,122.186495 57.6261116,122.817119 57.6261116,123.59294 C57.6261116,124.369376 57.005861,125 56.2407033,125 C55.4749394,125 54.8546888,124.369376 54.8546888,123.59294 C54.8546888,122.817119 55.4749394,122.186495 56.2407033,122.186495 L56.2407033,122.186495 Z" id="Fill-52" fill="#323961"></path>
                </g>
                <g id="Group-13" transform="translate(159.000000, 0.000000)">
                    <path d="M169.03385,74.0193743 C188.795794,72.7452398 161.26212,136.699084 161.26212,136.699084 C161.26212,136.699084 178.204601,126.172029 180.67645,135.058551 C183.148912,143.944462 161.433332,170.710709 153.479227,180.612012 L68.8026781,188.02025 C59.2267858,174.46965 36.7944914,139.724465 46.3159161,130.727228 C58.5288967,119.187228 75.6402886,154.302692 75.6402886,154.302692 C75.6402886,154.302692 96.7229188,97.1165025 134.78169,114.764764 C134.78169,114.764764 149.270682,75.2935087 169.03385,74.0193743 Z" id="Fill-59" fill="#CCC6C1" transform="translate(112.440776, 131.010418) rotate(5.000000) translate(-112.440776, -131.010418) "></path>
                    <path d="M81,129.70213 L55.8809751,183.218975 C55.6131751,183.79188 55.007393,184.102306 54.3886826,183.96953 L53.0564546,183.682462 C52.6587562,183.597018 52.3497088,183.36343 52.1600941,183.003828 C51.9692481,182.644225 51.9470853,182.256961 52.1040716,181.881376 L76.659793,123 L81,129.70213" id="Fill-61" fill="#2461A1"></path>
                    <path d="M81,129.631387 L73.0381693,147 C71.0706178,146.255474 69.4059039,145.442214 68,144.618005 L76.805492,123 L81,129.631387" id="Fill-62" fill="#1F4472"></path>
                    <path d="M123,134.655498 L135.096025,192.948689 C135.225346,193.568993 135.748645,194 136.36698,194 L137.698686,194 C138.096273,194 138.438522,193.835367 138.694758,193.523365 C138.950994,193.210746 139.045429,192.837084 138.979866,192.434441 L128.528323,129 L123,134.655498" id="Fill-63" fill="#2461A1"></path>
                    <path d="M123,134.709306 L125.481944,147 C127.467026,146.393713 129.302046,145.733271 131,145.030501 L128.430027,129 L123,134.709306" id="Fill-64" fill="#1F4472"></path>
                    <path d="M140.720735,125 L160.906121,177.189779 C161.069387,177.612533 161.018443,178.04819 160.76311,178.421786 C160.507778,178.794768 160.119869,179 159.668127,179 L158.203647,179 C157.656156,179 157.187841,178.687236 156.977929,178.180915 L137,130.08103 L140.720735,125" id="Fill-65" fill="#33619C"></path>
                    <path d="M57.7404219,108.422089 C71.8179729,37.7530636 148.014316,50.1693132 155.053398,78.2550863 C157.065263,86.2837456 155.821309,99.6456712 151.787176,112.165209 C135.264548,163.442619 48.1124711,148.784332 57.7404219,108.422089" id="Fill-66" fill="#13162E"></path>
                    <path d="M121.455676,56 C138.599474,57.5954961 153.153396,66.3943409 156.049806,77.8081798 C158.069614,85.770938 156.820134,99.0231859 152.770075,111.439961 C142.730621,142.217515 106.726679,149.038705 82,140.758197 C104.805158,143.142547 131.004307,134.097109 139.33233,108.564265 C143.38239,96.1474898 144.631869,82.895242 142.611447,74.9330971 C140.517309,66.6752856 132.320131,59.7847792 121.455676,56" id="Fill-67" fill="#323961"></path>
                    <path d="M115.392603,45 C115.392603,45 128.010364,45.3773378 132.449651,49.7744656 C141.357064,58.5989824 135.936654,87.4001696 126.926159,103.067408 C127.909736,105.151103 127.921394,107.928334 123.137886,109.992266 C122.488713,110.272028 121.823587,110.487561 121.14987,110.648748 C120.579236,111.16504 120.00308,111.618339 119.425083,112 C94.4932859,107.650425 73.1080096,103.747357 73.1080096,103.747357 C71.6212933,103.364461 71.3433393,99.8449059 74.086064,99.1279024 C75.8942989,92.3673183 79.712638,86.4645448 79.7733829,86.3657329 C82.8995983,76.5370406 79.0149919,60.2522283 84.4096308,50.5884283 C84.4096308,50.5884283 96.1254219,45 102.547816,45 L115.392603,45" id="Fill-68" fill="#EBEBEB"></path>
                    <path d="M74,98.2939281 C74.2334812,97.4325512 74.5019847,96.5851952 74.7895352,95.761614 C81.0597354,99.3711065 88.6030226,101.677256 88.6030226,101.677256 L74,98.2939281 Z M130.19279,48 C131.0622,48.4572064 131.830845,48.979641 132.443426,49.5770574 C141.363024,58.2883642 135.9352,86.7174609 126.912379,102.182621 C127.897301,104.239441 127.908975,106.980851 123.118923,109.018162 C122.468862,109.294315 121.802826,109.507069 121.128188,109.666786 C120.556773,110.175809 119.979829,110.623871 119.401041,111 C115.491459,110.327602 111.668511,109.666176 108.001627,109.028526 C109.626165,93.5786056 88.7836634,92.5093522 88.7836634,92.5093522 C101.624517,88.6999081 119.624692,95.1288403 119.624692,95.1288403 C134.85197,81.0840679 132.990264,60.1037786 130.19279,48 L130.19279,48 Z" id="Fill-69" fill="#E1D4D6"></path>
                    <polyline id="Fill-70" fill="#323961" points="64.3267711 16 64 37 76.690461 36.8673463 77 16.4343636 64.3267711 16"></polyline>
                    <polyline id="Fill-71" fill="#13162E" points="79 18.1677125 80.8448276 18 81 18.8334284 79.1559934 19 79 18.1677125"></polyline>
                    <polyline id="Fill-72" fill="#13162E" points="74.8828829 13 75 14.9474161 74.1171171 15 74 13.0519794 74.8828829 13"></polyline>
                    <path d="M95,66.5351004 C95,66.5351004 94.3254616,47.0505773 86.1221045,48.0361686 C77.9187474,49.0211539 55,71.2557558 55,71.2557558 L67.0178591,80 L89.60556,64.7845544 L95,66.5351004" id="Fill-73" fill="#EBEBEB"></path>
                    <path d="M60.4996839,83 C65.1816221,83 69,79.8561806 69,76.0003022 C69,72.1450283 65.1816221,69 60.4996839,69 C55.8183779,69 52,72.1450283 52,76.0003022 C52,79.8561806 55.8183779,83 60.4996839,83" id="Fill-74" fill="#EBEBEB"></path>
                    <path d="M64.6305527,70.2877383 C64.6305527,70.2877383 62.8048614,53.7594618 63.9668315,36.961237 L69,33.2409164 L62.928813,24 L55.0899416,34.7265623 C55.0899416,34.7265623 43.7132589,66.3030547 52.0589276,76.3500923 C60.4045963,86.3958887 64.4430988,72.7861555 64.6305527,70.2877383" id="Fill-75" fill="#EFA791"></path>
                    <path d="M65,70.3006719 C65,70.3006719 64.7803869,68.3057154 64.5419151,65 C63.9919698,69.5303299 62.5142961,74.045786 58.8946344,74.9413163 C54.6039664,76.0029381 51.7155372,73.3355591 50,70.770438 C50.4732936,72.9779667 51.2641441,74.8948355 52.4747536,76.3549527 C60.7896338,86.3873714 64.8132376,72.795762 65,70.3006719" id="Fill-76" fill="#E88581"></path>
                    <path d="M64,22.8791692 L76.6759893,21 C76.6759893,21 77.6082439,21.1384264 77.3894619,21.9953227 C77.1694644,22.8528314 74.3435295,23.544351 74.3435295,23.544351 C74.3435295,23.544351 79.4618141,22.4253021 79.8185504,22.8117935 C80.1752867,23.1988975 80.3691519,24.9053399 76.7477012,25.6244223 C76.7477012,25.6244223 77.3615064,27.553817 77.3615064,28.190211 C77.3615064,28.8259925 69,33.2409164 69,33.2409164 L62.7722587,24.3809952" id="Fill-77" fill="#EFA791"></path>
                    <path d="M127.086698,53.912616 C127.086698,53.912616 125.881712,47.2249922 132.456345,47.0021742 C139.030977,46.7787391 162.588257,63.8332602 163.902455,71.8584088 C165.217867,79.8835575 152.891341,80.443997 147.302661,76.9881589 C141.715194,73.532938 127.086698,53.912616 127.086698,53.912616" id="Fill-78" fill="#EBEBEB"></path>
                    <path d="M153.499388,83 C159.833848,83 165,78.7326873 165,73.4996869 C165,68.2673127 159.833848,64 153.499388,64 C147.16554,64 142,68.2673127 142,73.4996869 C142,78.7326873 147.16554,83 153.499388,83" id="Fill-79" fill="#EBEBEB"></path>
                    <path d="M159.632264,69.5537869 C154.991178,64.1731347 129.68701,74.4942591 113.996039,74.4942591 L103,77.953684 L108.41511,88 C108.41511,88 113.222627,84.870102 114.106177,82.7841113 C120.22311,83.1148542 173.771515,87.1512553 159.632264,69.5537869" id="Fill-80" fill="#EFA791"></path>
                    <path d="M159.723893,69.5082155 C158.463781,68.0330031 155.619411,67.7738522 151.846723,68.1611028 C154.66462,68.8376108 159.308562,70.5217968 158.857933,74.2166165 C158.472017,77.387231 153.166252,80.23494 149,82 C158.950883,80.5448585 165.765605,77.102106 159.723893,69.5082155" id="Fill-81" fill="#323961"></path>
                    <path d="M102.623079,78 L95.1300201,85.725535 C94.6299968,86.2404093 95.6658895,86.9730918 96.6434563,86.7413681 C97.6216307,86.5090394 98.1732968,85.9705691 99.4048244,84.954736 L96.1774565,88.4620527 C95.0583278,89.6781483 96.1385726,90.3315728 97.7510414,89.830009 C98.5426943,89.5837648 99.0415025,89.4591301 99.8945191,88.5854773 C99.8945191,88.5854773 101.067113,89.6466871 102.849699,88.39066 L104.186335,89.004153 C105.030846,89.3925776 105.940366,89.3272351 106.721083,88.8226462 L108.41511,88 L103.446158,77.8471382" id="Fill-82" fill="#EFA791"></path>
                    <path d="M117,24 C117,24 115.278737,37.350843 114.910556,44.3002283 C114.153224,49.287837 101.949586,49.1783738 102.000157,44.3002283 L102.491682,28.2060781 L117,24" id="Fill-83" fill="#E88581"></path>
                    <path d="M102,43 L102.450011,28.2702017 L113.712084,25 C114.492143,26.0501441 114.955828,27.3157498 114.993743,28.8412677 C115.330008,42.0140623 102,43 102,43" id="Fill-84" fill="#323961"></path>
                    <path d="M94.2263295,17.4148019 C91.913712,16.7956509 90.3262992,15.6885145 89.2978603,14.3358314 C83.361046,9.59584547 87.2495071,2.57755818 87.2616852,2.55580087 L87.3816393,2.62293772 C87.370679,2.64345176 83.7209083,9.23032263 88.9830569,13.8882524 C85.08668,7.87763944 91.158671,-2.1574546 94.4083918,2.85232195 C94.4083918,2.85232195 120.691125,-5.26564206 118.505769,5.88902111 C118.505769,5.88902111 121.662936,5.95056322 120.873188,8.36748979 C120.084048,10.7837947 117.898691,22 117.898691,22 L94.2263295,17.4148019" id="Fill-85" fill="#323961"></path>
                    <path d="M93.4094292,12 C93.4094292,12 90.4979329,37.543185 100.20292,40.9980447 C100.20292,40.9980447 115.973068,41.4913308 115.851984,26.8078677 C115.851984,26.8078677 120.461701,26.4377484 120.946646,22.9828887 C121.4322,19.5280291 118.520095,16.1957173 115.608599,19.0335051 L114.941723,13.1109769 L93.4094292,12" id="Fill-86" fill="#EFA791"></path>
                    <path d="M116,26 C116,26 120.477362,25.6110031 120.948384,21.9799312 C121.034669,21.3157742 121.009847,20.6561707 120.895785,20.0401504 C119.503406,17.5344376 116.515937,20.3432818 116.515937,20.3432818 C118.339741,20.505906 118.46385,23.8832842 116,24.396526 L116,26" id="Fill-87" fill="#E88581"></path>
                    <path d="M92.4002951,12 C92.4002951,12 89.553752,37.5430607 99.042229,40.9979036 C99.042229,40.9979036 99.3985674,41.0096632 100,40.9774791 L98.9678679,27.7188542 C98.9678679,27.7188542 95.7060924,28.1508643 95.7953257,25.6825889 C95.884559,23.2149324 99.2355678,23.0298736 99.2355678,23.0298736 C99.2355678,21.495557 99.4390198,15.9957839 99.5782238,12.3787825 L92.4002951,12" id="Fill-88" fill="#E88581"></path>
                    <path d="M93.0315891,12 C93.0315891,12 93.0194395,12.1005143 93,12.2863488 L113.757697,13.7923095 L115,17 L114.529201,13.0489715 L93.0315891,12" id="Fill-89" fill="#E88581"></path>
                    <path d="M101.080117,25 C101.631142,25 102.04125,25.2969732 101.996686,25.6636208 C101.986449,25.7464306 101.954531,25.8258138 101.903945,25.899486 C101.796149,25.6527698 101.47818,25.4791548 101.080719,25.4791548 C100.630865,25.4791548 100.228586,25.7013135 100.100315,26 C100.024436,25.9017704 99.988303,25.7858367 100.003358,25.6636208 C100.047922,25.2969732 100.529693,25 101.080117,25" id="Fill-90" fill="#E88581"></path>
                    <path d="M97,30.9903129 L104.99823,30 C104.99823,30 105.195773,33.0922145 101.416895,33.8877324 C97.6392958,34.6832503 97,30.9903129 97,30.9903129" id="Fill-91" fill="#FFFFFE"></path>
                    <path d="M99.9959489,16 L93,16 C93,16 95.5717041,13.3522815 98.8150391,14.1497257 L99.0588757,14.9297076 L99.1965353,14.0420417 C99.1965353,14.0420417 100.066322,14.6219349 99.9959489,16" id="Fill-92" fill="#323961"></path>
                    <path d="M103.003985,16 L110,16 C110,16 107.428889,13.3522815 104.185523,14.1497257 L103.942302,14.9297076 L103.803406,14.0420417 C103.803406,14.0420417 102.934228,14.6219349 103.003985,16" id="Fill-93" fill="#323961"></path>
                    <path d="M106,21 C106.550319,21 107,20.3271028 107,19.5008246 C107,18.6737218 106.550319,18 106,18 C105.448882,18 105,18.6737218 105,19.5008246 C105,20.3271028 105.448882,21 106,21" id="Fill-94" fill="#323961"></path>
                    <path d="M96.0003995,21 C96.5517379,21 97,20.3271028 97,19.5008246 C97,18.6737218 96.5517379,18 96.0003995,18 C95.4498602,18 95,18.6737218 95,19.5008246 C95,20.3271028 95.4498602,21 96.0003995,21" id="Fill-95" fill="#323961"></path>
                    <path d="M80.2771843,103.04303 L73.0172656,103.04303 C73.0172656,103.04303 44.2023689,102.802306 39.5825314,103.459597 C34.9614755,104.116282 21.802492,127.565933 20,165 L35.4018952,164.562816 C38.9222065,161.934258 49.3759291,138.307551 53.1161457,125.60558 C53.1161457,125.60558 66.0101464,131.187705 89.3243662,129.201278 C99.8846911,131.610942 110.859851,126.694598 119,111.145781 L80.2771843,103.04303" id="Fill-96" fill="#323961"></path>
                    <path d="M80.5304903,103.010405 L73.3180624,103.010405 L72,103 L101.300564,109.47422 C92.9074475,115.616712 88.3329599,124.475463 86.2281752,129.652759 C87.299933,129.59033 88.3971081,129.511376 89.5184899,129.414061 C100.009734,131.846331 110.9131,126.883863 119,111.189173 L80.5304903,103.010405" id="Fill-97" fill="#13162E"></path>
                    <path d="M35.4563142,164.913401 C35.4563142,164.913401 38.8162809,172.938259 39.9669212,180.234747 C40.1810783,181.59161 39.3353394,182.877828 38.0104696,183.210345 C31.279042,184.89607 11.3612274,189.560439 4.86331563,187.471552 C-3.00241835,184.941746 0.931053606,179.55327 1.36783717,178.893109 C1.8052257,178.232948 20.1610248,165.352493 20.1610248,165.352493 C24.5948015,161.404315 31.0497609,160.55658 35.4563142,164.913401" id="Fill-98" fill="#EBEBEB"></path>
                    <path d="M95.950807,121.9304 C93.7547343,121.799399 91.4280877,120.906153 90.0846937,118.142938 L44.5040396,116.365585 C43.6956954,117.581765 33.9913135,132.637171 30.3540681,160 L30,159.953693 C33.801222,131.349702 44.2331744,116.127955 44.2641478,116.082866 L44.319414,116 C59.6488028,116.61662 74.9824429,117.212524 90.3136537,117.793195 L90.3592028,117.891294 C91.625467,120.585047 93.8719473,121.452093 96,121.574564 L95.950807,121.9304" id="Fill-99" fill="#404C84"></path>
                    <path d="M49.301709,122 C49.3133603,122.021042 53.3220424,129.2486 87,129.601561 L86.9975471,130 C53.1239692,129.645681 49.0128778,122.243679 49,122.222637 L49.301709,122" id="Fill-100" fill="#13162E"></path>
                    <path d="M39.9669388,179.920708 C40.1810959,181.332444 39.3347518,182.67068 38.0104863,183.016644 C31.2790557,184.770543 11.3612324,189.623546 4.86331777,187.450181 C-3.00241967,184.818065 0.931054015,179.211671 1.36783777,178.524812 C1.46644685,178.368938 2.48339075,177.562956 3.99519492,176.409742 C6.70422217,174.364371 9.63406115,180.494147 6.67941866,183.377815 C6.67941866,183.377815 10.6830681,189.242732 39.9669388,179.920708" id="Fill-101" fill="#323961"></path>
                    <path d="M112.030115,177 C118.981932,171.674639 139.542659,100.972917 119.349431,97.2006844 C99.1574062,93.4284514 94.8971783,143.694377 97.8371746,175.668045 L112.030115,177" id="Fill-102" fill="#323961"></path>
                    <path d="M111.460804,177.534822 C111.460804,177.534822 114.880204,184.339952 113.782911,196.645769 C112.686833,208.951585 89.6576471,205.875435 89,198.843366 L97.131627,176.215777 C102.344224,170.993136 108.637718,172.636467 111.460804,177.534822" id="Fill-103" fill="#EBEBEB"></path>
                    <path d="M114,196 C113.983496,196.20672 113.966991,196.415878 113.94743,196.626867 C112.844076,208.960526 89.6620128,205.877416 89,198.829436 L89.9762091,196.123788 C91.8809477,196.640892 92.2134823,199.889865 95.650692,199.84535 C95.650692,199.84535 96.8549073,195.964022 101.297667,196.170132 C105.739816,196.375632 106.222114,200.360625 106.222114,200.360625 C106.222114,200.360625 111.660032,199.428252 114,196" id="Fill-104" fill="#323961"></path>
                    <path d="M98.0805537,176.846665 C98.0989828,176.834979 104.586652,172.689755 109.842751,176.85835 C110.937692,177.726756 111.191887,178.291958 110.870967,178.671424 C110.407698,179.217561 108.602284,179.17943 106.472773,179.135763 C103.297888,179.068726 99.3686824,178.987544 98.5368322,180.67946 C98.2012959,181.36213 98.4688353,181.793873 99.0909754,182.080472 C100.059455,182.525745 101.828646,182.661049 103.632153,182.798198 C106.617028,183.026985 109.692141,183.262537 109.725822,184.983974 C109.756325,186.618078 107.072671,186.936657 104.121477,186.990164 C103.393211,187.003079 102.644609,187.000619 101.920156,186.997544 L101.099744,186.995084 L101.099744,186.634068 L101.920156,186.636528 C102.642067,186.638373 103.387492,186.641449 104.116393,186.627918 C106.871222,186.578717 109.376941,186.314259 109.351521,184.988894 C109.324831,183.597722 106.421298,183.375701 103.602286,183.160444 C101.765098,183.02022 99.9634967,182.882456 98.9314686,182.408277 C98.1008893,182.025735 97.745653,181.446388 98.1981185,180.524475 C99.1341884,178.619763 103.196846,178.704635 106.479763,178.773518 C108.512045,178.815954 110.233575,178.85224 110.581185,178.441408 C110.751495,178.240297 110.494124,177.842995 109.605715,177.138798 C104.561868,173.139334 98.3004316,177.139414 98.2832735,177.150484 L98.0805537,176.846665" id="Fill-105" fill="#EB94A7"></path>
                </g>
            </g>
        </g>
    </g>
</svg>