<svg xmlns="http://www.w3.org/2000/svg" xmlns:xlink="http://www.w3.org/1999/xlink" width="24" height="24" viewBox="0 0 24 24">
    <defs>
        <path id="prefix__a" d="M16.444 7.76C18.576 8.839 20 11.054 20 13.536c0 1.164-.31 2.295-.899 3.29l.87 3.147-3.146-.87c-.995.588-2.126.898-3.29.898-2.482 0-4.697-1.424-5.774-3.556 4.759-.066 8.617-3.924 8.683-8.683zM7.637 0c4.21 0 7.636 3.426 7.636 7.637 0 4.21-3.425 7.636-7.636 7.636-1.373 0-2.709-.365-3.882-1.059L.028 15.245l1.031-3.727C.365 10.345 0 9.01 0 7.637 0 3.426 3.426 0 7.637 0zm.586 10.586H7.05v1.172h1.172v-1.172zm-.586-7.07c-1.293 0-2.344 1.051-2.344 2.343h1.172c0-.646.526-1.171 1.172-1.171.646 0 1.172.525 1.172 1.171 0 .333-.136.64-.382.865l-1.376 1.26v1.43h1.172V8.5l.995-.911c.485-.443.762-1.074.762-1.73 0-1.292-1.05-2.343-2.343-2.343z"/>
    </defs>
    <g fill="none" fill-rule="evenodd" transform="translate(2 2)">
        <mask id="prefix__b" fill="#fff">
            <use xlink:href="#prefix__a"/>
        </mask>
        <use fill="#000" fill-rule="nonzero" xlink:href="#prefix__a"/>
        <g fill="#AFAFAF" mask="url(#prefix__b)">
            <path d="M0 0H24V24H0z" transform="translate(-2 -2)"/>
        </g>
    </g>
</svg>
