<svg xmlns="http://www.w3.org/2000/svg" xmlns:xlink="http://www.w3.org/1999/xlink" width="24" height="24" viewBox="0 0 24 24">
    <defs>
        <path id="prefix__a" d="M19.171 5.002l.829.829-2.746 2.745V20H2.746V8.576L0 5.831l.829-.829 2.746 2.745H7.33v6.196l2.7-1.593 2.64 1.61V7.747h3.755l2.746-2.745zm-7.673 2.745v4.126l-1.459-.89-1.537.907V7.747h2.996zm.474-5.21c.815 0 1.43.545 1.43 1.498 0 .961-.615 1.5-1.43 1.5s-1.43-.539-1.43-1.5c0-.953.615-1.498 1.43-1.498zm.515-2.46l-3.675 5.38h-1.3l3.676-5.38h1.3zm-.515 3.29c-.169 0-.338.153-.338.668 0 .516.169.67.338.67.17 0 .338-.154.338-.67 0-.515-.169-.668-.338-.668zm5.035-.203v1.172h-1.172V3.164h1.172zm-12.842 0v1.172H2.993V3.164h1.172zM8.028 0c.815 0 1.43.546 1.43 1.499 0 .96-.615 1.499-1.43 1.499s-1.43-.538-1.43-1.5C6.598.547 7.213 0 8.028 0zm0 .83c-.17 0-.338.154-.338.669s.169.669.338.669c.17 0 .338-.154.338-.67 0-.514-.169-.668-.338-.668z"/>
    </defs>
    <g fill="none" fill-rule="evenodd" transform="translate(2 2)">
        <mask id="prefix__b" fill="#fff">
            <use xlink:href="#prefix__a"/>
        </mask>
        <use fill="#000" fill-rule="nonzero" xlink:href="#prefix__a"/>
        <g fill="#AFAFAF" mask="url(#prefix__b)">
            <path d="M0 0H24V24H0z" transform="translate(-2 -2)"/>
        </g>
    </g>
</svg>
