<svg xmlns="http://www.w3.org/2000/svg" xmlns:xlink="http://www.w3.org/1999/xlink" width="24" height="24" viewBox="0 0 24 24">
    <defs>
        <path id="prefix__a" d="M15.132 10.815c.137-.045.284-.045.42 0l3.993 1.322c.272.09.455.343.455.627v10.575c0 .365-.298.661-.665.661H11.35c-.367 0-.665-.296-.665-.66V12.763c0-.284.183-.537.455-.627zM4.235 4.97v1.546c0 .388.317.703.708.703.391 0 .708-.315.708-.703V4.97h3.987v1.546c0 .388.317.703.708.703.39 0 .708-.315.708-.703V4.97h3.575c.39 0 .707.314.707.703v3.702c-.222 0-.44.036-.652.106l-3.992 1.322c-.851.282-1.423 1.07-1.423 1.961v8.002H3.822C1.715 20.766 0 19.063 0 16.969V5.673c0-.389.317-.703.708-.703h3.527zm13.54 10.004c-.276-.275-.724-.275-1 0l-3.866 3.839c-.276.275-.276.72 0 .994.139.138.32.206.5.206.182 0 .363-.068.501-.206l3.865-3.839c.277-.274.277-.72 0-.994zm-.233 3.654c-.277-.275-.725-.275-1.001 0-.277.275-.277.72 0 .994.276.275.724.275 1 0 .277-.274.277-.72 0-.994zm-2.973-3.563c-.277-.274-.725-.274-1.001 0-.277.275-.277.72 0 .995.276.274.724.274 1 0 .277-.275.277-.72 0-.995zM7.645 0c1.88 0 3.409 1.52 3.409 3.386V4.97H9.638V3.386c0-1.091-.894-1.98-1.993-1.98-1.1 0-1.994.889-1.994 1.98V4.97H4.235V3.386C4.235 1.52 5.765 0 7.645 0z"/>
    </defs>
    <g fill="none" fill-rule="evenodd" transform="translate(2)">
        <mask id="prefix__b" fill="#fff">
            <use xlink:href="#prefix__a"/>
        </mask>
        <use fill="#000" fill-rule="nonzero" xlink:href="#prefix__a"/>
        <g fill="#AFAFAF" mask="url(#prefix__b)">
            <path d="M0 0H24V24H0z" transform="translate(-2)"/>
        </g>
    </g>
</svg>
